<mxfile host="Electron" agent="Mozilla/5.0 (Macintosh; Intel Mac OS X 10_15_7) AppleWebKit/537.36 (KHTML, like Gecko) draw.io/27.0.9 Chrome/134.0.6998.205 Electron/35.4.0 Safari/537.36" version="27.0.9">
  <diagram name="Seite-1" id="OLGJ5AkGqPlqnt2_g9bF">
    <mxGraphModel dx="670" dy="482" grid="1" gridSize="10" guides="1" tooltips="1" connect="1" arrows="1" fold="1" page="1" pageScale="1" pageWidth="827" pageHeight="1169" math="0" shadow="0">
      <root>
        <mxCell id="0" />
        <mxCell id="1" parent="0" />
        <mxCell id="DnKJ6aQa_n4VbNqKtSH7-1" value="&lt;font face=&quot;Verdana&quot; style=&quot;font-size: 18px;&quot;&gt;&lt;b style=&quot;&quot;&gt;Generated&lt;/b&gt;&lt;/font&gt;" style="text;html=1;align=center;verticalAlign=middle;whiteSpace=wrap;rounded=0;" vertex="1" parent="1">
          <mxGeometry x="209" y="130" width="410" height="30" as="geometry" />
        </mxCell>
        <mxCell id="DnKJ6aQa_n4VbNqKtSH7-8" value="&lt;font face=&quot;Verdana&quot; style=&quot;font-size: 18px;&quot;&gt;&lt;b style=&quot;&quot;&gt;Ground Truth&lt;/b&gt;&lt;/font&gt;" style="text;html=1;align=center;verticalAlign=middle;whiteSpace=wrap;rounded=0;" vertex="1" parent="1">
          <mxGeometry x="1030.13" y="130" width="410" height="30" as="geometry" />
        </mxCell>
        <mxCell id="DnKJ6aQa_n4VbNqKtSH7-9" value="" style="rounded=0;whiteSpace=wrap;html=1;strokeColor=none;" vertex="1" parent="1">
          <mxGeometry x="690" y="9" width="120" height="10" as="geometry" />
        </mxCell>
        <mxCell id="DnKJ6aQa_n4VbNqKtSH7-10" value="" style="shape=image;verticalLabelPosition=bottom;labelBackgroundColor=default;verticalAlign=top;aspect=fixed;imageAspect=0;image=data:image/png,iVBORw0KGgoAAAANSUhEUgAABRQAAAC2CAYAAACoCgGqAAAMS2lDQ1BJQ0MgUHJvZmlsZQAASImVVwdck0cbv3dkQggQiICMsJcgIiOAjBBW2BtBVEISIIwYE4KKGylWsG4RwVHRKkNxVUCKC7VqpSjuXRyoKLVYi1v5LgTQ0m/8vsvv7v7533P/e57nvXccAPQuvlSai2oCkCfJl8UG+7MmJ6ewSD2AAHThjwpYfIFcyomODgewDPd/L6+vAUTZX3ZQav1z/L8WLaFILgAAiYY4XSgX5EH8IwB4q0AqyweAKIW8+ax8qRKvg1hHBh2EuEaJM1W4VYnTVfjioE18LBfiRwCQ1fl8WSYAGn2QZxUIMqEOHUYLnCRCsQRiP4h98vJmCCFeBLENtIFr0pX67PSvdDL/ppk+osnnZ45gVSyDhRwglktz+XP+z3T875KXqxhewxpW9SxZSKwyZpi3RzkzwpRYHeK3kvTIKIi1AUBxsXDQXomZWYqQBJU9aiOQc2HOABPiSfLcON4QHyvkB4RBbAhxhiQ3MnzIpihDHKS0gflDK8T5vHiI9SCuEckD44ZsjstmxA6vey1DxuUM8U/5skEflPqfFTkJHJU+pp0l4g3pY46FWfFJEFMhDigQJ0ZCrAFxpDwnLmzIJrUwixs5bCNTxCpjsYBYJpIE+6v0sfIMWVDskH1dnnw4dux4lpgXOYQv5WfFh6hyhT0S8Af9h7FgfSIJJ2FYRySfHD4ci1AUEKiKHSeLJAlxKh7Xk+b7x6rm4nbS3Oghe9xflBus5M0gjpcXxA3PLciHm1Olj5dI86PjVX7ildn80GiVP/g+EA64IACwgALWdDADZANxR29TL/ynGgkCfCADmUAEHIaY4RlJgyMS2MaBQvA7RCIgH5nnPzgqAgWQ/zSKVXLiEU7VOoCMoTGlSg54DHEeCAO58L9iUEky4kEieAQZ8T884sMqgDHkwqoc//f8MPuF4UAmfIhRDK/Iog9bEgOJAcQQYhDRFjfAfXAvPBy2frA642zcYziOL/aEx4ROwgPCVUIX4eZ0cZFslJcRoAvqBw3lJ/3r/OBWUNMV98e9oTpUxpm4AXDAXeA6HNwXruwKWe6Q38qssEZp/y2Cr67QkB3FiYJSxlD8KDajZ2rYabiOqChz/XV+VL6mj+SbOzIyen3uV9kXwj5stCX2LXYQO4OdwM5hrVgTYGHHsGasHTuixCM77tHgjhteLXbQnxyoM3rPfLmyykzKneqdepw+qsbyRbPzlTcjd4Z0jkycmZXP4sA3hojFkwgcx7GcnZxdAVC+f1SPt1cxg+8VhNn+hVvyGwDexwYGBn76woUeA2C/O3wkHP7C2bDhq0UNgLOHBQpZgYrDlQ0BPjno8O7TB8bAHNjAeJyBG/ACfiAQhIIoEA+SwTTofRbc5zIwC8wDi0EJKAOrwHpQCbaC7aAG7AEHQBNoBSfAz+A8uAiugttw93SD56APvAYfEAQhITSEgegjJoglYo84I2zEBwlEwpFYJBlJQzIRCaJA5iFLkDJkDVKJbENqkf3IYeQEcg7pRG4i95Ee5E/kPYqh6qgOaoRaoeNRNspBw9B4dCqaic5EC9FidAVagVaju9FG9AR6Hr2KdqHP0X4MYGoYEzPFHDA2xsWisBQsA5NhC7BSrByrxhqwFnidL2NdWC/2DifiDJyFO8AdHIIn4AJ8Jr4AX45X4jV4I34Kv4zfx/vwzwQawZBgT/Ak8AiTCZmEWYQSQjlhJ+EQ4TS8l7oJr4lEIpNoTXSH92IyMZs4l7icuJm4l3ic2El8SOwnkUj6JHuSNymKxCflk0pIG0m7ScdIl0jdpLdkNbIJ2ZkcRE4hS8hF5HJyHfko+RL5CfkDRZNiSfGkRFGElDmUlZQdlBbKBUo35QNVi2pN9abGU7Opi6kV1Abqaeod6is1NTUzNQ+1GDWx2iK1CrV9amfV7qu9U9dWt1PnqqeqK9RXqO9SP65+U/0VjUazovnRUmj5tBW0WtpJ2j3aWw2GhqMGT0OosVCjSqNR45LGCzqFbknn0KfRC+nl9IP0C/ReTYqmlSZXk6+5QLNK87Dmdc1+LYbWBK0orTyt5Vp1Wue0nmqTtK20A7WF2sXa27VPaj9kYAxzBpchYCxh7GCcZnTrEHWsdXg62TplOnt0OnT6dLV1XXQTdWfrVuke0e1iYkwrJo+Zy1zJPMC8xnw/xmgMZ4xozLIxDWMujXmjN1bPT0+kV6q3V++q3nt9ln6gfo7+av0m/bsGuIGdQYzBLIMtBqcNesfqjPUaKxhbOvbA2FuGqKGdYazhXMPthu2G/UbGRsFGUqONRieNeo2Zxn7G2cbrjI8a95gwTHxMxCbrTI6ZPGPpsjisXFYF6xSrz9TQNMRUYbrNtMP0g5m1WYJZkdles7vmVHO2eYb5OvM28z4LE4sIi3kW9Ra3LCmWbMssyw2WZyzfWFlbJVkttWqyemqtZ82zLrSut75jQ7PxtZlpU21zxZZoy7bNsd1se9EOtXO1y7Krsrtgj9q72YvtN9t3jiOM8xgnGVc97rqDugPHocCh3uG+I9Mx3LHIscnxxXiL8SnjV48/M/6zk6tTrtMOp9sTtCeETiia0DLhT2c7Z4FzlfOVibSJQRMXTmye+NLF3kXkssXlhivDNcJ1qWub6yc3dzeZW4Nbj7uFe5r7JvfrbB12NHs5+6wHwcPfY6FHq8c7TzfPfM8Dnn94OXjleNV5PZ1kPUk0acekh95m3nzvbd5dPiyfNJ/vfbp8TX35vtW+D/zM/YR+O/2ecGw52ZzdnBf+Tv4y/0P+b7ie3Pnc4wFYQHBAaUBHoHZgQmBl4L0gs6DMoPqgvmDX4LnBx0MIIWEhq0Ou84x4Al4try/UPXR+6Kkw9bC4sMqwB+F24bLwlgg0IjRibcSdSMtISWRTFIjiRa2NuhttHT0z+qcYYkx0TFXM49gJsfNiz8Qx4qbH1cW9jvePXxl/O8EmQZHQlkhPTE2sTXyTFJC0Jqlr8vjJ8yefTzZIFic3p5BSElN2pvRPCZyyfkp3qmtqSeq1qdZTZ089N81gWu60I9Pp0/nTD6YR0pLS6tI+8qP41fz+dF76pvQ+AVewQfBc6CdcJ+wReYvWiJ5keGesyXia6Z25NrMnyzerPKtXzBVXil9mh2RvzX6TE5WzK2cgNyl3bx45Ly3vsERbkiM5NcN4xuwZnVJ7aYm0a6bnzPUz+2Rhsp1yRD5V3pyvAz/02xU2im8U9wt8CqoK3s5KnHVwttZsyez2OXZzls15UhhU+MNcfK5gbts803mL592fz5m/bQGyIH1B20LzhcULuxcFL6pZTF2cs/jXIqeiNUV/LUla0lJsVLyo+OE3wd/Ul2iUyEquL/VauvVb/Fvxtx3LJi7buOxzqbD0lzKnsvKyj8sFy3/5bsJ3Fd8NrMhY0bHSbeWWVcRVklXXVvuurlmjtaZwzcO1EWsb17HWla77a/309efKXcq3bqBuUGzoqgivaN5osXHVxo+VWZVXq/yr9m4y3LRs05vNws2XtvhtadhqtLVs6/vvxd/f2Ba8rbHaqrp8O3F7wfbHOxJ3nPmB/UPtToOdZTs/7ZLs6qqJrTlV615bW2dYt7IerVfU9+xO3X1xT8Ce5gaHhm17mXvL9oF9in3P9qftv3Yg7EDbQfbBhh8tf9x0iHGotBFpnNPY15TV1NWc3Nx5OPRwW4tXy6GfHH/a1WraWnVE98jKo9SjxUcHjhUe6z8uPd57IvPEw7bpbbdPTj555VTMqY7TYafP/hz088kznDPHznqfbT3nee7wL+xfms67nW9sd20/9Kvrr4c63DoaL7hfaL7ocbGlc1Ln0Uu+l05cDrj88xXelfNXI692Xku4duN66vWuG8IbT2/m3nx5q+DWh9uL7hDulN7VvFt+z/Be9W+2v+3tcus6cj/gfvuDuAe3HwoePn8kf/Sxu/gx7XH5E5MntU+dn7b2BPVcfDblWfdz6fMPvSW/a/2+6YXNix//8PujvW9yX/dL2cuBP5e/0n+16y+Xv9r6o/vvvc57/eFN6Vv9tzXv2O/OvE96/+TDrI+kjxWfbD+1fA77fGcgb2BAypfxBz8FMKA82mQA8OcuAGjJADDguZE6RXU+HCyI6kw7iMB/wqoz5GBxA6ABftPH9MKvm+sA7NsBgBXUp6cCEE0DIN4DoBMnjtThs9zguVNZiPBs8H3Mp/S8dPBviupM+pXfo3ugVHUBo/t/ASVngw4IJLDzAAAAlmVYSWZNTQAqAAAACAAFARIAAwAAAAEAAQAAARoABQAAAAEAAABKARsABQAAAAEAAABSASgAAwAAAAEAAgAAh2kABAAAAAEAAABaAAAAAAAAAJAAAAABAAAAkAAAAAEAA5KGAAcAAAASAAAAhKACAAQAAAABAAAFFKADAAQAAAABAAAAtgAAAABBU0NJSQAAAFNjcmVlbnNob3Tk0FHXAAAACXBIWXMAABYlAAAWJQFJUiTwAAAC3GlUWHRYTUw6Y29tLmFkb2JlLnhtcAAAAAAAPHg6eG1wbWV0YSB4bWxuczp4PSJhZG9iZTpuczptZXRhLyIgeDp4bXB0az0iWE1QIENvcmUgNi4wLjAiPgogICA8cmRmOlJERiB4bWxuczpyZGY9Imh0dHA6Ly93d3cudzMub3JnLzE5OTkvMDIvMjItcmRmLXN5bnRheC1ucyMiPgogICAgICA8cmRmOkRlc2NyaXB0aW9uIHJkZjphYm91dD0iIgogICAgICAgICAgICB4bWxuczpleGlmPSJodHRwOi8vbnMuYWRvYmUuY29tL2V4aWYvMS4wLyIKICAgICAgICAgICAgeG1sbnM6dGlmZj0iaHR0cDovL25zLmFkb2JlLmNvbS90aWZmLzEuMC8iPgogICAgICAgICA8ZXhpZjpVc2VyQ29tbWVudD5TY3JlZW5zaG90PC9leGlmOlVzZXJDb21tZW50PgogICAgICAgICA8ZXhpZjpQaXhlbFhEaW1lbnNpb24+MTMwMDwvZXhpZjpQaXhlbFhEaW1lbnNpb24+CiAgICAgICAgIDxleGlmOlBpeGVsWURpbWVuc2lvbj4xODI8L2V4aWY6UGl4ZWxZRGltZW5zaW9uPgogICAgICAgICA8dGlmZjpSZXNvbHV0aW9uVW5pdD4yPC90aWZmOlJlc29sdXRpb25Vbml0PgogICAgICAgICA8dGlmZjpYUmVzb2x1dGlvbj4xNDQvMTwvdGlmZjpYUmVzb2x1dGlvbj4KICAgICAgICAgPHRpZmY6WVJlc29sdXRpb24+MTQ0LzE8L3RpZmY6WVJlc29sdXRpb24+CiAgICAgICAgIDx0aWZmOk9yaWVudGF0aW9uPjE8L3RpZmY6T3JpZW50YXRpb24+CiAgICAgIDwvcmRmOkRlc2NyaXB0aW9uPgogICA8L3JkZjpSREY+CjwveDp4bXBtZXRhPgoV6wdCAABAAElEQVR4AeydB7xP5R/Hv/beZO9USpTIzoiMjNAelEpIidJUNFQqSkNIUsmeGdlkZRSRyuZvZUv2uPyfz3M9x/mte3/j/Nb1+d7X7571nOc8533Oec453/MdqU6fTbgoFBIgARIgARIgARIgARIgARIgARIgARIgARIgARLwg0BqP8qwCAmQAAmQAAmQAAmQAAmQAAmQAAmQAAmQAAmQAAloAqkuKklJLI4cOaJ3J1euXClpt7gvJEACJEACJEACJEACJEACJEACJEACJEACJBATBGihGBOHgY0gARIgARIgARIgARIgARIgARIgARIgARIggfggQIVifBwntpIESIAESIAESIAESIAESIAESIAESIAESIAEYoIAFYoxcRjYCBIgARIgARIgARIgARIgARIgARIgARIgARKIDwJpo9XM//77TxC+MVWqVJItWzY9jFZbuF0SIAESIAESIAESIAESIAESIAESIAESIAESIAH/CERUoQgF4u7du2Xz5s1y7Ngxq4UNGjSQjBkzWtMcIQESIAESIAESIAESIAESIAESIAESIAESIAESiE0CEVEoXrhwQXbs2CFbtmyRkydPxiYJtooESIAESIAESIAESIAESIAESIAESIAESIAESCBZAhFRKG7atEk2btxoNSZNmjTa3RmKRkp0CJw+c0bOnzsvadOmoXWo2yHYtWu325zEyfz5r5J06dJ5XcaZKZcALKtPnEj8EJIpcyZJk9q50LMudWfKKOgbKSRAAiRAAiRAAiRAAiRAAiRAAiQQ6wScezP2Y0/Tpk0rV199tdSvX19y587txxosEi4Cjz/ZQSreWl0aNb3L703cUOEWua7cTfLSq6/7vU68Fdy//4DUu6OJ19+y5SvjbXci1t4nOzwtt9xaQ/+mTvvJZbuVq9Wylu3evcdlWTgnnDpfl6/4VV8ruF4mT57iaJP/+nu9VfcPI0c7Wne4K/tt1WrruDa7626XzQ0ZOsxa9nqvt1yWcYIESIAESIAESIAESIAESIAESCD+CUTEQjFTpkxy7bXXSsmSJWnhFSPnjDK6ShRrJPmGnT9/XlmWiiSoYUqVVKlTpdRdC+t+HT9+Qo4dP663cebsGZdtHT36nzV9LoLnjnPnq7lYRC6qPycFFopG7ONmXiwPz549ax1ze0xctPnUqdPWspOXrDtjeV/YNhIgARIgARIgARIgARIgARIggcAIREShWKxYscBaxdIkECUC+fLmlY1/rbG2/uPUafLCi69a0xwhARIgARIgARIgARIgARIgARIgARIggSudQEQUilc65JSy/8O/HSoJCRck/1X5UsoucT9SMAGeryn44HLXSIAESIAESIAESIAESIAESIAEokqACsWo4o+vjVeudEt8NZitvaIJ8Hy9og8/d54ESIAESIAESIAESIAESIAESCCMBKhQDCPcSFR96NBhmTBpsopZdkqe7dzJZZNnVCbnkaPHyu9r1qos25ukVKmSAiXLPa1bupTzNbFw0WL5e/0Gj8XXXXuN1L6tlsd8zPh++Ag5cPCQyhydQTp1aO+1DGZu/98OmTBxsl5es0Y1ubVyJZ9lQ1mwY+dOmTFztmzavEU2q19CQoIULVpEKlW8WVq3ukuyZ88eSvUe6yJ79i+/LJeFixfLjh27ZN/+fZIubTqVjKi0XHtNGWlQv54U9yMEABLATJr8o+zes0fVcUCyZc0qV+XLJ+XLl5N6devoujw2fmnGf8eOyQ8jRsnaP9bJnj3/yLlz5yRvnjxSpEhhue22mlKrRnXJkiWLr9WjOj+Utgdzvtp3dvXva2TGrNmyZs0fcvbcWal8S0W5o0F9e5EkxxED8acZswT1rN+wQQ4fPiJlylwtN1xfVh64717JmjV55tu2bZcp06bLipW/6szSN5a7QWrVrKHPG18b3779fzJ/wc+yZu0fsnffPjny71EpUqiQ3jbWb9K4oaRKlXRs0EWLl8rKX3/T5To+9YTa/3MyctQYWarOZdSZO1cuvR9tH3lIXz++2uLPfMS2fOa55+Wu5s3k9np1VKZ53ob84cYyJEACJEACJEACJEACJEACJBBLBPgmF0tHw8+2XLhwQb3oL5MxYyfInHnzBS/o9W+v67L2gYMHpePTXbRSySzYvGWrzJo9V+bMnSenz5w2s30Op0ydLpOnTPNY3rxpE58KxXV//S0TJ/2o14HSEcoUbzJ6zDj5+ptv9aJwWJJBuTP8h5HyYb/+cvq0676u37BRZs+ZJx/3/1zmzp4uiJvolNRveKcgU7S7/Km4QL74cpC81/staXRHA/ciejpBHdsuXV/Qx8lbgbnzF0j/z76Q9et+97ZYlq9YKZ06P2clxDCFcOyVlkrGTZikFc+dOz1lFsXMMNS2B3O+mp3H+djr7Xe1wtnMW7fuL/n+h1Hy8IP3m1k+hwcOHJAXX+khS5YucykDRfb0n2YK6u//8Uc+rwesBKU/zo9/lULQCM6bUWpdKPJefukFSZM6tVmkh2PGjpcePT2zKEMxuWjJUl1m8pSp8lGfd5NUni9eskS++Xa4Lo8PDp27dBNkoDaC+pDVGYrOHyeONbODGkKpP3feAv3Lmye3tGrZQu65u5VfivagNsiVSIAESIAESIAESIAESIAESIAEHCdAhaLjSMNXIRRV4yZMlLHjJ8ru3XtcNuRucQalEizUIMWURR6s2pCVdbZSJi5f8avLur4mbrnlZoHy0siUaT+ZUZ9DKBuNQnGqKu9NoQhl37TpM3QdUChUr17VZ33BLvio3yfy1dfDrNWrV6si15ctqyywlOJm02atkIU1Iaz3nBRTH6wBK5S/USlJikqaNGllk9rm7DlztdXZs8+9IF9+/omyznJVAqMd33033FIm5s6dS5o2aSyFCxfSSqat27bJzz8vUspg1yzKpv04vs8qZaTJtox9rlrlVm0BtmvXbvn1t1V63y9evHxMse7MWXNknrJwC1S6dXlG8ue/KtDVvJYPtu32yoI5X7H+wsVL5PVeb+uqUqss3/VvryelS5WSdev+1Eq5YeqYJCUnTpyQVvc+KPv27dfFcL3VqX2btkhctXqNLFu+Qnbs3CWPtmsvs36aIrly5fRaHa5rSPkby0m1qrdqy1QcG1gff/v9D9rK9Kn2j7usC0tCCKz8oJgvVbKEFMifXw7/e0TmKKX5TnXcF6hzps1jT8qk8aN12eT+9Xq7t1YmZsiQXq4pU0aKqPNvt7J0/fPPv5Jb1a/lsJbMnDmTnDx5Sg4qC+vBQ75R1+o3UqVyZbn3ntbKKvR2SZ8+vV91sRAJkAAJkAAJkAAJkAAJkAAJkEB0CFChGB3ufm8VFmsLFy5W1ojjlWJgoWDaCF7KYekGCx+7ld8vy5Zr90eUK3dDWRk29CvJni2bXq1D+yfk4bbttILD1ONreP+99wh+RqZO/0mULjBJqVq1irL4y6Pdnqf/NENefKGrh7slLJ3gRglp0riRh9VVkhvwYyGsqYy1FVyFP1TWWfXq1nZZc8vWrfKGUiKlVco+JwXKkPpKUXhbrZoe+w3rrjaPPaGUtBeVdeZ3XhWKP82cbTWnf78Ppcqtla1pjPz777/yo7Ic9SbLlAXikSP/6kW3Vr5Fhn092KMYXKndvV//WLfOUgJ7rJDEjMfaPGwpFD/v308rvlA8bz5Xi88Fc2fIBZXMB1KoUEE9dP8XbNvt9QRzvmL9Lwd+ZVXz/rvvKFfcptb0oMFfS99PPrWmvY0MHDzEUia2UOu+/eYbkjFDBqsoLHH7fNhPjv73n/Tr/6m83esNa5n7CNbv8+7bkvqSJeL9994tjz3RQbOFYrNt24dd6oay75mnO6jr9G7Jp1zi7dK923PyVMdntFIU1oZQbELBnJwsXLREKt5cQfp++L4UVq7TRhItnOeYSd3nzJuVeC66KwDbPfqItGzRTJfNli2rtQ5GUHbpwnk6FMH4iZO0ohv9Cs4B/HLmzKHXhXIRil0KCZAACZAACZAACZAACZAACZBA7BFwVpsSe/sXty1C7Lzxyj113PhJlvINOwNlEJSHre5qIY0aNlCWPpk99vF75eprpNtzz1rKRMwrUCC/PN3xKXnp1ddNEUeHcMm8U1nVQfnxz959smr173KLildoF1guGmne7E4z6tgQLsFwA4d0efZpD2Ui5kNR8cN332DUUUlKWYQ4kbcqKywodtasXautP43iyDRi3yVFK5TFlbwkwcmZM6e0efhBU9xlaHe19hXjsmoVVwUlKoBFG+I7BiqZVBuN5FGWpr6kUEHvSkR7+WDbbq8jmPH1KkYoFNyQm28q76JMxLz2T7aT0ePGCyw8vcnBQ4eU8vp7vai0ilHa+62eHtZ1jyrFK8pgHxE3tGePV73GDUyXLq289nJ3S5mISivefJO0UNcI3J4PHT4sM1SMxrsuKeqwHJaQ+HkTWC127PCk5fqMa9EfhSIUel8P/tIjzubVpUvJ1aUvx0VF/bDE9SawmHa3mraXQ7+FDyH47dy5SyaqeKETVKgExPyEyzc+COCH/YeytFGjO1wUqfa6OE4CJEACJEACJEACJEACJEACJBB5AlQoRp55kltEfLH2yqpoydKl2pLNFIZlV6u7mivLnebJJkXYunWbXg2uldWreboTQxH52htvWko3sw2nhnB7Nm6isGq0KxSxf0h8ASlRvJh273Rqu6aedZdcM6EYgTIiWnL06FH555+9WhEEN29I2rRp9PDcufPa/dndequgUr5BEQt30O+Um2sbFTvPPW6ersDLv0IFC1hz4XaOZBx2CzNrodvIww89IPhFU4Jte6ht3qqsWY1AEe4ucM+F2zmsEL0JFJJnz57Ti5BsBy7OlyXxmGMabsxz5s5XLvbndYKgstdde7nYpbFaNWoo6zxPd+g7mzTSCkUU23Lp2vZYWc2AEh1u1//s3WvFDT185IhV1B6b0ZrpZeSxto8kqQz0skpIs5AkCQmlnnm6o44BOl4pXeHqjdinUILi9867faSzssSEcpZCAiRAAiRAAiRAAiRAAiRAAiQQfQJUKEb/GLi0AEqBRSqmm5ESJYrLWz17aNfX5DK1mnVg5QOBZZi7BRzmZ8qUScdjM27HmOeklCt3g6DdyD47Y8Zs6fHqy5ZSDFljkf0W0kwpHp0WxDA08SVLlSzpYS3m9Pbc6zt58qTOrA2Fqomp517GTBsrSjONYWNliQUFCuS9Ph/J4K+GaotUWM/dorIOI2uvr/PgpgrltbUhjivcU+vfcadcr5LiVKpUUSrceKPUULEqc+TIoeuOtX/RajssgY0UKezd2g4KL1+Cc9wI4lD6E4sSLvneFIq+tmO3Avznn8Rr22wTQ2R3hsITmZ7hTu9Lzp1PVHz6Wm7m4xyLhuC8hgUlfr1ef1W74b/V+33dFGT/RsgAKhSjcWS4TRIgARIgARIgARIgARIgARLwJECFoieTqM7BSzUSQxjFABQWvd7qrV0DWzRrasWs89XI//77z0ragfiBvgQuquFSKGKbzZveKZ9+PkBb5y1TMR1rVK+mmwKLRSPNVBmnBckjTJxJX/H6nN6mqQ/KxIfatBOT0Rnz4RaKmJIZLsXUQ/btEydO6lXOJyS6ZZv1MYSlIJJ8fDPsex1zT7u5KotOY9UJ5dJ777zpEVsR68KNdOCAT+X9D/pqt2pw+EMlFsEPkiZNGmndqoVW8Npj/OmFUf4Xrbbblb7u1qIGSZ7cvt25kWzFCJLoZPESgsAsN0MkO/EmWN+b2Le/b39i4hdT7sep06T7S6+6xDbNkT27jkOIvuS8sgg27toJ5xPMakkOfSlWk1zJwYWrf1+j3J8ny/TpM11qxflLIQESIAESIAESIAESIAESIAESiA0CEVMo7lVueFC4GLGPb9++3cWSrKSyLPNlhWXWT6lDJCyYqxIdjFMZX8epGIpQeMAt86N+/aWfSg5Ro1o1aalcn+vXr+c1phgUM0YhmXDBtwIBmWPDKc2aNtYKRWwDMROhUDyjshMj0zEEVlBweXZa7ErU48ePO119kvUhU61RJsLiDglp4O5tP5df7dFTH1dfFcG9uVOH9vLIQw+qc2CC/Kri+yHJzvHjJ/QqUA61e7KDTPtxold+15e9Tr775iud6GKaSorz22+rZf2GjXpduJuPGTtBziu32/dV4g8jP82cpY7LPDPp9/DF57vqmJx+r5BMwWDankyVyS7OmjWLVSbhUuIYa8alEbje+hK7ErLXG6/pJEm+yiY3/9Qp79uxbz+r7SMBFM893nhLKxNx3nTr+qzce3crFytUuD/XrtcwuU27LM9iY+KyIIwTaOfkH6fqOIp2q09sEnEU71MJWmC9SyEBEiABEiABEiABEiABEiABEogNAhFTKEJpeODAAa97vWnTJpf5xYsX19ZULjOvoAnEvevyzNMqZlhH+fnnRTrD888LF2nLu0VLluokC1CcNW58h7Rq0UIqVrzJogOLuLx58+oEEAcPHbbmu48cPHjIfZaj04gnV6H8jdodE8qqt3q9LsgeaxRj4UjGgh2A5SUyWsNF0lhmObVjcKdOSmbMnK0Xw0JsyOABLslwzHo7d122aDPzvA2hqHrs0Tb6B4XSLKWI/XzAIO1Gjjh8I0ePkVdefMHbqnpeJeUejR9k0+YtMnLUGBk+YpSeRgKM1155SYwy7E8Vc9KeKEcX8uNf+8cfc1ShaDYZSNvNOsEO7QljDqkEK94EVqW+pGSJEtaiUK8p39u/3C57excuWmzFSuykEi09qY6HuyDhSawKzuuZs+do12YkKjJW2Wgv4p/e1byZINMzksFQSIAESIAESIAESIAESIAESIAEYotAxBSKdiut5BAEUja5uuJ5OayO6tWtrX+wVBw/cZKMVZaLiBF4TFnfwdoMP1j6dXzqSW25iP2F0gEZZXf8b4dW4ubLl88FwwZlsQaFW7gFyVkQ3w3bgvJj6rTpepPYLyQMCZcUVzzg5rtl61ZB0ozrvCTA8HfbuXNddkP9Y906rxmjTV3GhbxosSJelYlwRzcJY8w6/gwzZsyoXcihaH7g4Uf1Ku5WXEnVU+bq0vJGj1d0XEUobpAf5n87dki5G67XqyERTLkbyiZVhddlmbN4Zhj3WjCEmcm1PYSq9arYdyO//rZKZShvZCatIWL3+RLECjWyfMVKefjB+81kwMOVv/7mdR20y4jdjX+vSt5j5MZyicfSTJvh0l+WmdGYGcIV/3WVFAqWscb93zSu6q2VtRLxjga3u1itm+UckgAJkAAJkAAJkAAJkAAJkAAJxAaBiCkUq1SpEht7HKetyJ//Ku0K26H9EyoD9DIZM268zJ23QGd23a4Uh7PnzrMUinXr3Ca/r1mrLRrHjJsgTyvrJbsMH5loqWafF47xJo0bybvvf6jbMXrseFm2bIXeTLVqVVRcwbzh2KSus0XzplqhCMXZB30/lsFffq5jGbpvEMlP4GYLhZ0vsSfKSEqxhPWhuD1x4n/y119/C5Q9BQrkd6n2i4GDPRQoLgXUBFw/CxYo4D5bT9vry5A+g0eZf//9VzKqhDu+4iPaMymbmI6o5KEH7tM/jwojOCPYtofaxFuUdS8sSo8qZS+sNLs996xluYm696gkKPMXLPS5mbLq/Lnmmqtl48bNMktZ20GBDstcb3JaufwjAzvOOW+C63jJ0l+seKMoA+XbWHWtQ1RIRKl9Wy09jn/2DwVz5y+QOrVvs5ZhBB8VvlWZwmNNzitLX4RzMIIYka1aNpd77m7t1Y3flOOQBEiABEiABEiABEiABEiABEggdgikjp2msCX+EEDW5lo1q8tnn/SVhfNnSffnn5PixYq6rAoFUebMmfS8z774Uru6Hjt2XGdXRqKU0WMSFRQuK7lNwKoQyi37Dwo6CKyK7PMx7i1jMdyPq19KxrJAuW5DoQJBwpZwCvb/mjJX600sXvKLtupbtep37R6KNiDO4Ru93lbz28rhI4kZp321p2iRInLtNWX04pW/rpL7H2or06bPEFh+4QerQyM3qIzKELhuIpEOLNagEEImYWwPiVaSkybNWqpttNFuoHDZvqDWh7INSVmefe6yi3OtWjU8qpo46Uepedvt8rbKjAuFMtzLsT7297MvBsqkH6fodQoqRWesuZGG2vZgz1fEHH1QnS8QKBUffby9bNy0WZ/PUA62efQJr+e2XkH9g7XtG6+9oidxfTyiyg/95lt9zC+qGTg/kGTkvQ8+klq160tfFQs1KenStbss+HmhjjcKS+Ruz7+orFr/1qvUq1PH5bjZFZNQhv4wcrTAPRuuxLAIbn3fg8kqsJNqSziXIc5rzRrVdD+2aMFs1Y91pTIxnMBZNwmQAAmQAAmQAAmQAAmQAAk4TCCVeum9pCZyuOYoVXfkkoIol81VNUpNidhmcQiRDThvnjzWNqFceOudd12yv5qF6dKllQsqAQWUXbBaWzB3pllkDV98pYdMmpyogLJmJjEy9KsvlYKgukeJyVOmqiy0r1nzYT33y+L5kiXL5WQY1kIHR+Ba3PnZrsrCbG+StS6YO0O7iCdVCFZj7Tt2FsQudJfBX35mWYbBwqx5y3usuHYoi8y0SIYCgSUcrNmgmIQsWTjXw1Lz5srVXJRAOFZQ1tqv0vI3lpPh3w31sET8Zth3SnHVV9dt/qVPn07Onr0c+xFWbv0//iik5CGmbieHobY9lPMVCltk50asSW8CC1aTGOW93m9K65Z3eRRDfMsvBgzU15THQtuMWuoa+VpdK0Zwnra65wE9ad+OWW6GsOL7ViXbMYpyM79Hzzd12AMzjeOLkBEmHmGD+vWshDv333u3jmVqytqH7/X5UL75drie5e28tJd1YhyKz3BaKTvRRtZBAiRAAiRAAiRAAiRAAiRAAiTgmwAtFH2ziZslUCDYlYloOKz0Pv24r1Zi2XckR47s0r/fh1KpUmLCjtRK4eVNYHkViEBx5k0a3K6yUdtcihETMtzKRLQD8QGn/ThB7ru3tYfiDcvB4Yl2j0pupahJTpChevSI75VlaA2lBLmstMV6dn6IZfnNkIGCuH9GoEyEkqd0qZIybOhgKX/jZXfYNKk9mbW6q4UULVLYrK6VmEaZmEm5Mz/+WFuB8tabW/ONStFYXbmTZ8iQ3lrfrkxEZu0hg76MOWUiGhtq20M5X3PmzCmjfvhOKYZr6WNl4MGKrvZtNeXz/peVtN6OGcp37vSUjB75vXZnxvF2F1gMN27YQNq2fdhlkf26eaFbF3nowfsESmS7wBJx7KjhHspElOmhkuu0U8l7TD04V6BMRPZqxHPs8+471j6ZMva6zXhq27noax9NWSeGVCY6QZF1kAAJkAAJkAAJkAAJkAAJkED0CNBCMXrsI7JlWC9u3bZNxXjbJKVKllQWcmW0BVNENh4jG4HbL7Irb96yVVtmQmFXSin40qe/rHhzsqmw/Ny2bbv+QZlaoXw5ya6sEwMRuJHD5RWZ0dOlSyeFCxfWru1w0U1OziBWn9r+/v37lcvtMbnqqnxSRK1fuHCh5FaN+vJotx2hAdb+8Ye26kR8xUCPGwCeOnVKNitrxx0qw3K27Nl0TEyEJfD3fIM1JFzWT548JeXVueP+scDbQYKVJSwsDxw4KGWUuz8U2AiPQCEBEiABEiABEiABEiABEiABEiCBcBCgQjEcVFknCZAACZAACZAACZAACZAACZAACZAACZAACaRQAilOoZhCjxN3iwRIgARIgARIgARIgARIgARIgARIgARIgARiggB94mLiMLARJEACJEACJEACJEACJEACJEACJEACJEACJBAfBKhQjI/jxFaSAAmQAAmQAAmQAAmQAAmQAAmQAAmQAAmQQEwQoEIxJg4DG0ECJEACJEACJEACJEACJEACJEACJEACJEAC8UGACsX4OE5sJQmQAAmQAAmQAAmQAAmQAAmQAAmQAAmQAAnEBAEqFGPiMLARJEACJEACJEACJEACJEACJEACJEACJEACJBAfBFKcQvHIkSOCH4UESIAESIAESIAESIAESIAESIAESIAESIAESMB5AilOoeg8ItZIAiRAAiRAAiRAAiRAAiRAAiRAAiRAAiRAAiRgCFChaEhwSAIkQAIkQAIkQAIkQAIkQAIkQAIkQAIkQAIkkCwBKhSTRcQCJEACJEACJEACJEACJEACJEACJEACJEACJEAChkBaMxLu4cWLF+Xw4cNy/PhxOXnypFy4cEGyZMmif3nz5pVUqVKFuwmsnwRIgARIgARIgARIgARIgARIgARIgARIgARIIEQCYVcoQnG4fv162b17t5w+fdprc7NlyyY33HCD5MuXz+tyziQBEiABEiABEiABEiABEiABEiABEiABEiABEogNAmF3eU5ISJAtW7a4KBNhjZg27WVd5rFjx2T58uVy6NCh2KDCVpAACZAACZAACZAACZAACZAACZAACZAACZAACXglcFmr53WxczPTp08vpUqVkvz580vWrFklderUcuLECfnjjz/kwIEDApfoVatWSb169SRNmjTObZg1kQAJkAAJkAAJkAAJkAAJkAAJkAAJkAAJkAAJOEYglVLkXXSsNi8VweV5586dUqRIEa+KQlgwzp8/X06dOqXXrlmzpuTKlctLTf7NOnLkiC4YSh3+bYmlSIAESIAESIAESIAESIAESIAESIAESIAESODKIxB2l2dYIhYvXtyrMhG4YY0Iq0UjR48eNaMckgAJkAAJkAAJkAAJkAAJkAAJkAAJkAAJkAAJxBiBsCsU/dlfu5GkPbaiP+uyDAmQAAmQAAmQAAmQAAmQAAmQAAmQAAmQAAmQQOQIxIRC0bgpY7dz584dub3nlkiABEiABEiABEiABEiABEiABEiABEiABEiABAIiEHWF4sGDB+W///7TjUaylsyZMwe0AyxMAiRAAiRAAiRAAiRAAiRAAiRAAiRAAiRAAiQQOQJRVSieP39e1q5dq/c2VapUUqFChcjtObdEAiRAAiRAAiRAAiRAAiRAAiRAAiRAAiRAAiQQMIGoKRQRN3H16tVy4sQJ3ejSpUvT3Tngw8cVSIAESIAESIAESIAESIAESIAESIAESIAESCCyBKKmUFy3bp3s3btX722ePHnk2muvjeyec2skQAIkQAIkQAIkQAIkQAIkQAIkQAIkQAIkQAIBE4iKQnHjxo2yfft23dhs2bJJ5cqVJXXqqDQlYGBcgQRIgARIgARIgARIgARIgARIgARIgARIgASuZAIR1+Jt27ZNNmzYoJkjAUvVqlUlXbp0V/Ix4L6TAAmQAAmQAAmQAAmQAAmQAAmQAAmQAAmQQNwQiKhCcdeuXQJXZ0iGDBm0MjFjxoxxA4sNJQESIAESIAESIAESIAESIAESIAESIAESIIErnUDEFIqIl/j7779r3rBIhGVilixZrnT+3H8SIAESIAESIAESIAESIAESIAESIAESIAESiCsCEVEoHjhwQH777TdBZue0adNqZWL27NnjChQbSwIkQAIkQAIkQAIkQAIkQAIkQAIkQAIkQAIkIJI23BBOnjwpK1eulAsXLuhNIaPzoUOH9M/btnPkyCF58+b1tojzSIAESIAESIAESIAESIAESIAESIAESIAESIAEokwg7ArFM2fOSEJCgrWb+/btE/x8SfHixalQ9AUnCvMX/LxQduzcZW05lRp78IH7JE2aNNY8XyNHjvwrU6ZNd1lc7obrpeLNN7nM8zURyrZ91cn5JEACJEACJEACJEACJEACJEACJEACJEACoREIu0IxVSqooPyXQMv7XzNLBkNg+IhRsnDREpdVW97VQrJmTT7+5U6VhOedd/u4rPtY24f9ViiGsm2XjXKCBEiABEiABEiABEiABEiABEiABEiABEjAMQJhVyjmzJlTmjVr5liDWREJkAAJkAAJkAAJkAAJkAAJkAAJkAAJkAAJkED0CEQkKUv0do9bJgESIAESIAESIAESIAESIAESIAESIAESIAEScJIAFYpO0mRdJEACJEACJEACJEACJEACJEACJEACJEACJJDCCVChmMIPcKi75558BSEx/Q2LmTq15+mVKpXnPF9tDGXbvurkfBIgARIgARIgARIgARIgARIgARIgARIggdAIpLqoJLQqYmvtI0eO6AblypUrthrG1pAACZAACZAACZAACZAACZAACZAACZAACZBACiDgv7lYCthZ7gIJkAAJkAAJkAAJkAAJkAAJkAAJkAAJkAAJkEBoBFKchWJoOLg2CZAACZAACZAACZAACZAACZAACZAACZAACZBAUgRooZgUHS4jARIgARIgARIgARIgARIgARIgARIgARIgARJwIUCFogsOTpAACZAACZAACZAACZAACZAACZAACZAACZAACSRFgArFpOhwGQmQAAmQAAmQAAmQAAmQAAmQAAmQAAmQAAmQgAsBKhRdcHCCBEiABEiABEiABEiABEiABEiABEiABEiABEggKQJUKCZFh8tIgARIgARIgARIgARIgARIgARIgARIgARIgARcCKQ9t3+/y4x4n9jzy1K9C4WqVY/3XWH7SYAESIAESIAESIAESIAESIAESIAESIAESCDmCNBCMeYOCRtEAiRAAiRAAiRAAiRAAiRAAiRAAiRAAiRAArFLgArF2D02bBkJkAAJkAAJkAAJkAAJkAAJkAAJkAAJkAAJxBwBKhRj7pCwQSRAAiRAAiRAAiRAAiRAAiRAAiRAAiRAAiQQuwTSRqppZ8+elSP//isnTp6UM2fOyIWLFyVzpkySJUsWyZcnj6RKlSpSTeF2SIAESIAESIAESIAESIAESIAESIAESIAESIAEgiQQEYXisl9/lUOHD/tsIhSLZa+5Rgrkz++zDBeQAAmQAAmQAAmQAAmQAAmQAAmQAAmQAAmQAAlEn0BEFIqnlUWiXdKkSSMXL1zQVoqYf/LUKfltzRqpfPPNclW+fPaiHCcBEiABEiABxwn8d+y4HDt+3KPejBkzSJ5cuTzmp5QZZ8+dE/zSpE4tmTJmjPhuhZP7ReX5cEI9T0Ayq31LrfaRQgJXKgFzrcP/J0vmzFcqBo/9hpfUuYQEPT99unSCX6yIOWbR6p9jhQPbQQIkELsEwvkcF7t7zZYlRSAiCsVsWbNqt+b8V10lObNnl7Rp00qCupkfVFaLu/fskX/27dNtXP3HH9KgTh2+BCR1xOJ02aDvR8jnQ4fp1s8Y8Z0ULlggTveEzU5pBDq+/Jqs+mOd3q2e3bpIk9vrWbtYvVkrSbiQ+OIx4etBUrgAz1sDB8zADlJIWZdPHDrYLJKho8bIoO9/0NON69WRXs93tZbFykjfQV/JuKnTPZpT4fqyMmLApx7zU8qMl955T2b9vEgyZsggv82cGvHdCif3lb+vkce6dtf71PvlF+SuRg0jvn/h2KDT19ruf/bKnxs3yp8bNskF9XG3eJHCcsO110jZMleHo/lXfJ141t36vx0+OVx/TRnJqsL/OC2vvf+hTJ87X1e7fPpkyXoFKxW37dgpHw0cLGv/Wi+HVfglI03r15M+PV4xk1EfRrt/DhaA+zmOMFYFrsqnn5n4YSdYqlyPBCJHIJD39FCe4/jOFbljGsktRUSheEuFCh77BCvF/MoaEb+lK1bo+Irnz5+X/44dk5w5cniU54z4JnBBKWUQNxOSoF5gUrrg4errkWP0bja4raZUvLFcRHd58oxZsn7LVsmklAbPPvFYRLcdbxs7fuKk4Ac5c/acS/OPqv7IyPnziYpFM+1tGM/cA207LCkMt2PHT7jgOH36jLXs5KnTLstiZQIWIFeiXOqG5aL6i4aEkzssFI3YRs2suB06da3t2vOPPNOjp2zcus0ri2q3VJQXOraX664u7XV5qDOjfV8Mtf3Brj974WJ555PPfK4+sE9vqVXlVp/Lg15gvwjs40FXGJ8r7jt4UO5p30lOnfa8F13uMZzft2DOd3OYotU/B0thzqIl8vbHnh/i0ikDkmKFC0l59aHuuSfbSd7cuYPdRFysF8wxj4sdYyNTPIFA3tNDeY5z8p0rxR+UONrBiCgUk+ORW7mXIWEL5LhyQaNCMTliXB7rBA4cOizfjR2vm1kgX96IKxRnL1os85f8otycMlGhGMGTJZ65x3PbgznEbyhrVPyMNH6orezYvcdMchgmAuQeJrDJVLtk5W/S/a3eYv9IAo8RyL///aeHv/y2SmYtWBg2hWK074t6J/nviiMwdORoS5lYv1YN7YUAq1xIrhyJ10A4oPB8FzmnDEW2KOtc/OYtXiovP9NJmt9RPxy4Y6JOHvOYOAxsRJgJ8DkuzIDjsPqYUCjaYyymT58+DjGyyckRaNm4kdxS/kZdrKByfaeQAAmQAAmQAAmEn8D+g4ek86uv69iZ2FrDOrdJlyfaaVdnTO/eu1fGT/1JvhoxCpMUhwk0ub2ulC97nUutX/0wUmC5SAk/gQ1bEi1y06RJLe++8iLjSYYZeZu7W0nLxg1l5z//yP927VYhNhbKH39v0B8zXnm3j956SlYqhhkvqyeBsBDge3pYsF4xlUZVoQj3pL3798seddOBpFVu0Dlz5rxi4F9JO4pYKvhRSIAESIAESIAEIkfgGxXTFG7TkOYNG0jvl15wiVWN2LAIjVG3RjWBeyjFWQI5smWTHNdmc6k0pbt+uuxslCdMnPbrrr6aysQIHIu8uXPJNaVL6R829+i9d6sQQKPlk6+G6q1/8c230qReHR1PX8/gPxIggagT4Ht61A9BXDcgogpFxEjctkMFplaKRMRKRKwJzDNyQ9myMZVtzbSLQ+8EoBBevvp3ZdkwXcVGedwl0cqJkydl5KQfva54/13NfQYHP3L0qOUqXLtqFSldorjMVC5YK1Sw/fWbNuttVFKWjo/ed48gDqe77DtwQEZNnqJn169VUycemDZnnqxcs1bFxzurrASulduqVlU/7/GK5iiLgU3btunz8PEH73evXp23x+WHCRP1/Koq3tTN5W6wynzxzXdyPiHxfIZFiJEFvyyzXMrMvGKFC+svuGY61OGvav+WrPzVqmbT1sQv8qdULLv+QxIf4qyFauTeZk2lYP5ES9GdKjHShOkz9GJYkda8tbK9qMs43KjX/v23nmevA/H3tu/apQPLP6aOzeSZs2X5qtXy18ZNUky5FiHRxd1Nmyj3oqTjo+KcmjH/Z1nz11+yfvNWHQqhTMmSUvaaq+W+Fs18njcujYzgRCjc3ZuJ+GYzFvyszvMtsnn7dp3A6roypaVu9WpSpeLN7sVljnJr/3PDRj0f5zqSKniTMT9OlX/UhxtIqyaNpGihQnrcybbrCiP8z6lzLthmb9+5S35W1/bav9fLXtXvHD36nxRSipkypUroY9G4bh1BYPrkBNcf3Ew3b/+fPu4JCRfUMSqowyTgi3H2bFl9VhHoOeOtotXr/pSFy5bLyt/XylnVR16r4ufdr641X+eTqWPxipWqz/lNNmzZoq7To8rarYhylS0lzRrUd7kXmPJODn//8y9t9YIEC1CUod9CrFp/JRRueGYZMOx7HYPyphuul9rVqgqupTFTpunnm3Pnzuv9x/FHQiJv9yl/2+lEucNH/pXRUxKT78BC64UOT7ooE+3buFFZ0SX6EdjnXh4Ppn+O5n3RtNypa9XUF+khXNLHT/tJXWtbZYvqJ5CdHdcaYjPbk4gF2i7cn2cvXKRXy6C8gzq0edijimCOuUclIcwIpp/5ad4CFSd0q7XVQ+oagBxQz2Xuz0PXlykjDWrXssqGOuL0+R5s/xxKHxcqA/f1kZTlyYceUPfL5YL92aWSQo1T5zPuM3ZB9u1l6rlx0fKVgvsinqPTpk0jV5cooe6rJQXPOYjH6C5OPMO61xnItJPHPJjzPZC22ss6yS3YPiqUdy6zL9G+JwfaR8IjwCQErFejuoxQ78p/qWf5ctddq99tCyrjmwHffi8rVq8RfIxq0egOr2ECQr2vBfuebrhHeojj3LXn25oFPn4iwS8ldghE9GjgwX/j5s0ee49sk7fcdBNjJ3qQic0ZUARP/Gmm7hDxYAB5wk35hix6Hw/+2usO3FH7Np+KoYOHj8jg4SP1engR+2DAIKVcSlRgYSbisCxctkIWrfhVhvb7wOPFCO0x60M5CWUklIBGoIAZOWmKdHjkIencrq3HC/9UpXzEA3aGDOnFm0Lx0JEj8rlSHBqxKxQHqqy2yJjpLrgp4GeXyhXKO6tQXPuHtd/27aA9hod9fvVKt1gKRWRhHzZ6nH4xL118iU+FIm6a738+QD8M4oXGfswnz4IC8XfJnTOH4CZnFJTYJo4ZFJF4IULw+RJFi9qbYo0j9syr7/WRpb+usuZhBIqWn+YvkLHqhb1fr9cFGTFjRX4Ngbt9HybNmCm9+38u7glMoAgfPn6i+sJ/jw5obr+BFi1YUF58+12dSGbKrLmCLNTuyie4Gr3Zr7/eFFzunn60jbVZp9puVRjhESfOuWCbjIfBnh997LH6NnXuG8X+VHVM3n/tZY9jYlbC9TRi4mTpN2iI2MN+YDkUBwhy3//rb2TWyO+9BrIP5pwx2zZD9I8vvPmOlTAL8/9USoZpc+bKx2/2VMqyKqaoNcR9vM/nX1ofbswCJPpA3/nN6LHKAq671A9AwWfq8GeIfuDtTz4VKF6NoF8fMXGSPHhXCzPL5zBUbqeV0nXQ8BG6/nub3SknTp1SsQnfddnepm3bZcHSZZIpU0a5vWYNl2WRnpi3ZKmcOXNWb7aOUn7mUTGrg5Fg++do3hexn05cq8Hwcmqd35UC5nkV+3Lv/gMuVUIxg2eZ6Up59u7LL/rsZ1xWsk2g3qdefFWOq4+/SJyBe6u7BHvM3esJZjqUfgb9mlGU2re9/9Ahj+ehO+vXc1Sh6OT5Hkz/jP0NtY+zM3Ny/KFWd2mFIuqc/fMiD4ViowfbCo6Ru/y1MfG9ceB3w+UdZV2Ndwi7OPEMa68v0HEnjnko53ug7TXlneIWSh8VyjuX2Y9o3pOD6SMRq9u8l5kh9gXvOvg4eVXevLLqj3Vm95ThzmqtWLQ/jzlxXwv2Pd1qWIRHkNAVzzP45cmVU+5q1FAbqnj7yBDhpnFzikBEFYqw1kiXLp0Gf069lBjBy9Q6ZfVUSSkVMypFBSX2CEAxhRdldGLzl/7i8jKHL4jusS+zZskieFAzAutCKJYCkS+/Ha6Ll7vuGqlYrpwcVMo8WK+hLSuVxSIetmAB4kvGTpmuF8E6rvJNFQTWi4hZhPMNDwB58+SWB5S1pFOCr63G4haKx7kqADXkRmUVWVa52tilZPFi9smQx29UX7bwcmvkZ2VxtO/AQUmtrjlYBrqL3f0cgfkRqBwvJjhGfyiLK1iquMtvSnlmFMiN6tb26jp0WFkqQZmYNUtmZTFUSysYYcW0fvMW9cX5H2nXtbvMHDlc9QOuXQ++lN33VCflbpf4MAkLLdw8s2bOIqv//FMrK7H+48+/KNOHD7MsHfFQivMxUOnyZDvJr27aoUoo3M22kbynzxcD9SSO1+3qWMAqE+cQFIJHlOUblDRQcj/T7lGzmrYke7lzJ60whAXi6x98JP3f7mUt37Nvn7zxYT89DUVj3149XL7oOdF2a2NRHAn2nAulyXj4h6Dvq1S+vJQsVkTy58unjtVRmasUgbhOcA2269Zdxn31pddNfTx4iJUJHgWQYbdsmavVRw5RVtLb5RelWIciCBZv7hLsOWOvB3W/9M57kjlTJqlTvarkUh8DcK1uVX0Asp33HThYW3K7W1l+9OVgS5mIpE9QmOXLk0dby8K6BBn8urzxpowY8Km2TLZvM9RxWG/06vuJrsZcK6WKFZN1SqGI+9N34yYkuQknuNk3sOV//5OpSvkKQZ96balS2nIRVsbmxTghIUFfh1AgByKwVniwZfIK0uTqhDWEkRpJWJ+bMt6GwfbPqCua90Vs34lrFfVEQ2ChhT4E1yMEVsOVbyqvr7H56qUKlnf4WPeCUjgO/vA9v5u4QnmWdHrldZ2oBPeVz955S2pUvsVl/VCOuUtFQU6E0s/UrFLJJdkKPj6hv8utQirhWccusDJ2Upw634Ptn53u45xkU+Xmm6zq8HziLufOJ57nRQoW0DFH4ckDwwJ4DeED24mTp7SF0mfvvCn1ala3VnfyGdaqNIARJ455KOd7AE11KeoEt3D1US4NDWDCn3tyANUlWdSJPhLPMQ3r1Ba8X+GZAc+O+EFJBg899O94dJg+d57LB14n7mtOvKcnCcjhhXgWzaw+0sLwAvc+hFEYOmq0fr+/R73n1lfvnOkv6Zgc3jSr84OA61u9HyuEUgRWTXfUraurgFLomMrovEm5S0HRc1S5dCxZsULq1KgRdRehUPYxpa2LYzN+2gytJDJuk2Yfr1OucXcpU+ymDW63FDxmGVxbP+jxipmUL7/93sWyz1qQzEjbe1tL945PWZaEcGuDyTMEX2GTUiiiTOsmjeTN7t2s9Vs3XStPdX9ZP6APU0qa+5o39bByxHrByGtdOlur/a0UqEahCNe3tvfebS0Lx0iNypXUC0Elq+rOr72hFYqwkOn5/HPWfF8jrVVnDIUiBNan3hSKcGM20vrOxmbUYwjl1Tcff2RlCn328cfkuZ5v6RsjFIZTZs/Rrrf2FfGVzigTEay7l2pzBmW5bAQKNTxwwdoULku9nu+qF/2xfoN2rzbl/B22vae1pVDs/1ZPKwMkYv/YZc7oy1anxkXcvjxU7nBHhLsMBErYgX3edXGj79j2EWnzbFedfRhx0FopF9jC6mHbyL3q/IX1Kyw48cCNMANQkkOJ0V1ZLx47fkIXxVf9Qvnzm9X0MNS2I/QArOcg5kORnlD/cN22aNhAT2bNmsXMDtswmHMulMYg5lwndWzAP5/6MGGXbu2f0C/rUHChH4Drv7vL+vadO+XbS1ngcdz7KEvGOsq13S5Q7L3Z7xOP+2Go54x9GzlVhlNcqyWLJVoNw+XskWe7aeWg+bhQXn2QMYKXh3FTp+lJuOIM6dvHxWJ4iErqYSzTcV4HouQw20hqOOj7RMtAlOmtkivYA/sjyYWJ0eWtDie5mfp/W7tOP8Ci77cr//BhabQKNVBAKZnPq2txkgoJEagcP3HCqjOUa23P3ssv7vlyu56r/rYp2P4Z9Ufzvojth3qtoo5oCa4no0zEs0yvF7pazysdlXsylI1IeoG+BmEA/FGOQSn/7Ou9tIINHwQGvPeOVFIeE+4SyjF3ryvQ6VD7mbvvbCL4GYELLZ5f8eHHn+chs14wQyfP90D753D0ccEw8LUO9gfuz3j/+2fffqUouWg9m2MdWLXXU++AtapUdpmPZfDWaPfcC9qaftiYsS4KRSx38hkW9QUioR7zUM/3QNrqXjZUbuHoo9zbGMi0P/fkQOpLqqwTfSSMG+DtBQV7g/sSQ07A+m7Kt19rAwA8x0+fO9/FYhFtcuK+5tR7elKMvC0L9p0LysKfJ4zRhhZ4T4USFspW4wWYM/sXOkY0lIulHDba8bYfnOdKILXrZOSmcFPJoSyjKt18sxS49KJ7+vRp2Y4YizEgg4YNk959+wb0+2zw4BhoeehNgDJinrKu6/RyD6mvOrgvhn1nxWDLpR4IHrm7pYwfMlD/Hrm7lYcyMfQWJNaAThWZKO0WMnB1wNdLyG71FScpwZf3F5/u4LI+XI0bKgUfRFsRqZguFBF8OTZcp8+br15iEl3kDJvTKhbjTBXfDwLlg93V25QxQ3ythbLZCNx0X366ozoOiXPg5mkXWOLhqzoENwEogO3KRMxH1sCrlBUUZNJPsyxLUFgFXaNi6wT6y6SssozkVucZlHT4uW8XSkSzDH2W0zL4hxHa5Qz1vtblGQ+uUFa1UcpPCF4s7UpdPVP9e7N7Vytb64cDBspG5S6LGG+/r/tLFwG7cLhd4rgaNlflTTw2pk1ZMme2lkHxFG4J9JwLtT2wnn36sTYeykTUCy5PPfKgtYnV6kXfXT4b+q06hxP0bFiduisTsQDXwrf9+yn3F1e2Tpwzpj3tHrjPUiZiHs7/h2xWcbts1m1YDndjo+CA+5p7+AE8GJcsWgRFtZIDilOnZMPmLdZD9U03lHVRJmIb2Lbpw7xt00lu9vo7PfqIpfgz83EOgA8sylKnSq37w0D7qCLKSttIKNfaHvXibiSP2wcTvNDDAtb9Z8pjGEr/bK8nWuOhXqvRajeU+0Z5D6uMl5/pZCkT0Sbc+zqrPsjID+MnmlGfw7mLl6hs329oZSI+wgz5qI9XZWK0j3k0+xmf8KKwIND+OVx9nFO7jmcovENAzqmPLnAXtQs+FCO+uf2Z3yzHs3vlmyvoScTOhVLSLk4+w9rrjcR4NM/3ULiFo49ygndy92QntuFUHwlPBAg++Ge79PEdz1W450OuLV1KD48eO6aH5l+83tfQ/lDeueBRA1dnPBvP+OE76dj2YcUuMR8A4njiXbJZ28fl4c7P6fclnKOUyBCIqIWir10qo9yE9l4yf8dFWlq5+0VbPhk4ULYoM/tApMBVV8kz7dsHskrMlYULae9PP3e50SOQ+20qQQqsERGDyXR04W483LMQKNxdkOQDykDjUua+3EzfVkW5zCrXa3eBxeCPl6zttiqXNQR3vdIFD3CwOuw/5Btt1TZ30WKXYO+zFy3S7ibglJR1IpZ7CxKPl2O8XK9bv1G2un00QPIVY74PM3/EYzFidxOE6zisPvEgilgjUFrCKshuGWTWi5ch3MuNQIEOVzQjZt/trtmweHMXKO/69uwhD3Z6Vit74Bb+79H/dDGEC+j21JPuq6S46UDPOScBwBoNmXER4+y0cquDHFExZI0gWYu7mGQ6cDmClWMg4sQ5Y7Z3uwoI7i7FLykEMR9JDOxiVxA2b1jfvsgab3ZHA/lUxX6EbNuxy2fMVGsFP0e27risnGxcr67HWujDmtxe14pN5F7ASW6mbliXPty6pZn0OkR4B3yAi5bADd9IVtVX2GWWut936/W2fZYen/rdUEvRHEr/7FFxlGcEc61Gq8mwqDPKe3wQwouUu8DFK1PGj7WFPeK3JiWwcnmn/2c6XA0+8gz9+EOXD3/2daN9zKPZz9g5RHs80P45HH2c0wzwTG6S5EBJ4v7BzGwPy/aqjyGH1L0UVkgQk+AKz4AnVexa+/O9k8+wiVuL3P9onu+hcHO6j3KCuD/3ZCe241Qfmc32jopneXgV2eeZfh/nO5To3gwb4um+5gR7UwfeKzs/1lbHhse7EzxB8EyDsGaIMYzfe599IZ1U7HgYVlDCSyAmFIpwhTZySl00sSAIVouLOxDJFgFLnEDaE0xZuJDavxp2aPOQsli5S39RCKa+UNYpqNzFvEmOrIkWT6dUHIWkBHH4vIndisXdjdtb+StlHjLKfv7Nt/qFA+bkdiUNrAIhiBnXQikMkhIkC/EmRdR8KBQRGwhx75DABfI/lR3aCBIZ4JecbFPKBbsVZHLlY3X59p27raa17/6KNe5rZJsPiy/E3nupc0d5++NPNVusj6+d/Xq+7hGv0lfd8Tw/0HPOiX1d+9ff8tUPo9T5+otLUhP3uvHyYxdYg+2+5IYKa99AY744dc7AYjh/Ps84onaL0lPKa8Aupt2I+wOXG29StPDl698ev89b2UDm2WNu2ftwex3oY3yJU9zs9V+tYhzZn1/sy2JlHC/s6C8heEm3i7uVj1lmn58S+udgr1XDIxpDc61h20ULFfLaBPQdBdQ1DGVicteaSc6FivDSbbeAda882sfc7Hs0+hl3FtGaDqZ/Dkcf5/T+m4+dqNc9XAiUJggV8b2yMjIhcHxt3/2+inJOPcP62ma45kf7fA+Wm2k3uDjRRznBN1L3ZKf6SHjSGcl0KcyTPZeEMaqBUh3PY3a9RDze18y+OjmEUhxhhfDr8dwz2jIRSS4hUND++vsaKhSdBO6jisYodAAAKwFJREFUrphQKCJWkJG0KgBvLMiKOXNioRkRbwOsEe2CuG07VIwepK1HZmBvX0fs5Z0cz6IeepOSiyr8fVICs2pvAqsgI3sPHDSjV/wQD3e1q1bVGbSW/bZaW1zBrQqxbozlHCxUfXEFQGRsz5jxcuxDO1T712TE5jQKxZ0q45kRzDNf5Mw8b0Nzk/W2LF7mod+DiT4E15Ux20+q/b6+5mMdJOUZoMITmK//zRrU127HSdWXEpYFc86Fut9TZ8+Vl99937KcQH1wIUTfgocbhI2AFTUE43aBYswobLzF5bSXdR938pxBIq3krM2Nlaxpx1513UJyqhi5vu4FeXJe7neRGMop2a+sQI3Y+xIzD0NY+XoTJ7nZ6y/kQ6lqLxPtcXvsVMRYswti7iG+KgQxiX9d84d9sR6P9/45lGvVA0YEZ9izOru7qtubgfsxFIqIL4zQJL7uv/Z1oAh4UyU3+vD1V+2zrfFoH/No9jMWhCiPBNo/h6uPcxIDPqaZjxpw47c/i0OZ2LZLNzEZnbFdfMDOq+K+mue9g4cPW54y7vdVlHfiGRb1RFqifb4Hyy2cfVSwxyBS92Sn+ki7zsM8U9nfw+3L7c9j8XpfC/a4+rMe4gjjOeaneQtciqdOHRt6JZdGpcCJsCsUkQUJHX92H9Z7uED+3rjRQpvnUpw0awZHIkoA5sM3XnedjFWB9xerQNZwuUGyDvwQw67ZHbfr+AXxEPAUMTm9iXGvxbJArUsSLrgqB7zVH8/z7m7aWCsUL6jrctLMWdLhkYfkx1lzLAusVk0aJ7l7YOvLLN8oUVCBnbtdOfB612cFcTL9FWT6nqPcswOVFzo8qbPyBrqek+XBAA8OCQkXpJSyVJs8bEhI1X+u4vIZZSIqQkb2lo0besS5C2kjMbhyMOdcKLuBe1rPjz7WykQ8AD6ngmojk7rdsg8P2rff+6DXzdjdWU6ojMiBiNPnTCDbRlnzdfz0Ge99K8rA3cQIXhqdEmR8N2LvS8w8DE8phYo3CRc3dxdib9vG88+r731g9aHeynibV77sdSpecehuOnaFIlzz7QKFNvoIyJ8bNnhVKIbSP9u3FY3xUK/VcLbZ/nLobTvmWsMyX88yicsSz3ncS9KnT+etKj0PMTw/faeXPPXiqzqRC1yg8ZHYHH/7itE+5mbfo9HP2DnE03i4+jgnGUAhaMTeL2EeMrYaZWIFlQjsefWMVvHGci7xFF//oK9OEGnq8DYM9RnWW53hnhcL53sw3Ey7wceJPsob50Dfufy5J3vbTqDzotlHxvJ9LVCOoZbHs/aPs2bLZOXuvF0ZP9kFsf6RoAVZtCnhJxB2heJBlQZ93d9/6wQshZU7Ei5CJETAQ/Yx5X6zZft2wZc1CCw7UIYSPQKIUVKvZnX9w4U6YfoMGT/9J22thpiFX48co3+IzYbAqIhZZX+Rjl7LPbd88PARz5lqDuJ0Gimo4l7axXwNQkwKPPDjnLSL3R3cPj+ljNeqcqvKfpxHu5tMUm7PTz38oDIfn6V3D/ORfS8pwYs+XFq8WTEesh2Pgsry0QgyLxrxdczMcvchYtHhxShQeUIlo8jvw6U+0LqCLY9rDa66uAnaz8lg6kOWTwRkh8DSEdcqFG1dVXZtxG+zP/wEU38srxPMOZfU/pw7fy6pxYKMoUZphkyrj6tzyV12/vOP+yxrGtcG3NHhirEriXLWCrYRJ88ZW7V+j+LcQvbpkyrcBCxKvFkT2/vIQKwFkuNut+Y8aOvD7Y23v7Da50eTG7I8T50zz94cv8Z1xm0HFIqIS2sESTmQLCYQCaV/DmQ74Sgb6rUajjaZOo11Oqbtllpmud1i/YBNEWOWm6G53vAsYyxczDL7cOAH76p7e175oMcr8lDnLjopFNzCbi53vUec02gf83D2M3YmKWk8mn2cvxxNYj+Ud3e5R+wzCCz9B6lzFWGn3GXnHt/3VVM21GdYU08kh7FwvgfDzYk+Kl7fuaLZR8byfS255zgnritY4iOu/+QZs2X5qtUuH2txL21+R339kb+0CklDiRwBV//WMG73qHLt+0t9AV+xapX8vGSJLF62TNb8+aelTMSmb7z+eq83kTA2i1UnQQDursiWNXvUcPny/d4qU2x1bVGFVRAL751PPpPaLe/VSgvExIs1WaniJngTpJo3Yn9JxbycORLjM8Jq7IhSjLnLFpUMxB8xLhooezxAKyR/6k+ujNk+LHZ8WfN4qwMvJIinAsHDG74a/+/SVx8okJN6YTH1rVyz1oxaQyho16oPCxC4NduzKRcvclmhuGK192NmVeQ2guN3g8qIFugvc2bPAPduVQc1GSh3kwAD59rGrduC2iasjl7uneh+C4uwIX0/UFZzj+u64Hbbo09fv+oNtO1+VRqhQoGec96aZVzwN23driyzz3oroufBXd8IEg15k2W/rvI225pXvEhhPY4ERcheHIg4cc4Esj17WbtViQmDYF+O8eW2xEKFCuR3X+wx7S93e1+9ytaH2yv81UvfY5ZHi1sa1afiA1ygfVQJW3Icsw/BDOvXqmmFl8Axs8ei9Ke+UPpn9/pNH4P5kbgvOnGtuu+Dv9PJ3XcPqI8+Rrx93LJfO76uNSRzMMnpCqosoUlJlktJXZBVFJnlIYjJ1a3XO1ZSND1T/XPymJs6AxmGo58JZPtOlY30+R6tPs4fXrgeRkycbBW9v0Uzaxwj5lpFLD5vykS49P9l82ZzWdk24cQzrK26gEeDOeaxcL4Hw82JPsqpd66AD1SIK0SzjzTXCnYh2GfQEHffY3V/n+M8VgxgBvoQWCnf1uoe9c7TR375bZWlTLxVZYD/8PVXZP74UTqePJWJAYB1qGjYFYqItYQHnXQqeLQvyatcaWuq2G1FCye+ZPkqx/nRIYAbzW1Vb1XuMm/K3DEjtYufCYqPwMj4snjAzZUqOi113eoWZUnjrmiAZSysLiEI+A2XH7tcpb7gG1mycqUZ1UN0ZiNtD0QuC90moIw18temTWY0YkNjeYk2rw9QYdHqzkbKMjOxqR8P/lqPYLpVk0RFY3I7MfrHKdq6015u1sJFloK2psrebRckFIE7FmSO+uqEQMO+BFY79kzHD9zVXMYMHhDwz1cAaV/b9Xd+oNyb2xLcfKJYJ+UGt2mbsuZW7rZ2wfnc/a3eViKWHs89q14GC8uj994tNW+tpIvOVux/mDDJvprX8UDb7rWSKM0M9Jzz1kyT0AN92hoVi8WX2APJz1+61KPYfpUZ+fvxEzzm22cgviVEGUHLR4O+UtZC5+2LrXFkPMfXWLuEes7Y6wp03N5f4pxyP1+h3J6zMDEEASzXr1fXdnLiL3e4r8B6BTJNWSUbzwZTP2K9LvhlmZn0GEaLG+JUjh74RcB9lFPZ2RFTr809rTUPnG+vqw8MsC71V0Lpn923Een7ohPXqvs++Dvd4aXX5Nsx47x+0INVIeI9QRLjxOXyqDZPrlzWfRGuoMhY6S7Dx1/u16tXqui+2Od0u/vvFbyAQTZs2SoffTnYpayTx9ylYj8nwtHP+LlpR4tF+nyPVh+XHDR4Oz310qtWMjK4MsMizi75VKxEyN8bN1nKRfvygd8Pt+In2ud7Gw/1GdZbnf7OC+aYx8r5Hig3J/oop965/D0+TpWLZh8ZzfuaL37+Psf5Wt+f+Xg2x/v7iZOJzy+5Vbzuxx+4V6YPHybffPyRTiQaaJJDf7bLMv4RCLtCMYcyP61YoYLcUbeu1KlZU6pVrqynMQ9KxIb16kmVW27RLtH+NZmlokkAHdmTDz0gM0Z8pyyh+kijurUlnXphsgteMvEAYf+ZQMwoh68r9mVHjh61r+7o+HOvvymLV6zUX+B3K2stuIBCMQNpULuWVr7oiUv/blYPOkb6DRyiv4DghR7WY8jC6x6jwZR1H8IVsPAl65yf1Utuv0FDVHyqtbJZufjDyhH7H04pU7KEVT2s1xBrEIo4bBu/pCywkL212i2uLyeV1PXq7qJibcBtZPmq35VV3Ed6H6EAnK0Uzm980E+XgmLy8Qfvc1kDCutXu3TW8/DC+1jX7jJs9FhtSYNzCV+m8fL1wYCBUufu+8UoOV0qiZGJQLnj+jEvdj8vW66DkkOJBMsRKAthHYrgy22e7Sp3PfakPnb2Xf3062Hy29p1elbT+vWkRcMGehyu+u+98pIKaJ74ovrhgEHKqniDfVWP8UDb7lFBFGcEes55ayosuYw881pPfc0u/fU33QfAtd5I2TJlzKh2tx856UeBqy36iUXLV8j9HZ62Hnisgm4jUIQb3ktX/iaPPNNVKwxQB66Zv9RLFZImPPzMc0oR79o/hnrOuDUloMn6t9W0lBxLlRXmK+/2EfSrUIhC4dFG7YeJUdtWKbXtMZZ8bchf7uhTH2jRXFeDPuHx51/Ufbm2flYfIR7r+oJ24/S1nWhy89WmSM1/oGULy0pxmXIRevS5F2TanHmyQyXEwr0Ifcz8pd6VsU72z5G+LzpxrQZ7jKC0/UD1uw90ekZGTZ4if/y9Xoe2wHPA06++rmPnou7Gdet4tfxHH96x7cPW5ju90kPwLIH+AQrJ/kOGCvoeCJT3gbiy45i+/+pLVrgafByYv+QXa1tOHnOr0gBGwtHPBLB5x4pG+nyPlT5ulboXfD9ugrz76RcqZucr0vzRxwX3OUgGFefz+aee8GB8vfI0gSB+91sffyrwMMIHcVhU41747ZjxHuv4mhHqM6yvev2ZH8wxj5XzPVBuTvRRTr1z+XNsnCwTzT7Sifua0+/p/j7HhXoMtCFQ5VvkkzffkPnjRgo+vBqPn1Dr5vqhEUgb2uqBrY2XC39eMAKrlaWjQQA3Eiid8EMsIHsg3D0qg+AdDzzis1l4mbHLTTeUlR+++NQ+y5FxKDrRNgQhdxdkAzVuP/ZllSuUV0ksrtbBoeFK9MTzL9kXK4vGioIXaX/kmccf1WbZUJLBdRg/I9jOsP59zaTjw6YNbpevRoySbTt2Ciw1u/V622Ubwz75SCrflGih4LLg0sTdTe902c+WKsu3vwIrokkqQC5+7vJw65ZydYkS7rMFPDo/1kYGfDtcx6f7UFlM4BdvEgz3Xs93lWdee0MfJygHH+r8nLYQxXmTlCxctkKdU6N0kaKFCsob3bq4FEesvvfUS2P77i8LvuzhHEA8RW/uRFgxmLa7bDCKE8Gcc+7NxQcGKHfhdg9LUPs1C7eSMYO+0KuULFZUx2dB0ht8KUXoh979P5NU6g8vQ5D6tWooa9sletzbP8S76v1yd+miPnj8s3+/CgewXh5Wx91fCfac8bd+X+XQ77/cuaM806On3vcpShGFn7vg6/3Drf2L1ecvd2yjzb2tBXEAN6uPIgi7ASW7XZDx28S3tM8349HiZrYfrSHuzyMGfKr6mZ5aCQsF+YvvvOe1OVeruEPuMXCd7J8jeV904lr1CimAmThP8fMmsE7s0Oay0tC9TIPbakntalWUInG5/rDW6ZXX3YvoMDQvPv1UwM/WcLN+q3s36fLGm7pOfAScMHSQjrOIGU4ec49GJzMjHP1MMpsM2+JInu/YiVjo4xaojxP4uQssE99+8XkVs7OI+yLp3O5RlRDwF91/m/VN0joUxj0enizeMtF7VKZmhPIM662+QOYFesxj6XwPlFuofRT6GafeuQI5Rk6UjVYf6cR9zen39ECe44Jlj3ACcGlG5ndK7BEIu4Vi7O0yW+Q0AQRBhVuXEXy5CUTsKd3x9cEIYk95k9QqmyEkue28+HQHncEQDyV2gXIALmjolL3JZ++8pWNe2Zchg959zZvKa5cs6bDM3m57WTMOt8ZRX34mdyrLMTCyt9fsgynr9BAKi9EDP5dXn31aW0LhRdsu9rbY55vxujWqWfEyEZfvjjr+ZV6GCfrgD97TGcFNXRhmyJBeundsr5QRneyzXcY7tn1ERnzRX6CMsJ0GVhm0o6FqR5t7WlnzYm0kGO74ujZOKfqQ3MNkxXVXJsKaDdYqJYsmnrNQeME6DOXwUtq3Zw+vL5RwpWl3f6JF6G6l6IfFgC8Jpu2+6ork/FDOOfd2fvXh++oF/yG5tnQpF8tr977oFXUeP3rf3dY1guMAZSIUNw8qa7Der7xoncPu/Y/ZJvqhycO+knuaNdHXh5lvhrA6gmuiiU1j5mMYzDlj1jftcd8ns9zeN3jr46pUvFnGDv7So4/E+viIA+tLKK8C+XjoL3f0oz+oPqJ21SoWX2wX9w2E5fjkrTcwqcW+H2ZeKNxMHdiW6Z8MS7MslocI84Djgqy+uGbcBYmCkLEcHx1yqVA17uJU/xzp+6IT16o7C3+mO7drqz043O+9Zl1ksh07aIBX5YopA0XDF+++LV3bPy7e6kHCne/699MJ8sw69qG5BnC+oi53gWVU6zsb69n4+Nrro49dijh1zF0q9XPCyX7GXKfe+jM/mxN0sUDPd9PWYPtnJ/q4YHbWvb043eD+C6MD3BPwcfO7T/v5PN/R7q8+el99cC5ubR6xzFFPqeLF5GsVG/rG666zliV3LIN9hrU2EMJIoMccm3LyfA+h6RIot1D7KLQ11HeuaN6Tg+kj7deK/TzGMzgkTerEIcZTXXoPdu/DQ72vmXsDtuGP2Nvpq7y/z3G+1vdnPpWJ/lCKTplUZ/ftSzSpiM72Hd/qnl8SY1oVqlbd8bpZYewTQMKVNs920w19veuzgsDPcB+Fy+xZlWgBAckR9yM5gavFjt27tavzVSrGJ9azK02TWz/elyMIPFyPIXjhgCVDUtKuW3eVbet3/aK6aNJYXRTuunCzxksPFDTmZplUPWYZjhlcs3fs2SPZs2bVD6bFVIzVlB4fA24IsFjbvO1/Os5ZgXx5deZ7e8wUw+hKHzp9zgXDEy/hm1UIBbgglilVQkoVK+by4cDfOtHfIIEOzvmECwk6+3dJ9RLlz/kezXPm2PHjOgYbsrOXUh9o8OIXqX4SMRRh2Xnu3DmVqbacFV/RX+bR5OZvG8NZDq7OcK3H8YLljz32V3Lbjcf+2alrNTk27svhorxDJThDjM/jJ09IIZWNGfcydytQ9/Xcp80zCZJGZcmSWa4rXTrgOtzrDGQ6msc8mv1MIIxirWw89nE4z+FZs23nTsGHfCgRTezcQPgG+gwbSN3hLhvN8z0UbqH0UWZdhJeK13euaPSR0bqvhfsaYP3xR4AKxfg7ZmxxEgS8KRSTKM5FPgjANW7ekkTl/Ehl1VJeWVMkJd6UO0mV5zISCJUAz7lQCXJ9EiABEiABEkh5BAJ9hk15BILbI3ILjhvXIoErncBlP9UrnQT3nwRIQFvFITacUSbCLTM5ZSKxkQAJkAAJkAAJkAAJkEA0CSAZEp9hAz8C5BY4M65BAiRwmUCKUyjS1fnyweUYCfhLAG4OyKS398BBK6kBYvkgphaFBEiABEiABEiABEiABGKRAJ9hgzsq5BYcN65FAiTgSiDFKRRdd49TJEAC/hA4puKRbVcxD40gdlufHi+rrNa3mFkckgAJkAAJkAAJkAAJkEBMEeAzbHCHg9yC48a1SIAEXAmkuBiKrrvHqSuNwOEj/8rsRYv1bt96UwWfmZyvNC7J7S8Cxi9cvkKQB7JE0SKCDJQZ3DJDJ1XHwmUrdDIRZClGhjsKCYSbAM+5cBNm/SRAAiRAAiQQ+wRCfYaN/T0MTwvJLTxcWSsJXGkEqFC80o4495cESIAESIAESIAESIAESIAESIAESIAESIAEQiCQOoR1uSoJkAAJkAAJkAAJkAAJkAAJkAAJkAAJkAAJkMAVRiDtqYwZU9Qu//vvv3p/cubMmaL2iztDAiRAAiRAAiRAAiRAAiRAAiRAAiRAAiRAArFAgBaKsXAU2AYSIAESIAESIAESIAESIAESIAESIAESIAESiBMCVCjGyYFiM0mABEiABEiABEiABEiABEiABEiABEiABEggFghQoRgLR4FtIAESIAESIAESIAESIAESIAESIAESIAESIIE4IUCFYpwcKDaTBEiABEiABEiABEiABEiABEiABEiABEiABGKBABWKsXAU2AYSIAESIAESIAESIAESIAESIAESIAESIAESiBMCVCjGyYFiM0mABEiABEiABEiABEiABEiABEiABEiABEggFghQoRgLR4FtIAESIAESIAESIAESIAESIAESIAESIAESIIE4IUCFYpwcKDaTBEiABEiABEiABEiABEiABEiABEiABEiABGKBABWKsXAU2AYSIAESIAESIAESIAESIAESIAESIAESIAESiBMCVCjGyYFiM0mABEiABEiABEiABEiABEiABEiABEiABEggFghQoRgLR4FtIAESIAESIAESIAESIAESIAESIAESIAESIIE4IUCFYpwcKDaTBEiABEiABEiABEiABEiABEiABEiABEiABGKBABWKsXAU2AYSIAESIAESIAESIAESIAESIAESIAESIAESiBMCVCjGyYFiM0mABEiABEiABEiABEiABEiABEiABEiABEggFghQoRgLR4FtIAESIAESIAESIAESIAESIAESIAESIAESIIE4IUCFYpwcKDaTBEiABEiABEiABEiABEiABEiABEiABEiABGKBABWKsXAU2AYSIAESIAESIAESIAESIAESIAESIAESIAESiBMCVCjGyYFiM0mABEiABEiABEiABEiABEiABEiABEiABEggFghQoRgLR4FtIAESIAESIAESIAESIAESIAESIAESIAESIIE4IUCFYpwcKDaTBEiABEiABEiABEiABEiABEiABEiABEiABGKBABWKsXAU2AYSIAESIAESIAESIAESIAESIAESIAESIAESiBMCVCjGyYFiM0mABEiABEiABEiABEiABEiABEiABEiABEggFghQoRgLR4FtIAESIAESIAESIAESIAESIAESIAESIAESIIE4IUCFYpwcKDaTBEiABEiABEiABEiABEiABEiABEiABEiABGKBABWKsXAU2AYSIAESIAESIAESIAESIAESIAESIAESIAESiBMCVCjGyYFiM0mABEiABEiABEiABEiABEiABEiABEiABEggFghQoRgLR4FtIAESIAESIAESIAESIAESIAESIAESIAESIIE4IUCFYpwcKDaTBEiABEiABEiABEiABEiABEiABEiABEiABGKBABWKsXAU2AYSIAESIAESIAESIAESIAESIAESIAESIAESiBMCqY4ePXoxTtrKZpIACZAACZAACZAACZAACZAACZAACZAACZAACUSZAC0Uo3wAuHkSIAESIAESIAESIAESIAESIAESIAESIAESiCcCVCjG09FiW0mABEiABEiABEiABEiABEiABEiABEiABEggygSoUIzyAeDmSYAESIAESIAESIAESIAESIAESIAESIAESCCeCFChGE9Hi20lARIgARIgARIgARIgARIgARIgARIgARIggSgToEIxygeAmycBEiABEiABEiABEiABEiABEiABEiABEiCBeCKQ6qKSeGpwcm09cuSILpIrV67kinI5CZAACZAACZAACZAACZAACZAACZAACZAACZBAgARooRggMBYnARIgARIgARIgARIgARIgARIgARIgARIggSuZABWKV/LR576TAAmQAAmQAAmQAAmQAAmQAAmQAAmQAAmQQIAEqFAMEBiLkwAJkAAJkAAJkAAJkAAJkAAJkAAJkAAJkMCVTCBtNHf+7Nmz8t9//+kmpEqVSvLkyRPN5nDbJEACJEACJEACJEACJEACJEACJEACJEACJEACyRCIqkJx9erVsn//fquJd955p6ROTaNJCwhHSIAESIAESIAESIAESIAESIAESIAESIAESCDGCERNe7d7924XZWKMcWFzSIAESIAESIAESIAESIAESIAESIAESIAESIAEvBCIioXiuXPnZN26dV6aw1nxQuD0mTNy/tx5SZs2jWTMmDFems12kgAJkAAJkAAJkAAJkAAJkAAJkAAJkAAJhEggKhaKf/75pyB+Yo4cOSRbtmwh7gJXD4bAvn37Zdnylfpn4lgGUs/jT3aQirdWl0ZN7/JrtS8HfSXXlbtJ/3bt2u3XOixEAiRAAiRAAiRAAiRAAiRAAiRAAiRAAiQQewQibqF48OBB2blzpyZx4403ytq1a2OPyhXQold79JRFS5aqmJWpZOb0HyV79uwB7fXFi5eKWyNJr56QcEEuXEhcKeFCQtKFuZQESIAESIAESIAESIAESIAESIAESIAESCBmCUTUQvHChQuWArFo0aKSK1eumAWTkhv29/oNWpmIfWzYoL4UL1YsJe8u940ESIAESIAESIAESIAESIAESIAESIAESMBBAhG1UNy4caOcOHFC0qVLJ2XLlnVwN1hVIAQGDxlqFX/yiXbWeDhHWrdqIZVuqag3UahgwXBuinWTAAmQAAmQAAmQAAmQAAmQAAmQAAmQAAmEkUDEFIqI07dlyxa9K9dee61kyJAhjLvFqn0R2Llzl8yYMUsvrl6tipS74XpfRR2dX7BAAcGPQgIkQAIkQAIkQAIkQAIkQAIkQAIkQAIkEN8EIqJQvKji7CFWIlyeEauvRIkS8U0thlp/6NBhmTBpspw6dUqe7dwp2ZZ9/c23kqCOA6R9MtaJZ1Qm55Gjx8rva9bKxo2bpFSpklK50i1yT+uWyW4HlqjDR4zyWu6hB+6XrFmzeCzbvGWr/Dhlmp5fp3YtqXjzTR5lzAy0659/9uos02a/R48ZJ7v3/KPbV7RoEVOUQxIgARIgARIgARIgARIgARIgARIgARIgAQcJREShuH37djly5IhuNhKxpEqVysFduPKqgmJ26S/LZMzYCTJn3nw5f/681L+9brIgDh46JOMnTtLlyt1QVqpXq+pznQMqeU7Hp7vI2j/WWWWg8Js1e67MmTtPTp85bc33NnLo8GHp+/Gn3hZJo4YNvCoUMyqr1YGDh+h1oMAcOMD7+kePHpW3e7+v9/umCuUtRerOXbtk8JBvZNBXQ6Ra1Spy3z2tFZd62sXea0M4kwRIgARIgARIgARIgARIgARIgARIgARIIGACYVconj59WtavX68bVqRIEcmdO3fAjeQKiQT27z8g4yZMlLHjJ8ru3XtcsGTJ4mnx51JATXz73Q9y5sxZPTu52ImdOj9nKROLKWu/enXryNmzZ2W2UiYuX/Gre9Ue09myZpNmdza25iMRDBSSSUmRIoWVVWIFWbV6jUoas0TgJu8t+/RMpdSEEhXSvGkTq0rDAImnl/6yXP9y584lLVs0l3vvbiUlS5awynKEBEiABEiABEiABEiABEiABEiABEiABEggOAJhVyiuW7dOK3/Spk0r118fmXh9waGIzbXgnrxw4WJljTheFvy80HJXRmszZ84kje5oIK1attCuyEntwfHjJ2TkqDG6SInixXR2Z1/lf1m2XNas/UMvhiXjsKFfSfZs2fR0h/ZPyMNt28kOFYsxKcmVK6f0/fB9q8jnAwbJp58PsKZ9jTRreqdWKJ47d16gOPTmXj112k969TRp0kiTxo2sqjo+9aTUqX2bTJg4WX6cOk1Zxf4rhw8fEbh541e5UkW5V1ktghljeFrYOEICJEACJEACJEACJEACJEACJEACJEACAREIu0IRVmYQWJT9/PPPHo1DnD4jc+bM0aOIsXjNNdeY2VfkcPeePTJ+wiQZN36S7N23z2IAb3HEMWx1VwvtOpw5c2ZrWVIjo8aMlf+OHdNFHn+sraROndpn8e9/GGkt6/bcs5YyETMLFMgvT3d8Sl569XWrjJMjTRo1lN7vfaDPFygO3RWKBw4ckBUrV+pN1qheVVm85nLZfNnrrpXXXnlRXureTeYvWKiViwsWLpKEhARZ+esq/Xundx9p0bypVi5eU+Zql/U5QQIkQAIkQAIkQAIkQAIkQAIkQAIkQAIkkDSBsCsU7Zu3Kw/t8824WX7u3Dkz64obQvHVvuMzsmTpUpXERvnuXpJChQoqJWJz7b4baMIRuCp/8+33uqZ8+fJKS1VPUrJ16za9GFaG3uIsIgbia2+8abkdJ1VXoMuwzZo1qilrzEWyYsVKQdzHvHnyWNX8NHO2xaV5szut+e4jsIhtUL+e/iFxzY9Tpqr4kZNl46bNclQpub8bPkL/EIPx8/795Kqr8rlXwWkSIAESIAESIAESIAESIAESIAESIAESIAEvBMKuUCxdurSOvedl23rW1q1breWwSoTlXK5crlZnvtZNifNhyblo8RJr10qUKC5v9ewhVW6tHHQym0mTp8iBAwd1nW0feUjSp09v1e9tZI/KlAwpVLCgV0vGTJkyaSWf3XLSWz3Bzmuu3J6hUIS7908/zZRHHn7Qqsq4O6MNDVTCFX8kT57c8tijbfRv3Z9/yYd9PxG4dUOQwfqwSiBDhaI/JFmGBEiABEiABEiABEiABEiABEiABEiABETCrlAsXrx4kpz3KNdeWNBBypQp41WBlWQFKWwhMmCnTp3KssLbvv1/0uut3jpOYotmTSV//qsC2mNkhB4ydJheJ1vWrPLg/fcluT5c1E9fckNHeV8CJV24FIrIWI34kCdPnpJpP82wFIq7du3WCkC0qX69OgKlor+C/Zo6fYZMnPSjFR/SrJsqCfdvU4ZDEiABEiABEiABEiABEiABEiABEiABEiCBRAK+A+mRUFQIwHpw7qzpKk5he0t5uHXbdvmoX3+pffsd8viTHQVWekbpl1wjZ82ZK9v/t0MXe+D+eyRr1qSzQSMmIxSakIQLCXro7d+pU6e8zXZkXsaMGS3rw9W/rxHEk4RMUwpBI0m5O5sysHD8WcVP7NL1Bal+Wz2tmDXJZnJkzy6PPPSATJk0Tq69poxZhUMSIAESIAESIAESIAESIAESIAESIAESIIFkCITdQjGZ7XOxFwKFCxWSLs88LZ2f7qgS2SzSGZ6hGIOCbNGSpfoH68HGje+QVi1aSMWKN3mpJXHW4CFD9Uj69OmkbZuHfZYzCxB7MG/evLJ//wEVv/Cwme0xPHjwkMc8J2c0U/ERJ0+ZJhdVGMnpyu35yccfUxaGidmdkYilZo3qPjeHOImwRETcxANu7WSmZ5/YuIAESIAESIAESIAESIAESIAESIAESIAE/CJAhaJfmKJTKI1yxa1Xt7b+7du3XyUVmSRjx0+U3bv3yLHjx5WicYL+lSheTDo+9aRHshXECVy37i/deCRiyacUhf4IYidCobhDWTYiq3K+fK4JSzZs2GhljPanvmDK1KhWVfLkzi2HVHxDWGTWrVNbNmzcpKtq3OgOSZMmjUe1i5Wytd8nn8q6P/92WYZELy1bNJf77mktJUuWcFnGCRIgARIgARIgARIgARIgARIgARIgARIggcAIRN3luXbt2tKsWTP9Q0IWincCiJ3YqUN7mTtzmnw9+EtpeEd9gTUhBC7Ns+fO81hx0Fdf63lwYX6i3aMey33NqFvnNr0IFpFjxk3wKDZ85CiPeU7PgMKwSeOGutq/12+QTz8bYG0CSVu8ybLlKyxlogpFqTJUV5H+/T6QxQvmyMsvPk9lojdonEcCJEACJEACJEACJEACJEACJEACJEACARKghWKAwKJdHErXWjWr69/BQ4e0a++YseM9moVsxkt/Scxk3LBBfSlerJhHGV8zHnrgPoEyEklRPvviS8mRI4cgIcy5c+dk+IiRMnqM5/bsdV1UfsruCVuOHj1qFdm7d59LpumMGTKqzN45reVmBHESv/9hpJ6cMWu2HhYtUlhuvqmCKeIxzJc3j0pgc5fce3crKVq0iMdyziABEiABEiABEiABEiABEiABEiABEiABEgiNQCql/FFR6lKOHDlyRO9Mrly5Us5OJbMnOIRwDc6bJ49VEolIfpqZqISbMHaklLvhemuZPyM/jBwtb73zro5h6F4+Xbq0ciHhgo7pWKhgAVkwd6ZLEWRjrndHE5d5SU3cfFN5GT3ie69F6je8U3bs3GUtg2t31y6drWn7yJEj/0r27Nm8ukPby3GcBEiABEiABEiABEiABEiABEjg/+3dsUrDQBgH8DM622eoYNFSVKSgjg4ODvpEgjgXERwdBFcHd9FF8Skc0sk+RF3sRQpF65AU2mv9ZSkUkvzvd5k+7u4jQIAAgeoC9hhXt0vmzqXB/t7RYmLcAv349Fzki9t+yxYT441xleL11WWI3ZBHr1ptdbCNuBPa7d3i72zMWYbZcrnPKst+n4c4fOfPbs6nJ38XKuMqx3FnKw6f5ZcAAQIECBAgQIAAAQIECBAgQGByASsUJzdM7gln5xdFs5YY7O72Jhzs71XOGFc/5t1ueB80RFmr10OjsR5iAdNFgAABAgQIECBAgAABAgQIECDwPwUUFBds3mNX5sOj49Dvf4ZWqxke7r/PIFywYRoOAQIECBAgQIAAAQIECBAgQIDAjAQWrqA4I8dkXvvR64WX17ciz872VmhubiSTTRACBAgQIECAAAECBAgQIECAAIH5F1BQnP85NAICBAgQIECAAAECBAgQIECAAAECUxMo1z1jarG8iAABAgQIECBAgAABAgQIECBAgACBFAUUFFOcFZkIECBAgAABAgQIECBAgAABAgQIJCqgoJjoxIhFgAABAgQIECBAgAABAgQIECBAIEUBBcUUZ0UmAgQIECBAgAABAgQIECBAgAABAokKrOR5nmg0sQgQIECAAAECBAgQIECAAAECBAgQSE3gC+F1K+DIYu9fAAAAAElFTkSuQmCC;imageBorder=#808080;" vertex="1" parent="1">
          <mxGeometry x="20" y="9" width="780" height="109.2" as="geometry" />
        </mxCell>
        <mxCell id="DnKJ6aQa_n4VbNqKtSH7-11" value="" style="shape=image;verticalLabelPosition=bottom;labelBackgroundColor=default;verticalAlign=top;aspect=fixed;imageAspect=0;image=data:image/png,iVBORw0KGgoAAAANSUhEUgAABR4AAAC4CAYAAACFIvATAAAMS2lDQ1BJQ0MgUHJvZmlsZQAASImVVwdck0cbv3dkQggQiICMsJcgIiOAjBBW2BtBVEISIIwYE4KKGylWsG4RwVHRKkNxVUCKC7VqpSjuXRyoKLVYi1v5LgTQ0m/8vsvv7v7533P/e57nvXccAPQuvlSai2oCkCfJl8UG+7MmJ6ewSD2AAHThjwpYfIFcyomODgewDPd/L6+vAUTZX3ZQav1z/L8WLaFILgAAiYY4XSgX5EH8IwB4q0AqyweAKIW8+ax8qRKvg1hHBh2EuEaJM1W4VYnTVfjioE18LBfiRwCQ1fl8WSYAGn2QZxUIMqEOHUYLnCRCsQRiP4h98vJmCCFeBLENtIFr0pX67PSvdDL/ppk+osnnZ45gVSyDhRwglktz+XP+z3T875KXqxhewxpW9SxZSKwyZpi3RzkzwpRYHeK3kvTIKIi1AUBxsXDQXomZWYqQBJU9aiOQc2HOABPiSfLcON4QHyvkB4RBbAhxhiQ3MnzIpihDHKS0gflDK8T5vHiI9SCuEckD44ZsjstmxA6vey1DxuUM8U/5skEflPqfFTkJHJU+pp0l4g3pY46FWfFJEFMhDigQJ0ZCrAFxpDwnLmzIJrUwixs5bCNTxCpjsYBYJpIE+6v0sfIMWVDskH1dnnw4dux4lpgXOYQv5WfFh6hyhT0S8Af9h7FgfSIJJ2FYRySfHD4ci1AUEKiKHSeLJAlxKh7Xk+b7x6rm4nbS3Oghe9xflBus5M0gjpcXxA3PLciHm1Olj5dI86PjVX7ildn80GiVP/g+EA64IACwgALWdDADZANxR29TL/ynGgkCfCADmUAEHIaY4RlJgyMS2MaBQvA7RCIgH5nnPzgqAgWQ/zSKVXLiEU7VOoCMoTGlSg54DHEeCAO58L9iUEky4kEieAQZ8T884sMqgDHkwqoc//f8MPuF4UAmfIhRDK/Iog9bEgOJAcQQYhDRFjfAfXAvPBy2frA642zcYziOL/aEx4ROwgPCVUIX4eZ0cZFslJcRoAvqBw3lJ/3r/OBWUNMV98e9oTpUxpm4AXDAXeA6HNwXruwKWe6Q38qssEZp/y2Cr67QkB3FiYJSxlD8KDajZ2rYabiOqChz/XV+VL6mj+SbOzIyen3uV9kXwj5stCX2LXYQO4OdwM5hrVgTYGHHsGasHTuixCM77tHgjhteLXbQnxyoM3rPfLmyykzKneqdepw+qsbyRbPzlTcjd4Z0jkycmZXP4sA3hojFkwgcx7GcnZxdAVC+f1SPt1cxg+8VhNn+hVvyGwDexwYGBn76woUeA2C/O3wkHP7C2bDhq0UNgLOHBQpZgYrDlQ0BPjno8O7TB8bAHNjAeJyBG/ACfiAQhIIoEA+SwTTofRbc5zIwC8wDi0EJKAOrwHpQCbaC7aAG7AEHQBNoBSfAz+A8uAiugttw93SD56APvAYfEAQhITSEgegjJoglYo84I2zEBwlEwpFYJBlJQzIRCaJA5iFLkDJkDVKJbENqkf3IYeQEcg7pRG4i95Ee5E/kPYqh6qgOaoRaoeNRNspBw9B4dCqaic5EC9FidAVagVaju9FG9AR6Hr2KdqHP0X4MYGoYEzPFHDA2xsWisBQsA5NhC7BSrByrxhqwFnidL2NdWC/2DifiDJyFO8AdHIIn4AJ8Jr4AX45X4jV4I34Kv4zfx/vwzwQawZBgT/Ak8AiTCZmEWYQSQjlhJ+EQ4TS8l7oJr4lEIpNoTXSH92IyMZs4l7icuJm4l3ic2El8SOwnkUj6JHuSNymKxCflk0pIG0m7ScdIl0jdpLdkNbIJ2ZkcRE4hS8hF5HJyHfko+RL5CfkDRZNiSfGkRFGElDmUlZQdlBbKBUo35QNVi2pN9abGU7Opi6kV1Abqaeod6is1NTUzNQ+1GDWx2iK1CrV9amfV7qu9U9dWt1PnqqeqK9RXqO9SP65+U/0VjUazovnRUmj5tBW0WtpJ2j3aWw2GhqMGT0OosVCjSqNR45LGCzqFbknn0KfRC+nl9IP0C/ReTYqmlSZXk6+5QLNK87Dmdc1+LYbWBK0orTyt5Vp1Wue0nmqTtK20A7WF2sXa27VPaj9kYAxzBpchYCxh7GCcZnTrEHWsdXg62TplOnt0OnT6dLV1XXQTdWfrVuke0e1iYkwrJo+Zy1zJPMC8xnw/xmgMZ4xozLIxDWMujXmjN1bPT0+kV6q3V++q3nt9ln6gfo7+av0m/bsGuIGdQYzBLIMtBqcNesfqjPUaKxhbOvbA2FuGqKGdYazhXMPthu2G/UbGRsFGUqONRieNeo2Zxn7G2cbrjI8a95gwTHxMxCbrTI6ZPGPpsjisXFYF6xSrz9TQNMRUYbrNtMP0g5m1WYJZkdles7vmVHO2eYb5OvM28z4LE4sIi3kW9Ra3LCmWbMssyw2WZyzfWFlbJVkttWqyemqtZ82zLrSut75jQ7PxtZlpU21zxZZoy7bNsd1se9EOtXO1y7Krsrtgj9q72YvtN9t3jiOM8xgnGVc97rqDugPHocCh3uG+I9Mx3LHIscnxxXiL8SnjV48/M/6zk6tTrtMOp9sTtCeETiia0DLhT2c7Z4FzlfOVibSJQRMXTmye+NLF3kXkssXlhivDNcJ1qWub6yc3dzeZW4Nbj7uFe5r7JvfrbB12NHs5+6wHwcPfY6FHq8c7TzfPfM8Dnn94OXjleNV5PZ1kPUk0acekh95m3nzvbd5dPiyfNJ/vfbp8TX35vtW+D/zM/YR+O/2ecGw52ZzdnBf+Tv4y/0P+b7ie3Pnc4wFYQHBAaUBHoHZgQmBl4L0gs6DMoPqgvmDX4LnBx0MIIWEhq0Ou84x4Al4try/UPXR+6Kkw9bC4sMqwB+F24bLwlgg0IjRibcSdSMtISWRTFIjiRa2NuhttHT0z+qcYYkx0TFXM49gJsfNiz8Qx4qbH1cW9jvePXxl/O8EmQZHQlkhPTE2sTXyTFJC0Jqlr8vjJ8yefTzZIFic3p5BSElN2pvRPCZyyfkp3qmtqSeq1qdZTZ089N81gWu60I9Pp0/nTD6YR0pLS6tI+8qP41fz+dF76pvQ+AVewQfBc6CdcJ+wReYvWiJ5keGesyXia6Z25NrMnyzerPKtXzBVXil9mh2RvzX6TE5WzK2cgNyl3bx45Ly3vsERbkiM5NcN4xuwZnVJ7aYm0a6bnzPUz+2Rhsp1yRD5V3pyvAz/02xU2im8U9wt8CqoK3s5KnHVwttZsyez2OXZzls15UhhU+MNcfK5gbts803mL592fz5m/bQGyIH1B20LzhcULuxcFL6pZTF2cs/jXIqeiNUV/LUla0lJsVLyo+OE3wd/Ul2iUyEquL/VauvVb/Fvxtx3LJi7buOxzqbD0lzKnsvKyj8sFy3/5bsJ3Fd8NrMhY0bHSbeWWVcRVklXXVvuurlmjtaZwzcO1EWsb17HWla77a/309efKXcq3bqBuUGzoqgivaN5osXHVxo+VWZVXq/yr9m4y3LRs05vNws2XtvhtadhqtLVs6/vvxd/f2Ba8rbHaqrp8O3F7wfbHOxJ3nPmB/UPtToOdZTs/7ZLs6qqJrTlV615bW2dYt7IerVfU9+xO3X1xT8Ce5gaHhm17mXvL9oF9in3P9qftv3Yg7EDbQfbBhh8tf9x0iHGotBFpnNPY15TV1NWc3Nx5OPRwW4tXy6GfHH/a1WraWnVE98jKo9SjxUcHjhUe6z8uPd57IvPEw7bpbbdPTj555VTMqY7TYafP/hz088kznDPHznqfbT3nee7wL+xfms67nW9sd20/9Kvrr4c63DoaL7hfaL7ocbGlc1Ln0Uu+l05cDrj88xXelfNXI692Xku4duN66vWuG8IbT2/m3nx5q+DWh9uL7hDulN7VvFt+z/Be9W+2v+3tcus6cj/gfvuDuAe3HwoePn8kf/Sxu/gx7XH5E5MntU+dn7b2BPVcfDblWfdz6fMPvSW/a/2+6YXNix//8PujvW9yX/dL2cuBP5e/0n+16y+Xv9r6o/vvvc57/eFN6Vv9tzXv2O/OvE96/+TDrI+kjxWfbD+1fA77fGcgb2BAypfxBz8FMKA82mQA8OcuAGjJADDguZE6RXU+HCyI6kw7iMB/wqoz5GBxA6ABftPH9MKvm+sA7NsBgBXUp6cCEE0DIN4DoBMnjtThs9zguVNZiPBs8H3Mp/S8dPBviupM+pXfo3ugVHUBo/t/ASVngw4IJLDzAAAAlmVYSWZNTQAqAAAACAAFARIAAwAAAAEAAQAAARoABQAAAAEAAABKARsABQAAAAEAAABSASgAAwAAAAEAAgAAh2kABAAAAAEAAABaAAAAAAAAAJAAAAABAAAAkAAAAAEAA5KGAAcAAAASAAAAhKACAAQAAAABAAAFHqADAAQAAAABAAAAuAAAAABBU0NJSQAAAFNjcmVlbnNob3SHq+hfAAAACXBIWXMAABYlAAAWJQFJUiTwAAAC3GlUWHRYTUw6Y29tLmFkb2JlLnhtcAAAAAAAPHg6eG1wbWV0YSB4bWxuczp4PSJhZG9iZTpuczptZXRhLyIgeDp4bXB0az0iWE1QIENvcmUgNi4wLjAiPgogICA8cmRmOlJERiB4bWxuczpyZGY9Imh0dHA6Ly93d3cudzMub3JnLzE5OTkvMDIvMjItcmRmLXN5bnRheC1ucyMiPgogICAgICA8cmRmOkRlc2NyaXB0aW9uIHJkZjphYm91dD0iIgogICAgICAgICAgICB4bWxuczpleGlmPSJodHRwOi8vbnMuYWRvYmUuY29tL2V4aWYvMS4wLyIKICAgICAgICAgICAgeG1sbnM6dGlmZj0iaHR0cDovL25zLmFkb2JlLmNvbS90aWZmLzEuMC8iPgogICAgICAgICA8ZXhpZjpVc2VyQ29tbWVudD5TY3JlZW5zaG90PC9leGlmOlVzZXJDb21tZW50PgogICAgICAgICA8ZXhpZjpQaXhlbFhEaW1lbnNpb24+MTMxMDwvZXhpZjpQaXhlbFhEaW1lbnNpb24+CiAgICAgICAgIDxleGlmOlBpeGVsWURpbWVuc2lvbj4xODQ8L2V4aWY6UGl4ZWxZRGltZW5zaW9uPgogICAgICAgICA8dGlmZjpSZXNvbHV0aW9uVW5pdD4yPC90aWZmOlJlc29sdXRpb25Vbml0PgogICAgICAgICA8dGlmZjpYUmVzb2x1dGlvbj4xNDQvMTwvdGlmZjpYUmVzb2x1dGlvbj4KICAgICAgICAgPHRpZmY6WVJlc29sdXRpb24+MTQ0LzE8L3RpZmY6WVJlc29sdXRpb24+CiAgICAgICAgIDx0aWZmOk9yaWVudGF0aW9uPjE8L3RpZmY6T3JpZW50YXRpb24+CiAgICAgIDwvcmRmOkRlc2NyaXB0aW9uPgogICA8L3JkZjpSREY+CjwveDp4bXBtZXRhPgqtaoToAABAAElEQVR4AeydBbwUVRvGXxqku0UapVREQUQQCaUFCyUsUBQDDEQUkRQRFT9URAVFpFu6Q0pKUhokBKS74TvPuZxhdnf23r0bd3cvz3t/e6fOnDnznzP1zhtJzl+8ck0oJEACJEACJEACJEACJEACJEACJEACJEACJEACJBBEAkmDWBerIgESIAESIAESIAESIAESIAESIAESIAESIAESIAFNgIpHdgQSIAESIAESIAESIAESIAESIAESIAESIAESIIGgE6DiMehIWSEJkAAJkAAJkAAJkAAJkAAJkAAJkAAJkAAJkECSa0oSM4Zjx47p3cucOXNi3k3uGwmQAAmQAAmQAAmQAAmQAAmQAAmQAAmQAAlEFAFaPEbU4WBjSIAESIAESIAESIAESIAESIAESIAESIAESCBxEKDiMXEcR+4FCZAACZAACZAACZAACZAACZAACZAACZAACUQUASoeI+pwsDEkQAIkQAIkQAIkQAIkQAIkQAIkQAIkQAIkkDgIJI+U3Th58qQg3GSSJEkkffr0ehgpbWM7SIAESIAESIAESIAESIAESIAESIAESIAESIAE4kcgrIpHKBr37dsn27Ztk1OnTlktr1GjhqROndqa5ggJkAAJkAAJkAAJkAAJkAAJkAAJkAAJkAAJkEB0EQiL4vHq1auye/du2b59u5w9eza6iLG1JEACJEACJEACJEACJEACJEACJEACJEACJEACcRIIi+Jx69atsmXLFqtxyZIl027WUEhSwkPg/IULcvnSZUmePBmtTd0Owd69+9zmxEzmzJlDUqRI4biMMxMvAVhqnzkT88EkzS1pJFnS4IXKdak7TWrBtZFCAiRAAiRAAiRAAiRAAiRAAiRAAtFKIHhvzH4QSJ48uRQpUkSqV68uWbJk8aMGrhIsAi+2fEXuvvd+eaRuQ5+rLFm2nJQodae0/+Ajn9eJtoL//XdIqtWs7fhbumx5tO1OgrW35SuvSbl7K+nfpMlTXbZbvmJla9m+ff+6LAvlRLD667I/V+hzBefLhAm/B7XJG//eZNX927ARQa071JWtXLXaOq71Gj7usrkfB/5sLfuocxeXZZwgARIgARIgARIgARIgARIgARJIvATCYvGYJk0aKV68uBQsWJAWYxHSt5QRV4xYI3E37PLly8pSVeSKGiZWSZI0SWLdtZDu1+nTZ+TU6dN6GxcuXnDZ1okTJ63pSwnYd4LXX83JInJN/QVTYPFoxD5u5kXy8OLFi9Yxt8fsRZvPnTtvLTt73Vo0kveFbSMBEiABEiABEiABEiABEiABEggOgbAoHm+99dbgtJ61kECICWTPlk22bFxjbWXipMnyznsfWNMcIQESIAESIAESIAESIAESIAESIAESIAEScCYQFsWjc1M4N9oIDPlloFy5clVy5sgebU1ne29CAuyvN+FB5y6TAAmQAAmQAAmQAAmQAAmQAAmElQAVj2HFH90bL39PuejeAbb+piLA/npTHW7uLAmQAAmQAAmQAAmQAAmQAAmQQAQQoOIxAg5CMJtw5MhRGTt+goqpdk7eaPOqS9UXVObqYSNGyV9r1qqs4lulUKGCAmXME40fcynnbWLBwj/k702bPRaXKF5MqjxY2WM+Zvw6ZKgcOnxEZcpOJa++0sqxDGbu+me3jB03QS9/oFJFubf8PV7LBrJg9549Mm36TNm6bbtsU78rV65I/vz55J6775LGjRpKhgwZAqneY11kC1+yZJks+OMP2b17rxz876CkSJ5CJVUqLMWLFZUa1atJAR9CDyCRzfgJE2Xfv/+qOg5J+nTpJEf27FKmTCmp9lBVXZfHxq/POHnqlPw2dLisXbde/v13v1y6dEmyZc0q+fLllQcffEAqV7pf0qZN6231sM4PpO3+9Ff7zq7+a41MmzFT1qxZJxcvXZTy5e6WmjWq24vEOo4YjVOnzRDUs2nzZjl69JgULVpESt5xuzR56klJly5u5jt37pLfJ0+RP5ev0Jm0S5cqKZUfqKT7jbeN79r1j8ydN1/WrF0nBw4elGPHT0i+PHn0trF+7UdrSZIksccuXfjHYlm+YqUu1/rll9T+X5Jhw0fKYtWXUWeWzJn1frRo9qw+f7y1xZf5iL35+ltvS8P69eThalUFSccoJEACJEACJEACJEACJEACJEACiYMA3/ASwXG8evWqUggslZGjxsqsOXMFL/LVH37IZc8OHT4srV97UyufzIJt23fIjJmzZdbsOXL+wnkz2+vw90lTZMLvkz2W169b26vicf3Gv2Xc+Il6HSgnoXRxkhEjR8tPg37Ri0JhmQYl0JDfhknvL/rK+fOu+7pp8xaZOWuOfNm3n8yeOUUQ1zFYUr1WHUFmbHfZoLhAvvnue+nZvYs8UrOGexE9fUUd2zfbvqOPk1OB2XPnSd//fSOb1v/ltFiW/blcXm3zlpXYwxTCsVfaLBk9drxWULd59WWzKGKGgbbdn/5qdh79sXPXHloxbeatX79Rfv1tuDR95mkzy+vw0KFD8l6HD2XR4qUuZaDwnjJ1uqD+vl9+7vV8wEr4OID+cVwpDo2g3wxX60Lh9377dyRZ0qRmkR6OHDVGPvzYM2s0FJgLFy3WZSb8Pkk+79UjViX7H4sWyaBfhujy+DDR5s12gozbRlAfslhDITpx3Cgz268hlP+z58zTv2xZs0ijxxrIE4838kkh79cGuRIJkAAJkAAJkAAJkAAJkAAJkECCEaDiMcFQB39DUGiNHjtORo0ZJ/v2/euyAXcLNiifYPEGuVVZ+MFKDlloZyql47I/V7is622iXLm7BEpOI79PnmpGvQ6hlDSKx0mqvJPiEUrByVOm6TqgeLj//gpe6/N3wedffCU//PSztfr9Fe+TO26/XVl0KQXP1m1acQvrRFgDBlNMfbAuLFumtFKm5JdkyZLLVrXNmbNmayu2N956R77r95Wy9nJVFqMdgwcPsZSOWbJklrq1H5W8efNoZdSOnTtl/vyFSmnsmjXatB/H9w2ltDTZpbHPFe67V1uU7d27T1asXKX3/dq1G8cU606fMUvmKIu5+Eq7N1+XnDlzxHc1x/L+tt1emT/9Fesv+GORfNS5q64qqcpqXv3halK4UCFZv36DVt79rI5JbHLmzBlp9OQzcvDgf7oYzreqVR7UFo6rVq+Rpcv+lN179spzL7SSGVN/l8yZMzlWh/MaUqZ0KalY4V5t6YpjA2vmX379TVutvtzqRZd1YZkIgdUgFPiFCt4muXLmlKPHj8kspVzfo477PNVnmj/fUsaPGaHLxvWvc9fuWumYKlVKKVa0qORT/W+fspzdsGFjXKv6tBzWl7fckkbOnj0nh5XF9oAfB6lzdZDcV768PPlEY2Vl+rCkTJnSp7pYiARIgARIgARIgARIgARIgARIILIIUPEYWccjztbAAm7Bgj+UdeMYpUBYIJg2gpd3WM7BYshuNbhk6TLtdolypUreLj8P/EEypE+vV3ul1UvStMULWhFi6vE2fPrJJwQ/I5OmTBWlM4xVKlS4T1kQZtXu1lOmTpP33mnr4eYJyym4b0JqP/qIhxVXrBvwYSGss4z1FlyUeytrr2oPVXFZc/uOHdJJKZuSK6VgMAVKk+pKofhg5Qc89hvWYs2ff0kpc68pa8/BjorHqdNnWs3p+0Vvue/e8tY0Ro4fPy4TlSWqkyxVFo3Hjh3Xi+4tX05+/mmARzG4cLt73a5bv95SFnusEMuM55s3tRSP/fp+oRVkKJ4tu6sF6bzZ0+SqSkoEyZMntx66//O37fZ6/OmvWP+7/j9Y1Xzao5tyAa5rTX8/4Cfp89XX1rTTSP8BP1pKxwZq3a6fdJLUqVJZRWHZ26v3F3Li5En5ou/X0rVzJ2uZ+wjW79WjqyS9btn49JOPy/MvvaLZQgHaokVTl7qhFHz9tVfUefq4ZFeu+HZ5t91b8nLr17XyFNaLUIBCER2XLFi4SO6+q6z06f2p5FUu20ZiLKZnmUl9zZkzI6YvuisKX3iumTzWoJ4umz59OmsdjKDs4gVzdAiEMePGa4U4rivoA/hlypRRrwslJBTAFBIgARIgARIgARIgARIgARIggeghEFwtS/Tsd9S1FLH9xii32NFjxltKOuwElEZQMjZq2EAeqVVDWQ7d4rFvvyoXYyPt3nrDUjpiXq5cOeW11i9L+w8+MkWCOoQraB1lpQclyf4DB2XV6r+knIqnaBdYQhqpX6+OGQ3aEK7IcD+HvPnGax5KR8yHQuO3wYMwGlSJTamEOJb3KqsuKIDWrF2rrUmNgsk04uB1hSyUyvc4JPPJlCmTNG/6jCnuMrS7eHuLwVnhPldFJiqAhRziT8ZX0qg2GsmqLFe9SZ7czspGe3l/226vw5/xTSqGKRThkLvuLOOidMS8Vi1fkBGjxwgsRp3k8JEjSsn9q15UWMVQ7d7lYw9rveeUghZlsI+Ia/rxhx84xjVMkSK5dHz/XUvpiErvvutOaaDOEbhbHzl6VKapGJINryv0sByWlfg5CawgW7/S0nK5xrnoi+IRir+fBnznEQe0SOFCUqTwjbitqB+WvU4CC2x3K2x7OVy38MEEvz179so4Fc90rArRgJikcDXHhwP8sP9Qqj7ySE0Xhau9Lo6TAAmQAAmQAAmQAAmQAAmQAAlEDgEqHiPnWDi2BPHPWikrpUWLF2vLOFMIlmKNGtZXlkD140zusGPHTr0aXDrvr+jpxgyFZcdOn1jKObONYA3hbm3cU2ElaVc8Yv+QwANyW4FbtVtpsLZr6ll/3SUUChQoLcIlJ06ckP37D2iFEdzLIcmTJ9PDS5cua7drd2uw3EpJB4Ut3FAHK/fa5iq2n3tcP12Bw788uXNZc+HujqQidos1a6HbSNNnmwh+4RR/2x5om3co61gjUJi7C9yC4e4Oq0YngeLy4sVLehGSBsG1+obEHHNMw3161uy5yrX/sk50dHuJ4jeKXR+rXKmSsvbzdMOuU/sRrXhEse3Xz22PldUMKNvh7r3/wAErrunRY8esovbYkdZMh5HnWzSLVWnosEpAs5DsCYmxXn+ttY5ROkYpZ+FijtisUJbi161HL2mjLDuhxKWQAAmQAAmQAAmQAAmQAAmQAAlELgEqHiP32OiWQXmwUMWcM3LbbQWky8cfapfbuDLTmnVgNQSBpZm7RR3mp0mTRseLM+7OmBdMKVWqpKDdyLY7bdpM+fCD9y3lGbLkItsvpJ5SUAZbEGPRxL8sVLCgh/VZsLfnXt/Zs2d1JnEoXk3MP/cyZtpYZZppDB9Vll1QtEB69vpcBvwwUFu4whqvnMqyjCzF3vrBnWXLaOtFHFe4xVavWUfuUMl97rnnbilburRUUrE0M2bMqOuOtH/hajssi43ky+tsvQfFmDdBHzeCOJm+xMpEKAAnxaO37ditCvfvjzm3zTYxRDZrKEaR2Rpu/N7k0uUYBam35WY++lg4BP0aFpn4df7oA+3+36X7p7opyHaOUAVUPIbjyHCbJEACJEACJEACJEACJEACJOA7ASoefWcVlpJ4+UaCC6NAgGKjc5fu2iWxQb26Vkw9b407efKklXwE8Q29CVxjQ6V4xDbr160jX/f7Vlv7LVUxJyvdX1E3BRaQRuqpMsEWJMEwcTC9xRMM9jZNfVA6Ptv8BTEZrDEf7qiIeZnqesw/ZBs/c+asXuXylRh3cLM+hrA8RLKSQT//qmMCavdaZSFqrEShhOrZ7ROP2I9YF+6r/b/9Wj79rI925waHdSpBCn6QZMmSSeNGDbQi2B6DUC8M879wtd2uHHa3PjVIsmbx7kaOpDFGkAworUPoA7PcDJG0xUmwvpPYt3/wv5gENqbcxEmT5d32H7jEXs2YIYOOk4hryWVlYWzcxK9cvmJWi3XoTQEb60pBXLj6rzXK7XqCTJky3aVW9F8KCZAACZAACZAACZAACZAACZBAZBMIm+LxgHL/g2LGiH18165dLpZpBZWlmjerLrN+Yh0i8cJslbBhtMpwO1rFeIRiBO6gn3/RV75QSS4qVawojymX6+rVqznGPIMCxygur1z1rmhAptxQSr26j2rFI7aBmI5QPF5Q2ZiR2RkCqyq4Wgdb7MrW06dPB7v6WOtDZl6jdIQFHxLrwM3c3pc/+PBjfVy9VQS36ldfaSXNnn1G9YGxskLFH0SyoNOnz+hVoER6oeUrMnniOEd+d9xeQgYP+kEn7JiskvusXLlaNm3eoteFm/vIUWPlsnL3/VQlMDEydfoMdVzmmEmfh++93VbHDPV5hTgK+tP2OKqMc3G6dGmtMleuJ8CxZlwfgcuvN7ErKzt36qiTPXkrG9f8c+ect2PffjrbxwQoqD/s1EUrHdFv2rV9Q558vJGLVSvcrqtUqxXXpl2Wp7UxcVkQwgm0c8LESTrOo92KFJtEnMenVKIZWANTSIAESIAESIAESIAESIAESIAEIptA2BSPUC4eOnTIkc7WrVtd5hcoUEBbZ7nMvIkmEJfvzddfUzHNWsv8+Qt1Ruv5CxZqS76FixbrZBFQsD36aE1p1KCB3H33nRYdWNhly5ZNJ7I4fOSoNd995PDhI+6zgjqNeHdly5TWbqBQanXp/JEgW65RoIUiqQx2AJacyOAN10xj6RWsHYMbd2wybfpMvRgWZz8O+NYlqY9Zb8/eGxZyZp7TEAqt559rrn9QPM1QCtt+336v3dcRJ3DYiJHS4b13nFbV8+5Rbtn4QbZu2y7Dho+UIUOH62kk8ujYob0YpdkGFRPTnvBHF/LhX6sXnw+q4tFsMj5tN+v4O7QnvjmiEsU4CaxUvUnB226zFgV6Tnnf/o122du7YOEfVizHV1XCqJbqeLgLErdEqqBfT585S7tUI+GSsfJGexGftWH9eoLM1khqQyEBEiABEiABEiABEiABEiABEogOAmFTPNqtvuJCFZ+ycdUVzcthxVTtoSr6B8vHMePGyyhlCYkYhqeUNR+s1/CD5WDrl1tqS0jsL5QTyKC7+5/dWtmbPXt2FwyblQUcFHOhFiSZQfw5bAtKkkmTp+hNYr+Q+CRUUkDxgHvx9h07BMk/Sjgk8vB121ky33B/Xbd+vWOGbFOXcV3Pf2s+R6Uj3OBN4huzji/D1KlTa9d1KKSbNH1Or+JuFRZbPUWLFJZOH3bQcR+h4EGem39275ZSJe/QqyGhTamSt8dWheOyW9J6ZlR3LBjAzLjaHkDVelXsu5EVK1epjOyPmElriNiC3gSxTI0s+3O5NH3maTMZ7+HyFSsd10G7jNjDBxxQSYiMlC4VcyzNtBkuXrLUjEbMECEAPlLJrWBpa8IOmMZVuLe8VjbWrPGwixW8Wc4hCZAACZAACZAACZAACZAACZBAZBMIm+Lxvvvui2wyEd66nDlzaBfcV1q9pDJeL5WRo8fI7DnzdCbbXUrBOHP2HEvx+FDVB+WvNWu1heTI0WPlNWUNZZchw2Is3+zzQjFe+9FHpMenvXU7RowaI0uX/qk3U7HifSruYbZQbFLX2aB+Xa14hILtsz5fyoDv+ulYi+4bRBIXuPdCsedN7Ak/YlNAYX0oeM+c+Uc2bvxboBTKlSunS7Xf9B/goWhxKaAm4HKaO1cu99l62l5fqpSpPMocP35cUqvEQd7iN9ozR5uYk6jk2SZP6Z9HhQk4w9+2B9rEcspaGBaqJ5RSGFaf7d56w7IERd3/qmQuc+ct8LqZ21X/KVasiGzZsk1mKOs9KNph6esk51WoAWScR59zEpzHixYvseKhogyUdKPUuQ5RIRulyoOV9Tj+2T8ozJ47T6pWedBahhF8fPhFZUaPNLmsLIcRRsIIYlg2eqy+PPF4Y8fwAaYchyRAAiRAAiRAAiRAAiRAAiRAApFPIGnkN5EtjI0AslRXfuB++d9XfWTB3Bny7ttvSYFb87usAkXSLbek0fP+98132sX21KnTOps0Er6MGBmjyHBZyW0CVopQgtl/UORBYKVkn49xpwzNcHu+/3pSmXnKZRyKFwgSz4RSsP/FihbRm/hj0RJtJbhq1V/aLRVtQBzGTp27qvkt5OixmAzb3tqTP18+KV6sqF68fMUqefrZFjJ5yjSBJRl+sGI0UlJlkIbAZRQJgWABB8URMidje0gYE5fUrveY2kZz7X4KV/Gran0o5ZBc5o23brhWV65cyaOqceMnygMPPixdVSZgKJ7h1o71sb//+6a/jJ/4u14nt1KIRpr7aqBt97e/IibqM6q/QKB8fO7FVrJl6zbdn6FEbP7cS459W6+g/sF6t1PHDnoS50czVX7goF/0Mb+mZqB/IFlKz88+l8pVqksfFas1Nnmz7bsyb/4CHQ8Vls3t3n5PWcn+rVepVrWqy3GzKzChNP1t2AiBWzhcmGFh3PipZ+JUdMfWllAuQxzaBypV1NexhfNmqutYWyodQwmcdZMACZAACZAACZAACZAACZBAAhFIol6Gr6uPEmiLCbyZY9cVSZltLrIJ3IQE3xwOKbIfZ8ua1do2lBBduvVwyXZrFqZIkVyuqkQaUIrBCm7e7OlmkTV8r8OHMn5CjKLKmhnLyMAfvlOKhPs9Skz4fZLKutvRmg9rvCV/zJW0aW8k9bAWBnEELs1t3mirLNYOxFrrvNnTtGt6bIVghdaqdRtBbEV3GfDd/yxLM1is1X/sCSvuHsoiEy+SukBgWQfrOCgwIYsWzPaw/LyrfEUXZRGOFZS69rO2TOlSMmTwQA/LxkE/D1YKrj66bvMvZcoUcvHijdiUsJrr++XnASVBMXUHcxho2wPpr1DsIhs5YmE6CSxiTYKXnt0/kcaPNfQohvib33zbX59THgttMyqrc+Qnda4YQT9t9EQTPWnfjlluhrAK/EUlDTIKdTP/w48/0eEWzDSOL0JVmHiJNapXsxIHPf3k4zrWqilrH/bs1VsG/TJEz3Lql/aywRiHgjSUVs/BaCPrIAESIAESIAESIAESIAESIAESiD8BWjzGn1nErwFFg13piAbD6u/rL/toZZd9BzJmzCB9v+gt99wTk3gkqVKMOQksueIjULA5SY2HVfZtmyszYlaGWumIdiB+4eSJY+WpJxt7KOiwHBxeeuE5yaIUOnEJMnKPGPqrsjStpJQlN5S7WM/OD7E2B/3YXxCX0AiUjlAGFS5UUH4eOEDKlL7hhpssqSezRg0bSP58ec3qWtlplI5plBv1i8+3ECh5ndypSyuF5P3KjT1VqpTW+nalIzKJ//j9dxGndERjA217IP01U6ZMMvy3wUqBXFkfKwMPVnlVHnxA+vW9ocx1OmYo3+bVl2XEsF+1GzWOt7vAAvnRWjWkRYumLovs58077d6UZ595SqBstgssG0cNH+KhdESZD1WSoBdUEiJTD/oKlI7I1o14k716dLP2yZSx123Gk9r6ord9NGWDMaTSMRgUWQcJkAAJkAAJkAAJkAAJkAAJRB4BWjxG3jEJaYtgDblj504Vg26rFCpYUFncFdUWUSHdaIRVDndjZJPetn2HtvSEYq+QUgSmTHlDQRfMJsOSdOfOXfoHpWvZMqUkg7J2jI/AfR2utsgEnyJFCsmbN692qYdrcFxyAbEE1fb/++8/5ep7SnLkyC751Pp58+aJa9WwLw932xGSYO26ddpKFPEf43vcAPDcuXOyTVlP7lYZpdNnSK9jdiIcgq/9DdaVcJU/e/aclFF9x/2jgtNBgtUmLDYPHTosRVWYASi6EZaBQgIkQAIkQAIkQAIkQAIkQAIkQAIJSYCKx4SkzW2RAAmQAAmQAAmQAAmQAAmQAAmQAAmQAAmQwE1CINErHm+S48jdJAESIAESIAESIAESIAESIAESIAESIAESIIGIIkDfu4g6HGwMCZAACZAACZAACZAACZAACZAACZAACZAACSQOAlQ8Jo7jyL0gARIgARIgARIgARIgARIgARIgARIgARIggYgiQMVjRB0ONoYESIAESIAESIAESIAESIAESIAESIAESIAEEgcBKh4Tx3HkXpAACZAACZAACZAACZAACZAACZAACZAACZBARBGg4jGiDgcbQwIkQAIkQAIkQAIkQAIkQAIkQAIkQAIkQAKJg0CiVzweO3ZM8KOQAAmQAAmQAAmQAAmQAAmQAAmQAAmQAAmQAAkkHIFEr3hMOJTcEgmQAAmQAAmQAAmQAAmQAAmQAAmQAAmQAAmQgCFAxaMhwSEJkAAJkAAJkAAJkAAJkAAJkAAJkAAJkAAJkEDQCFDxGDSUrIgESIAESIAESIAESIAESIAESIAESIAESIAESMAQSG5GEnp47do1OXr0qJw+fVrOnj0rV69elbRp0+pftmzZJEmSJAndJG6PBEiABEiABEiABEiABEiABEiABEiABEiABEggSAQSXPEIBeOmTZtk3759cv78ecfdSJ8+vZQsWVKyZ8/uuJwzSYAESIAESIAESIAESIAESIAESIAESIAESIAEIptAgrtaX7lyRbZv3+6idIR1Y/LkN3Sgp06dkmXLlsmRI0cimx5bRwIkQAIkQAIkQAIkQAIkQAIkQAIkQAIkQAIk4EjghrbPcXHoZqZMmVIKFSokOXPmlHTp0knSpEnlzJkzsm7dOjl06JDAFXvVqlVSrVo1SZYsWegawppJgARIgARIgARIgARIgARIgARIgARIgARIgASCTiCJUvBdC3qtsVQIV+s9e/ZIvnz5HBWKsIicO3eunDt3TtfywAMPSObMmWOpMfZFx44d0wUCqSP2LXApCZAACZAACZAACZAACZAACZAACZAACZAACZCAO4EEd7WGZWOBAgUclY5oHKwbYQVp5MSJE2aUQxIgARIgARIgARIgARIgARIgARIgARIgARIggSghkOCKR1+42I0w7bEffVmXZUiABEiABEiABEiABEiABEiABEiABEiABEiABMJPICIVj8Y9GniyZMkSfkpsAQmQAAmQAAmQAAmQAAmQAAmQAAmQAAmQAAmQQLwIRJzi8fDhw3Ly5Em9E0g6c8stt8Rrh1iYBEiABEiABEiABEiABEiABEiABEiABEiABEgg/AQiSvF4+fJlWbt2raaSJEkSKVu2bPgJsQUkQAIkQAIkQAIkQAIkQAIkQAIkQAIkQAIkQALxJhAxikfEdVy9erWcOXNG70ThwoXpZh3vw8kVSIAESIAESIAESIAESIAESIAESIAESIAESCAyCESM4nH9+vVy4MABTSVr1qxSvHjxyCDEVpAACZAACZAACZAACZAACZAACZAACZAACZAACcSbQEQoHrds2SK7du3SjU+fPr2UL19ekiaNiKbFGyhXIAESIAESIAESIAESIAESIAESIAESIAESIAESEAm7dm/nzp2yefNmfSyQSKZChQqSIkUKHhsSIAESIAESIAESIAESIAESIAESIAESIAESIIEoJhBWxePevXsFLtaQVKlSaaVj6tSpoxgnm04CJEACJEACJEACJEACJEACJEACJEACJEACJAACYVM8Ip7jX3/9pY8CLBxh6Zg2bVoeFRIgARIgARIgARIgARIgARIgARIgARIgARIggURAICyKx0OHDsnKlSsFmayTJ0+ulY4ZMmRIBDi5CyRAAiRAAiRAAiRAAiRAAiRAAiRAAiRAAiRAAiCQPKExnD17VpYvXy5Xr17Vm0YG6yNHjuifU1syZswo2bJlc1rEeSRAAiRAAiRAAiRAAiRAAiRAAiRAAiRAAiRAAhFKIMEVjxcuXJArV65YOA4ePCj4eZMCBQpQ8egNThjmz5u/QHbv2WttOYkae6bJU5IsWTJrnreRY8eOy++Tp7gsLlXyDrn7rjtd5nmbCGTb3urkfBIgARIgARIgARIgARIgARIgARIgARIggdAQSHDFY5IkUFX5LvEt73vNLOkPgSFDh8uChYtcVn2sYQNJly7u+Jx7VDKhbj16uaz7fIumPiseA9m2y0Y5QQIkQAIkQAIkQAIkQAIkQAIkQAIkQAIkEHICCa54zJQpk9SrVy/kO8YNkAAJkAAJkAAJkAAJkAAJkAAJkAAJkAAJkAAJhI9AWJLLhG93uWUSIAESIAESIAESIAESIAESIAESIAESIAESIIGEIEDFY0JQ5jZIgARIgARIgARIgARIgARIgARIgARIgARI4CYjQMXjTXbAA91d9yQyCNnpa9jOpEk9u1uSJJ7zvLUxkG17q5PzSYAESIAESIAESIAESIAESIAESIAESIAEQkMgyTUloak6Mmo9duyYbkjmzJkjo0FsBQmQAAmQAAmQAAmQAAmQAAmQAAmQAAmQAAncBAR8Nze7CWBwF0mABEiABEiABEiABEiABEiABEiABEiABEiABIJDINFbPAYHE2shARIgARIgARIgARIgARIgARIgARIgARIgARKIDwFaPMaHFsuSAAmQAAmQAAmQAAmQAAmQAAmQAAmQAAmQAAn4RICKR58wsRAJkAAJkAAJkAAJkAAJkAAJkAAJkAAJkAAJkEB8CFDxGB9aLEsCJEACJEACJEACJEACJEACJEACJEACJEACJOATASoefcLEQiRAAiRAAiRAAiRAAiRAAiRAAiRAAiRAAiRAAvEhQMVjfGixLAmQAAmQAAmQAAmQAAmQAAmQAAmQAAmQAAmQgE8Eku+99o9PBaO10JY9m3TTi+UvEa27wHaTAAmQAAmQAAmQAAmQAAmQAAmQAAmQAAmQQNQRoMVj1B0yNpgESIAESIAESIAESIAESIAESIAESIAESIAEIp8AFY+Rf4zYQhIgARIgARIgARIgARIgARIgARIgARIgARKIOgJUPEbdIWODSYAESIAESIAESIAESIAESIAESIAESIAESCDyCSQPVxMvXrgoJ46fkLOnz8oFNX7t6jVJkzaN3JL2FsmaPYskSZIkXE3jdkmABEiABEiABEiABEiABEiABEiABEiABEiABAIkEBbF48olq+TY4aNem55GKR+L3l5EcuTO4bUMF5AACZAACZAACZAACZAACZAACZAACZAACZAACUQugbAoHi+cv+BCJFnyZHJVWTxeu3pVzz935qysXblO7ixfVrLlzOZSlhPRSWD/3oOODc+eM6skTxG6bnjt2jU5d+ac3naqNKkkWbJkju0I1cxTJ0/L6ZNnPKpPrdqSOWsmj/kJOQOWxlcuXdabTJEyheBHIYFwnatO5C9fviIXcb9QFvC3KIv4UMqli5cEv4TYVij3g3WTgC8E4G0CSZkqZUjvwb60JZLKRPJ90VyjkiZLKqnTpI4kbGwLCZAACWgCkfQMGd9DEq62h/tdFZzCte/xPUYsH90EQqfxiYVLugzpJGuOrJJdKRUzZMogyZMnlytXrsjRw8fkwN79cvBfpaRSCqP1qzfIgzUrS9KkDEUZC86IX3Tkv6PybK2Wju3sNaCzlK90t+OyYMzc9vcOefmJtrqqNh1aSqOm9YJRrc91DOjzs0wePcOj/B1li0u/ob095od6xu6de+X7zwfJ32u3yPGjJ6zNVa9bRT7o9bY1Hc0j61ZtlA9ad9G7kDNPDvlx3NfW7owYOFaGfD9STz/0aGVp1/k1a1liHcH+Dur3m969IVMHSO58Ob3uajjPVadGDfrfEBn24xi9aNS8n3UYDqdywZjXq2NfmTNlga5q0rLhcku6W4JRbZx1RFp/xcPnlo3bZMuGbeqD4FXJVyCPFCtZVHkhFIpzX1gg/gTw3LN7x16vKxa9o7CkDXJf3LtrnzSv01pv8/HmDeTV9i963f7NsCBa7os92veR+TMWS6rUKWXqytFRc2ic+niO3NkkV96cfL6PmqPIht7MBGre2Ui/p9es95C07/GWVxSR9gzp3tDDB4/I3n/+1bMLlygo6ZU+wkg42x7ud9Vw7rvhz+HNQSAsiscy5Up70IUlGhSR+J1XFi4njh6Xy5cuKWux01o56bECZ0QNgSRJwxevE1+RjNjHzbxQD2GZECmCG+4rSgl7/pyrxTHaZ8MUKc31ux2wCjlz3Zrn9KnTLvXg2mKWnTt73mVZYp2A8ggxdCEYj03Cea46tuvG6as6qWOJ4M20nQSh3pS90ZHSX/fvPSAfvd5DdmzZZW+eNV6uYll5+Z3npUiJ0CggoZwY/tNYvb3KNSpK6bvvsLadmEcWzlwifbv197qLn/b/WO6tXM7rcn8W2Lq6uvYnZG/3p7WhXSdc98XpE+bI9k07leViKnnhjaY+7aR1qKLskP0xa4l81dWzj8PbJe+tueX2MsXkpbeaS5ZsmX3iEK2FbtZrXLQeL7b7BoErly/r9wQYCcUmEfcM6dbY3h99LcsXrRa0c/Dk/i6Kx3C23X4fto+7NT9kk+Hc95DtFCuOSAJhUTzGRSJz1sxa8YhyUBzAKpISvQTwMDlnw0RrB2ZNmic92n9hTSfmkbadXhX8jDR79GXZt3u/mUzQ4fCBYyyl4wPVK8jDtatI3gK5dRsyZuY5lqAHI0I3djOfqxF6SBKkWSvUg3jXd3vLqRM3FPUZMqXX2z55/JQerlyyRhYoa6tQKR6PHDomowdP0NvKnivrTaN4TJADzI14JRCu++LCmYtl8dw/dQgJXxWPXnciShdcVqFe/tm+R/8WzVkmbd5vKTXqPxSlexN3s3mNi5sRS0Q3gUh+hty2aYdWOoLwgzXu1x897LQjue32doZi/Gbe91DwZJ3eCUSk4vHC+RuWSClTpvTe+jAvgaXK8kUrdCtK3VWSCtIwHw9uPnYCOzbv0gWSKSvM93u0DXnMvNhbw6UJReCRx6pLmXIl9eZy5s6eUJsNynYaNasnD9aqJLCZzpzIrWGCAsyPSuBi07FNVxXfMibeaxXF+8U3m2kXa1R3YN9/MmXMDBn6Q/S4dvqBIWyrVKtdWUooiy+7DB0wShYqKzFK6Anwvhh6xvYtNG5WXx5tVF3+3XNA9imXx/kzFsmmdVv1R4+eHb7URROz8tHOguMkEC0Evvy5p/aYyZo9S7Q02aOdw6+H7cGCJi829ljOGSRAAqEnEFGKR5gXHzpwSAU4PaD3PJlyw8iYOWPoKfi5hX2798lTDzfRa/8yaZBUq514v9T6iYirRRCBg/sP6dbAYinUiToiaLdv+qbkyJVN8ItGwUNuND/oRgPz4SruqVE61lTWRu91f0vFXbsRHiNX3hzaFfT+h+4VuKVSgksgfcb0Ulz97JI1e+J2ObXva7jHeV9M2COQRfXtQsVu0z9s+YnnGqoQC2Pkx69+1Q35ud9Qeaj2gyr2e8ImAkxYCtwaCUQXgTL3xHy8jq5W32gt9Arzpi/SMxA2pljJIjcWcowESCDBCIRV8XhZxYzYs3OPjhtx6uQplVzmqJVlF5lFS5Qqzky7CdYVAt8QFMerl62VKSqZyosqXk9sSSziszVkmVy1dI0sX7hSfyU/pF5+ERvotiK3SqGiBeSB6hU9TOa91b9n5z6ZPXm+rFmxXs6qbNclShVVyW3u0nV4WwfzsW/zpv0hG9ds0nGZjh87KQWL3qoSLhSW+k89mmCJKGJro/uyuVMXusRrO3bkuC5y+NBR+alvzEO+WQcJDOB64CR//rFK4Iq5ffNOnZAm/215pXCJ26R63YfiPMbLF62StSs2qNM5iTzb6gm5pFyrfh8xVVYu+Ut9ZDgimbJklKJ3FBJYQeTOl8tp82Gb588xnzJmpv5wUkQl4kA8p7lTFupYMg88XEGeaNFQlsz7U1mPzVT9eL8UV32vVbvnNAP7Tgba39GvJwybbK/SGm/wdO2I7Kumgaa/mGkzRP95puXjPmVyhWswLPS2Kwvff7bv1usULl5QSpe7Q30cetBUGe/h1o3bZYFyj4SkTJVCmr3ytEcd/vQZj0riMWPSqOkqGdt/UrtxDb/OHySYmjRymt4iLKERw9GudLQ3pURpZZXnGZ7ZKqIf7NU1Eu5Mu7bt1h4ARVTw9vsfuk/uuq+MVc4+8ss3QwWZyyGwvDSyZN5yMS7eZh5iwcF6N5gS6LkWzLb4W1cg12dv27yqYsKO+XWCdQzue/AeKXXX7R7FE7q/2xvg73kerPuivS2+jOM+iOubkZ1b/9GjiLnsfj/GgnpPPiI54rBQX7/6b1m2YIWsWb5eLqrnJCRLwDU+rpdqf85V0+5gD5E88pmWT8jS+StUQsm/Zf++g+oZcrrUV/thF3/PVXONxD2k2StPeX2nOH/uvPymLI0heVVCrUcaPmzfvN/jwbrG+dvf/W04nlGmjp2lVy+tPCbufeBur1UtnrtMJyxEAad+60/bsc74688xSECJOKDu8sfspfoZF32o6ctPui/W07i/DP52mH6Gv+POElKxSnn9TPq7uu8hqRRyCSDJEZIN4od8A8GU+J5r8DCYrPo/pFK1+2T80Mkq2dt2/a4CJT2uCdifv/5cJ+kzppNaDR52DE+ABGJL5i/Xx+XQgcP6Wo6PiAXVOxOuD9hXnBPe5E/1voVnfnfBRwPcD8IteHaZNm6WDh/1XJtn4mzOiEHjrBjnT4fQ2jFQ7mZHouVd1Vxf/X0GNfvL4c1DIKyKR7gqb9+03YN2qjSppcw9ZSQjYzt6sInEGVCw4AaA7M3IiAppopQEwZKmj7RyeSk19UIRAPm1/wh5t9sbUqVmJbPIcYgHfZTFA40R1IEHkMbKpbP1ey86Zlg8ohR1n3b4SivLzHoY4uV67tQ/BBfej79orxRohe2Lwz4+X33dM4oSe2Pwgm8esM38h+tU8VA84vz8ptePMnH4VFNMD8ER9Y4cNF5ZR70plZXi15ss/2O1Fbft0UY1pPNbPWWryjRuZI96OEJW3zXLN8gPY/ua2WEf+nvMcR7g5cld1q3cKJvXb1Mx8hZZipadW3fLLvX7dkQfl+KB9vfjKjHXD18OdqnTTDyozpGEytZsthmfob2/uK+HF+rU6t4Qm2xQ7Lu+01v+Uw/adsExmTB8is5ajYyM9kyG9nLexlFv+5c7648V+OiB891d/O0z7vXEZ3q/clccpqyFhv4wSu6uUFbqPF5LoORGG32RRXOWCl7oIRWr3iuZs2byZTWPMtPGz5b/df9e3BM2QSEydsjvyqrpMZ08wt2K6df+I62XAXuleKnCzy5ly5cKuuIx0HPN3r6EHg/G9dmpzUge0FPFYJ6jPlxBoDTGRyN3CUd/N20I5DwP9L5o2hDf4Vr1sdP9vos6kPDLaX65infGqnjEfnR55zMrcRjqgoICH1Y7f9lBKlRxVg74e66i/lDKY8/Wte6deL5wVzz6e65CETDy5/G66fgAhVASToL4teY4QEEZLAnGNS6Q/u7vfqRLn05xG6et4QsUXupV8YiPD998+qN+9keipCYvuT77+9t2XF9g/QpJmTKFo+Jx7tQF+hkc+jNviseLKqHgkO9H6nqgFD2nPsx2e/dzPW3+4VkMH7vwfIH7Z7DEn3Nt3+5/rX5o+iPag/cNGExky5FVPzObNsLYA1bz9vMdiss+H39jilhDPG8jsQpk1u/zpEOvdl6fhXAdmanKuEv1ulXCpnjEB7FVymgB+4eYsFAq+3K8YHSBZ3NIMfWehmtrKCQY3NGuaHpXDfQZNBTHgXVGNgHf3k5CtA/42pJC3VAgsITSpo9q/IL68rh53SYpU76spE6dSi/nv8gigBvACvX1fpK6ASxRAdKvXLlqNRAvl+a4WjMDGEEAckhu9VUSXz3zqIQo+Cq5SynAFs5aqpUBn7TtJV3/11F/IfS2KViaQUqULqpfpqCAwwMuLA7G/Pq7funGl3e7wHqs9ZPt5PB1a5w8+XPpGzyUNxtWb9IWnohV9M6LH8rgKd+r0ACRk6QFX6jt7ZmhsmhCyQArQ3dlIb4Eu0v/zwdZSke4ZldSD2TZlOvr5g1blQXqWp0d+uM3e0q/ob3ljrLF3Vf3mEbmVigdYS1WqOhtklN9fYW11pYNNz4+4KW3T6d++uu0RwWxzID1YMNn6sRSwvdFwTrmSNxToFB+nUAAW58zZYFWbFd95AFZt3KDIND8pvVbdbIhWHMZCbS/p02XVqBINgILNATwjwaBVeIF9aJgBApDYxlk5nkb4nx+W52HFy9c0kWKq6/6UFYhizmSOODhE8NuSjHZa8An3qrxmA8F2AevdtHXiVSpUurrzD3KStouweoz9jp9GU+jzkuIevdTH0bW6F8mdQ2qqax16jSuKfkL5o21GlhXGIHltz8y+pcJ8u1nP+lVkRnxgWoVlBtlATmqeONl/oSyDh+prA3A7vnXn3XZRP2nH5Ur1y0ecXxgwQLBNRrW5HbJXzCffTIo44Gea0FphJ+VBPv6jGaAR5e3P7OOQwVl2dL5q/fVNTulSyvD1d/RiEDP80Dviy4g4jFRXPVpKD6MLFXWSPDewDlTV30wcJccubO5z7KmcR/v3r6PpFGKEoRAwH0eCoXdO/bq69/3fQYp5UA5D4umQM5Va+MhGrFbRR/8NyYsjH1T/p6rtR+vaSkepyrlgzfFI5REECix8JE0WBLoNS7Q/u7vfiC5WOWHK+oPEHh+2LRui7oue1od4qOqMTjAs409jE+42u5tn3cpDwgkt4Qg/Ays966pv20quzzaGkwJxrmGa0NVpShfqxijfeCMH54XCxSOebbEvX/OlPkuikcTOgXvYnCRzn9bPkHCNtyLcY9FHUuVpfQ7L3wo34/+ynG3S919h/oooiq/LlBEhkuw71PHzpQp6md/ZkF7zDNQbG0b8+tE67nQXTEe23rxXRYM7thmNL2rGv7+PoPGlzHLRz+BsCoe8XWpSq2YF2R89UUG6x1bdsphFefx5PGTsvyP5eqhqmLQTd+j/7CFbw8OHTysL4q4Cfy339WqCG51tdQLb/W6VV0UXoG2FkoyuBzcW9nzQRoWNe1e6Ki/+uPrLMrFJgha3t4WwwwvAu+27KSVCqMHT5TGzRvoF2RTx28DRlpKR6zbrvNrLsthvv+9UtCdOnlGu0theaQIHrjxM7Js4Qp9zKCMaPvxjUzbZrl9iBu9cfeAO8fnP3Z1segc9uNoy6oOrkS+KHLgulFSKTg/7P2O5MyTw9ocHmqR4RMCJYR5AbAK+DAC5ZJRPJa5p5T8Nv0HvRa+lNsF7s4161fTs9Klv8W+yBoPxjHHw/fA8f20Av6zjn2tfXq1/YvSqGk9gRVG8zqt9TZh8WlXPAba3/ES2vGzt639GfzdcMtywJoZoSPYd7tS/IcvfvFZ8ThU9UmjdITbR7vObSy34WatD8vb6jqx75/9+gV941+bxEnZ7o4Fbqwfv9FDK+xxTHt820k/yLuXC6TPBNJfYeUBS4fp6qV51qT5+sUCYSCg6MMPLx2wgqxS834P5RH2AYp/I1n8CBoPd6ef1fkPSas+xvTs/7GLS27z1k/LW807aOX6iEFjtcWiPQTHGx1fNpvXHyWM4hFuYDhXQy2Bnmuhbp+3+kNxfYarbif1IQnXaQj6TMfe7zrG2gukv3vbJ1/nB3qeB3Jf9LWNTuXgLoqfkQ/bdNOKRygP47ofm3Xsw4xKMdRnUHe59bpCHsrIt5q9rz4MbtMfmpCwxe6eGui5at92KMYzKA8nuMziXQBxN2FJZ3cF9fdcBZ/SSomC+yxCxuDcyZrDNUEGroNrlsdYWMNyHC6pwZJAr3GB9vdA9gPnirF8htLWSfE4fUKMwhbbqa0+dtklnG23t8OMQ0maImVyeb1jK3nsmbpmtracQwigYMXCDta59pJK8gZFGfpnkxov6fbCK2HQ79/q6zIsN/FBG33bLnAdb/Hq01JXvd+4x8huqcL7dFQfUvGhAoYAsJi0K/1NPXg3sn8ogXITyqWEElwHlql70WTlUYYwDJg2kuYWpTtQ3jt434wr9uRZ9W5gvLZgDFDZS0gpU3cgw2BwN9uPlnfVQJ9Bzf5yePMQSBopu4oHjgwZM8idysoxR56culmwfEQMyEiQr7v3k7bPve3y++TtblbTvuvd32UZynZs85G1PJpHYIUGs/YPWneRJtVfkl++GWYpHaHkgJvygDFfqV9fHavPbmUXjP2GMg8xRewPoaZeWDTdWT4m8Njfa7e4fKEzZcwQ7oevtX/JUkZgfkkVt6pGvYd0ETwszFcxyozAAmf04Al68tZC+eSdT9q4KB2x4PHm9a2HWCjMTLwyU0e0DieNmmYpcRopFyh3N3I8DCHWIwQPMIhHEpfgCzoUlHalI9bBl9um112bcB2AAtsEn/d1aFdm4CsvpvFzf8GA8sgsg3uKuwTrmMOly1j9Iu6WEWMZihhSsPyEnDpxw/Uf08Hq76jrZhG8dBtFOR5KX3u/pct5jheK59vcsLaD+29cAiUYlAOoO32GtNJbKd+dHnID7TOB9FfsA5JFYX9HzftFuvTtoC2gEK8RgrhyPd//Qp6o2kL69RzgocS1Wxa5u1njxR9WRu4/XfH1f1BAwfoNghds9ziAeOl5XH3MgUApPGPiHD0eKf+i9VwL9vUZ8e06qPu7UTripeejPu85Kh0D7e+BHPtQnOeBtCec6z71QmNL6Yh2wKK4obpXG0FsObtE+rmK2LLm2RHXnKPKI8AugZyrda5/gIXywukahHlGqRJMa0d7+/0ZD3d/h0LKPFshXjU+TtgF3glw+Yfcqj5o26//4W67vZ328RavNnFROmIZ7sFw9Y8rNqq9ntjGg3WuFVeePBA8M6dLn1aP41kc7YUULn6bHp46cVoPzT98jGzx2jMeSkcsx7p2t3S4wkeSQMkKF/sm1V9UCtKu2ksF5y0skfG+h/BOo+cP1kNMO70X2vcHobROnzqjZz31fCOX50J7uWCMB4t7tL2rBvIMGgzurCO6CITV4tEbqoJFC8p//8bECsRD7m1FvJVMuPmzJ89W7qUxsTGctrp0/jI1G78bAsVG935db8yIwjG4IiN2F9xCjeClFopABN+uoOKCmZugWR7KIZQ0iN92/MgJ/UUc2zLBoPGweu7sOW1549QGuBJC+eUusK7BzQmCYNNGtiv3C2M6D4u0DcpKygheyo3crtxPoKTA9ndt+0crAsyyaB3aFYl4CXUSzB/49RC9aM+uvXG6dUIBYXfDcaoTN1wosMMlwTrmsP4yYt9nuEFD8LCU5pY0Whlz5tRZU9RjGEh/96gshDNgtTpfxa+Mr8BNEA8tgcp/yjXPWDsi5g+Uj+4CixnEoEJoBcQ6ik1gRfC1Cg2AEBKw+O0zsJvXdgarz8TWHl+W4TqMRFv44SPKzN/n6rhGiF8Fi+yxQybpH5Tfn3zVQSvlTxw7YVVt77OYCTfpT9r1spabkZ8nfWspPP5W7ndGMmXN6BKX0Vwjs+XMaorINlt8V2tmhIxEy7kGXMG8Pp89c1bea/mxFV+v7hO1tAWetxe6cPb3YJ/nEdL1/GqGk3dHfvVBywhi5NklGs7VW9Kl0SEx0O6T6lnP/cOh2Z/4nqtVlAvw/3oM0GE3po2b7RGHcPr4mA8iuNbbLe7N9sI1DHd/xzUAVoxIfgTlDZ5z7QnaFsxcYn14etTN2jHcbXc6ZrjHweMk1BKscy3tdWUj2ovnSByDdLZnSzxDQvDeA7dop8RwMIY4rEI6HFKehBfOxyiOj9vu+ydsMe91ZWH6BwMXKBqXL17tErc2Z57sOoFOrYbVlBI8V7xahzjIxngka/bMqp4Yb6d4VeJn4UC4R+u7qj/PoH7i5WpRTCAiFY94OTSCL/GRIIVLFFYvrK5twcV+59Zdunl5b82jvtZmdGmqk0WVS4EomNis3HXsSkcE3caXQcQJTChBwoKJyg1ijLI+NLEWvW0byj9vgviMTmK+6GLZf8rFx8ief24oJxB4Gr+4BC+EwVCkxLWdUC8/cN0FEzFm4D7gJHae7nFXnMojg3ikS7COearUKa1dTWWLU5vKdm0zbuC4jtglWP3dXmeox7f+vd0vd25Y2QXjfDlw/UMV9tPeL+37DQvU7DmzaaXjAZU5NTb58pNvrcV4WckTywNvsPqMtcEgjOD6DFdl+lekewAAQABJREFU/LYo18sBX/ys47Ki6o1rNgtePPBSn1UFqt993VoZL/p2sbs22edfs8V92rvrX2tR+1adrXFvI3tsH3a8lUnI+dF4roFPMK/PJnOt4V5Qxef0pnREmXD292Cf52afo20I65/syorbXdIpxZkR9+fVaDhX7Yn/3F1EAzlXYQ2KEEBIMIaPTrDygrcLBG6qiNMNqVGvquWpoGeE+V8k9PdHHntY3dt/0x/hcK2wKx6nj5+lCUHh4K7UiYS2ux++AkXyx5mgzn0df6aDda6h3xoxz5Euz5DXl8MOAue7/SM3PMCQdG7xvD9dFHmmPjO8ctn7O5MpkxBDhFlCaBsj+W7LI207vSp33ls61vuRKe80hCWzeX9t1Kx+gpzbweDu7Rk2mt5VfX0GdTpunJe4CUSk4vHMdbNooDfWbOE+DF8M/NyjCbu27ZLKxarq+T2+7a5uyM6WYR4rRtGMpNdd9kyTEadr3z//6uQF99x/p/rCFuPSZ5YHe4iHzbdadBCTwRr14yEnS7bMkuK6q+qxw8etr674auZN3BXDppxdiYovg0b+3X3DVQkJG0wQXbPcaegehN+pTDTMO6SsSiHILO/tGNtdMxH7My4JZtykuLbl7/JgHXP7dct1/Mb5kkz1Y4g9gHcw+7u/DPxZD0o9+wcjX+sI1vly6MCN89beL93bAas8vHjCAhBuYuZh3r2cfRpK9S+UIhKxSZ0kWH3Gqe5A5p06eVrmKsvN6SqpFB6G7WIUS7AmMAIrSbsgHut73d7QsxBGAm7bdkFcVaMowDXCXpe9nH0cis5IkWg918AvFNdnc1wQs7isipOLMBdOEs7+Hsrz3GlfI3VeypQp4/Q0sTllaEu/SD9X8dHYuIzCYt3unRKMcxXxCqF4hCBeoVE8Ij6uEfcYhWZ+uIaR0N+hAK5QpbwOt7Rq2RrtcYTQJfhIv1olXoNUqFrewxghEtruftxyXQ/j5T4/mNPBvC/anx3Nu5h9nnmGRPuNhwHGkUAHIVbs1wCEi0EcVVEfLa5evir7r398tScGxbrhEjyTwNDBfNiE8rZv1++k1mPVpYb6aGD3nPCljXiuHj5wrC6Kj8cNnnrUl9UCKhMs7onlXdWXZ9CAgHPlqCSQ4IpHuPVo97UMN77M2snh4rn1723WLCiYKOEj8FybZ3RAacSUwtcouDMi2DR+sJjBF2IE+EX23lDI8J/GWEpHuAi+/PZzgmxr5sUZ2+z90dcq41nMl9fY2mDPlmsvZ9wPMM/u2mBPPvJmp9Y6mLF9vcQ8bpSs3phh38/bsg8bl4/YmCATeFwCxXGvD75yUcbFtQ6WI4h+Y/VFM1AJ9zEPZn8PlEV81kegb/zCJfYv/fZ+6d6eC8rNGoJwESnUy7s3gdKly9cdpP3LnXVCGrhe40PLI+oh2F3C3Wfs7YGV4nJ1nYaicPHcZVaoCJTBi0d1Fc8W8c6MUskeb9X+0QXlc+TObu3v5vXbPBSPUDSDI+7niIE7cEI/rBY1Esnn2lX7G6MD0WBen2E990bHVwQvtrD0xT0ema2/H/Wlo2I+nP092Oe5A9pEOSsaztWjh49Z7O3XJcwMxrla9PZCUkzFx9uycbvMU7G8X/+glU5hjXFI8ZJFrOuinhEB/yKlv0NpizjvUArNUPcWxOSeMXGupSSq3aimB62EaPtVde+Jj7iHE4nPur6WDfe5hpjLfT7up5WO+CD40lvN9D3f7oGHcFVPP/yCr7uUIOXw8XqoSgqJjM5IXgrvNnhjIMHgj18Nlnsq3qnfNSupUDp2S1BvjVs4a7F+dsPy+krp6Mv7h7e6fJkfTO7e3rui4V01vs+gvrBlmcRFIMEVj0dV3JlN6zbpLy+58uZS8fjSSmr1dRMKh9PKQuOf7bvljMpuDUmiLpooQwkfAXxdQywh/HCzwg1hqroxYBzZAYf/NFb/4EYLBWS12pVVTDTPOIre9iA212isY+LG4aX50+87WwGW7fXtv+4mY5/nNI54oU5if+DFy7aR/NezRWIaVpXBlEuxuIQHczv+1pVLBbPevWOvih1zXv+cYubhXDaC8sEQuFsgO298BUHPg6F4DOUx92WfgtnffdlefMrEda7Gp65gl7W/qLonJbBv68j1l9scubI7xkMyZT9V2Znxhb3jZ+/IG8++p5NGfa1i3Za883aPWKbh7jNo886t/2jLxlkqruNRt2tVbJmt7dnUEb8LYTR8FdwbcqvwFbBM8HZt9bWucJSL5HPNWKeBi93yy3AK5vUZyTQaNKmtq4bSGv0A137ExHuny+tmk9YwnP092Oe5tVOJfCQaztV502MUgDgUdpdCTAfrXK2j4pduUcp1KAkQwxbKdpMcC8q1SJNI6e/3VS4n2ZShAZRB+Kj17MtPqvtNjKUo5t9b+Ua2dsMw0Lbbrfm8PXsYN1qzzUgYhvtcQ4Iwo6Bq1vopefrFxh5YfH1n8lgxwBnejqOpFn3m+defVYlxmsiyBStkkspovWzBSmWIoD6oqiSW+EF5XFXFbMX7pj2ZkanDDIf/OEaPIot5Y5UENFCJq+3B5O7teSoc76rgFte+o4y/z6BYl3JzEbjh95fA+33y+EkVe2qLrF62WpbMXSJ/LvhTNv610VI6KpM2ZWlXQtJ5sYxM4OZyc4oA3CuQEW7ozJ+k53edBEkcTPbUTeu3Sl+VjKFxlRbySdtPdXIDb9Ay2WJhblIxJGMTY4WTJ39uR6UjTLnxBdsXWbNivWOxdStvuBDaFY/5bIHa/7ruUuJYQTxmZsySQZfGRdo9Q2A8qgl5UftD419/rnXc3uplMW42WGgv71jYx5lJlTIDSmxYJsTnh3gwwZBQHPP4tCuY/T0+2/VWNj7nqrc6EmK+3c3XuH+5bxfxV/GxBGIv714O08aiDH0RD8IQJKWBJRgCltslnH1mhXoQf+WJtvJiw9dl5KBxltIR2WGffK6h/DLpO/nql57aMt3JrR2JFBBGAoLzHBkl4yP5C+TVxU8cOyk7tuyKz6oeZU2Wdyw4q9y4Qy3hPNfs4RWc9tOeGARxSd3Ffr0N9Ppst1aHotEk9IDlyVzl2eAu4ezv9vM2GOe5+74l5LQ5H3Fd8RZPNZjtCea5Gsx2oS6cD+OHTraqbfB0jCLczAjWufpw7QetkCBwt0aiGQhiMmNZqCW+17hI6e+wnHukUYy1P+JhwgJ13z/7NS54ATiF4wm07RlsBgxOCkYYq+yNI0lcqI+nt/rDea7Zwx4VL+kcV33l0r+8NT3o8/15hkR/qqgSl3b/5iMZPusneUE9g5lQTXBlnzx6hrzRtL00q/2y/uDq3uhVS9fIZhXbGlKrwcM6NJd7GV+m49P2YHKPhHdVX/c90GdQX44DyyQuAgmueETsghwqzgbMqr1JluxZ5b7K9woStlAijwAypyGrdZevP5DhswdqU37zhRpfRuarL8n2Fyf3PYCVjBFvF1izPIvKRAbZopJX2C/sZvmQ/iOsL9ZmnrchHpRWLna94eKBHzcxCFzOKqj9MlJEueYULFpAT8Js3z1OmimH4QVlcbfVh4ytJkkFOCHJQ6RKOeVWagTZcO3xYzAfLwJgAkEmyKJKURgMQfzOb0f0kf7KzS8+v1btngvG5iUUxzw+DQtmf4/Pdr2Vjc+56q2OhJiPuI7mXEU82PUqeYC7jPvtd2tWufvvssbjGnnqhcY6wDnKbd+8U/qrGHh2CWefWb1srfXhBdevchXLSqc+78mouT/LK+++4GGdaW83xhHj8vEWDfRsePcibAWsnH0Ve8b7H78c7HGdsNeDjy2xKRRhhWrE149Jprw/w3Ceax1e6SyjfhnvqHDCvXPjX5v0LuF6mNkh3Eyors+wruzQs62+F6IBcNnbv9c1EVM4+3soz3N/+lAg65iPnHgGQabwUEswz9VgthXeM++rkBYmQV1pFUrnXmVhZ5dgnatwt4S1FAQfk1cuiXkeRJiQULtiYpvxvcZFUn+HOzXuMZAf1LUegulHrysk9Qzbv0Dbjo9nyVPEOOWtWKIyHbuFn5gzeYFKknbStsXIGQ3nuWZPyoRwK+6Cj69jf73xLOS+PNjTgT5DwvMErv1Dpv0gvQZ0lgdr3G/Ft8U73SJloe8uw34crWchZuRTLzRyX+zzdHzaHkzukfCu6uu+B/oM6vPBYMFEQyDBFY9wwy1TrrRUqVVF7q9WSe6pdI+UvqeMlFG/+x68T6o+WlXurnBXvNx1w3U0suXMLh9/0Un/SpQuHq5mhHW7uNg+0/IJdVMYIL1/7KIf6szDgreG5VYZYk2MMSQswJcrxFDDQyB+sGI0Uuz2GIUWYst81eU7/bCIB3VY5iAe1ahfJpiiPg0/addLls5foa0N8aDb9Z3e1os7vrAVKJzfqgdf3d7o+LKexjNPu+c/kJE/j9PbxkMQ2okXxO8++0merNpCfvzyF2tdbyMPKAsjIx+26abjl0AZiv1G9tlIEVhCGUUO2vZphy/1C+hl5QoNpc6bzd+34schc649nk+k7IM/7QjFMY9POwLt7+iXeJGz/07ZshUjKYV9GSzVYpP4nKux1RPqZYj52vzVp63NdHy1iyyZv1x/EIAi56e+v8r4YTGJBdIrRXl8XIrxoaXDp221gh0bGPfbJB0/0Wws3H0mS7ZM6hr8+PVrcFefrsGm7Rg2bFLHsnpctXSttHvuA5k9eb7s271f9xUETF+iMmM6CV7ikXUSslS5RiERGDLGIsOmtkhRiciwPq4XsMrctX2PUzV6HsI5GKuGperYIbYT7g+7tu1WIVj26LZ4XdmPBYGea35s0loFyt3vPhsobZq8KxNVwotN67Zod3Xs74evddNxM1H4oUcrO4YECOX1+e4KZa2XNbihdnu3tw41YBofzv4eyvPc7F9CDc39FdvroRJBzJ++SH+8RF/HL9geEcE8VwNhtF5lkR7z60Ttyg+F4wv1X5MVi1frKmER2KpdC4/qg3mu1mns6VKNcAMJIfG9xkVSf8e1+e4KNz5IgxeSUOEZwUkCbTvWL6USnEGgiPlKJRrBvRxhKGCN/cUn3zhtNiLmhfNcw4chI3ivmqCee+Cii7iBcAdu/VS7OI01TqsEr/bnRIwbvS/uCe7L8F7gTYL1DInnsPKV7pbOX70vI+YM0tcJe6gYs328R61cskZPQknpVMaUjWsYn7YHg7u9PeF+V43Pvgf6DGrfb44nfgIJHuPRjhTKimhWWKRLn1ZZ+71g36WbdhwPCeVU8F/88GAQ29dj3EBaK2ucDko5AMs/KLLsFko9vu2ksujFWB4+p0zsF6mvdohZsmTecv0zCQ0AG7EfC6pEEO4ZV50OBNxpcEP9QG3XXZDZ+sU3m7nPlrLlSwkS7Az+drhuQ//egwQ/fwU3Qryo42s7buDDlMsKfhAEN/9u5Bf+Vh3U9XA823RoKR+93l23c+bv8wQ/d0HA9kZN67nPjurpYB/z+MAItL9Dmf5srZZeN9nu+Y4uy+64s7j0+623yzz7RHzOVft64RjHuVVRZd+EwhFZqzu+2tWjGbh2tH7vxXjfd+DuCjfUj9/sqev87MOv5cexX1uZFsPVZ558/jF54c2mKuRFMo999XUGrtX9hvXW5/rOrbu1i1L39/o4rn5bkVs9spe26/yaXhfKknUrN8rr6kOSunxYLyqOFXmZ+fzrTa1snPZrI4qD8Zc/9/CyZvxnB3quxX+LnmsgRAl+TgJrx2bK0sNJQn19fuGNZrJKvbzB8hSW/oO+HiItbQqhcPV3sAjlee7EOlTzqtetIsN+GKUTKODcwYumXb4Y1N1S6tvnBzIezHPV33aY5zj39WHp+G7X1yXfbTHhG+zLg3muIps1PjCDOSR33pzK8KGkfXMhHY/vNS6S+ntdFSMTH6KNIONwbBJo259Q4UL+Wr5eb+L3EdMEPyOwiLxVxWH3xdPIrJOQw3Cda2CCBHLw5MI7BkJgfd29vzZPNRmjH6heQf6Y5WkpaPj0U/F9kTzISRbP/VN9eHX9EPnZgE+UEZGzF0koniFhTYvYlbBmPH70hEszzfsUZjZxiG/pUjiOifi0PRjcTXMi4V3V130PxjOo2W8Obw4CCW7xeHNgvbn3Eu5aeGmKTeAq1u+3z+TeB+5W8TcyuRRFwG8jiCf12Q9dBC+8RpBFFS+2yKT6+U/ddNZtswzWGHax19WybQtl3VPbct8w5aA8+2bY55aFn5lvhs1bPy39hn4mKIftugu+YlepVUkFMI5xWXRf7j6N/cELZeHiBV3aYm+r+zrBmE6WNOaYJHNj5K3uu+4ro92dEefOXWDVCpb9hvaOVYlj3yf3Y+NeZyRN+3vMzf6aIfbJZdzG3vAwcVJRNtD+bq8L9cUlpk/EVs7XczW2Ovxddk2UqbGPAmVMt28+lJZtm+uYXe6r4cs34h0+ooKSO4k5TjjHUZe7wMqsduMYyxh8XOnTuZ9LEX/7jEsl8ZzAy1cgSkezOcTQ7Tf0c5XF+mEPxSLKxHxkayYDxvQVbNMu6LMDRn+lH/JNEipjHWHKFSx6q4BP/oKeSgVTBsMa9arKt8M/l4frVNFJVcw5gmX2cUwHKoGea4FsHx+zYBWDFwwnuaNscX3tdVLCmPKBXJ9NX0ddTtcM3L8/7P2OFQ9v+MAxHqFGwtHf0d5Az3PUYRdzDfT1vmhfN5BxnLffjvhCZ1fG+eHeF5yOizluZui+ffs5Yh835YJ5rpo6fRkidrNdcHlFzHCEhsBzBNz7vxrc01HpiPWCfa5CIWaklrrmOV3vzfJgD+N7jQt2fw9kf+5/6F7reqGfe2ve4OhUb6BthxfS6x1bebxP5FfK6Z4qAdythWI8lJz6umkPkpSa23ls5Uz5YA39Pdfs93P7eW7a7jLv+o5hYO/DMBpAjGdzDcH9GEpHGPo0fKaOvN/9rViZ2LfhC4+4yofqGRL7DCWkkb3Kw2LBzJgQULi2FFPGHIFKfNoeCHc7w0h5V/Vl34P1DBroceL60UMgyZ6ru3x/s4ue/bJaumXPJj1eLH+Myb61gCNRRQDu1UgOsWfnXkmVJpVWNqb3M/EQXA4QXxHugCVKF3O5ccUFBevAXfBf5YaIxEd4eIZCI7aYpXHVGQ3LYSm6Y/Mu7bIBhS8e+OJSLkfDfvnSxnAc82D2d1/2MVLLwMJw4awlunkTlgxVFs7pfGoqkhXsUw+hO7f9I2nT3iKFSxR0VKj5VJkfhcLRZ/xoptdV4EqFWJk4x2FRjuucL6Jd/fcf0u7RcCfOruIz5cqXU+zxj3ypJyHLhPNcQ2xg3Ev+U8wQND9n7uySVylyYYEfHwn39Tlc/T3c53l8jlGklb2Zz1WEhICXDGLADVPJEn29voX7GIa7v8NTx3hN4COcU9Z7b4wCaTuub4iDekIlJS1ZtoSVAMvbtiJtfrjONXwgRagSuKgjtAOe22HJllgFMYlNzP7Pf+qqQgOUDcuuBos731XDcvi40RAToOIxxIBZPQmQAAmQgH8EHq/SXGdqxpf6SX+O8K8SrkUCJEACJEACigBcc19+/C3NAh43n37fmVx8JIDQO4vmxCQsgZfQ7WWK+bgmi5FAaAlAufpMzZd07PlIClsV2r1m7SQQfQTCGuMx+nCxxSRAAiRAAqEmgMRNY1UCgqOHj+tNBStreqjbzfpJgARIgAQikwCUjn06/c9qXMNn6lrjHPFOANbrk0dNt5SOUOxQ6eidF5ckPAHkC3it/Ut6w7crq1gKCZBAZBJI9IpHulhHZsdjq0iABEjATgBu1Vv/3q5nHTtyXCdzMsubvvykGeWQBEiABEiABHwm0OnNHrJl/TadjdesdKdKVnXfg+XMJIcOBOBajezRh1ToDSR4hCBu4EtvNXcozVkkED4COfPkkPpP1w5fA7hlEiABnwgkesWjTxRYiARIgARIIKwE8HKDrNx2SZkqhf6KXa7infbZHCcBEiABEiABnwjs33PQRemILNbdv+3kkpDDp4puskKIrbh317/WXqdImVw+6PW2IOkEhQRIgARIgATiSyDRx3iMLxCWJwESIAESSHgCiB11VMXpgSATZe68OaWIyiTvnkU54VvGLZIACZAACUQrASQoO66s6NOoWMEl7ywhufPlitZdSdB2I+nVsgUrkDJZkEn69rLFJVWqlAnaBm6MBEiABEgg8RCg4jHxHEvuCQmQAAmQAAmQAAmQAAmQAAmQAAmQAAmQAAlEDIGkEdMSNoQESIAESIAESIAESIAESIAESIAESIAESIAESCDREEj0isctezYJfhQSIAESIAESIAESIAESIAESIAESIAESIAESIIGEI5DoFY8Jh5JbIgESIAESIAESIAESIAESIAESIAESIAESIAESMASoeDQkOCQBEiABEiABEiABEiABEiABEiABEiABEiABEggaASoeg4aSFZEACZAACZAACZAACZAACZAACZAACZAACZAACRgCyc1IJAwvXrwop0+e0U1JkkQkc9bMkdAstoEESIAESIAESIAESIAESIAESIAESIAESIAESCCeBCJK8bhh9QY58t8Raxeq1akmSZPSKNMCwhESIAESIAESIAESIAESIAESIAESIAESIAESiBICEaPVO7DvgIvSMUr4sZkkQAIkQAIkQAIkQAIkQAIkQAIkQAIkQAIkQAIOBCLC4vHSpUuyecMWh+ZxFgmQQKQSuHDholy5dFmSJU8mqVKnitRm3nTt2r/3oOM+Z8+ZVZKnSPhL/rmz5+Xa1auSMlXKkG//7Omzet8TYluOkDmTBG4SApF2nblJsHM3SYAESIAESIAESCAqCST8W6gDpi0btsolpcRInzGDXFUvqGdOnXYoxVmJicCQ70fKoH6/6V0aMnWA5M6XMzHtXsTuSzC5t2/1saxdsUFy5skuw2b+FNR97tD6E1m/6m9dZ9uPX5VqtR+06m9w/zNy9cpVPf3D2K8lV94c1rLEOlLzzkZy5coVqVnvIWnf4y2vu3nkv6PybK2Wjst7Degs5Svd7bgsVDMvqut6nfJP6urrPlFL2nV+LVSbkr279knzOq11/Y83byCvtn8xZNtyr5j91Z1I5E+vW7VRPmjdRTc0Z54c8uO4r61Gjxg4VnCthDz0aOWQ9ltro2Eeic+9IZDrDLmH+UBz8yRAAiRAAiRAAiQQBgJhVzwePXxU9u/5V0RlkylRurj8vXZTGDBwkwlNAArma1ev6c1iPLHL0cPHZPhPY/VuVq5RUUrffUdYdjmY3K9dizl+ZhjMHTp7+pycuW69BuWVXU6duPFh4vLly/ZFiXb8itpP4IbyMTZJklRl5YpQCUU/se/q9e6oZ4V6W/btYjxS+mukXGfc+UTi9KWLl6xrzGm3j53nz1+wlsFi92aQ+NwbArnOkPvN0Ju4jyRAAiRAAiRAAiTgSiCsikc86BpFY558uSVj5oyurYvwKTxAL1+0Qrey1F0lJUOmDBHeYjYvXASOHDomowdP0JvPnitr2BSP4dp/bjdhCGTJllnmbJhobWzWpHnSo/0X1jRHEjcBXmcS9/GNlL3jdSZSjgTbQQIkQAIkQAIkQALRQSCsiscdW3bKuTNnVdyvFFLk9iLRQczWyn2798lTDzfRc36ZNEi5gz5kW8rR2Ag88lh1KVOupC6SM3f22IpyWRAJkHsQYSZgVV/+3FOHociaPUsCbjXwTSHW4vejvpSryhwxS7ZMgVfIGkiABEJCgPeGkGBlpSRAAiRAAiRAAiRAAopA2BSPp0+eln+2/6MPQuHihXTiAR6Rm4dAjlzZBD9KwhIg94TlHaytlbknRkkfrPoSsp6idxROyM1xWyRAAn4Q4L3BD2hchQRIgARIgARIgARIwCcCYVE8Iv7WxrV/60yn6TKkl3y35fOpsSwU2QRwXFcvWytTRs+QF99q7pIw5uyZczJh2GTHHWjwdG25Jd0tjstOHDtpuShXePAeKVDkVpk//Q/568/1sm3TDp1YpMw9peTJ5xpKsmTJPOo4dPCwTBw+Vc9/oHpFSa2yL8+ePF/WLF8viB1YonQxqVDlHrlP1e0kC2ctkZ1b/5EUKVNIkxcbexQ5pRTo436bpOffXaGslLrrdqvML98MlcuXY2LyIRi/kSXzlsvJ46fMpB7mvTW3wOIk2OIvd9MOMJo4YpoOibBjyz9ya8F8AiVY7cY1TZGIHu7fe0DmTftD95Vd23brcAhFShSU+x+6T+66r4xH26eMmSlYp8jthQTx8uZOWSiIZ/bAwxXkiRYNZcm8PwVl/t2zX4qXKiqt2j0nmbJ4hohAopMl85crblvk0IHD+ngjCU7BogWkWMkiOmFFEhXX1pv8uXClbN+802NxoWK3ee2rHoXDMAP9ffC3w1Q8ypj4n/Ym3FG2uFSseq99luM4zo0pY2ao/d+lPk7tltRpUkvh4gWldLk7XJIMOa4cy8yrKqbsmF8nWOceznn7+WpWjW+fMeuFaxjIdWbSqOly8N//VIjlJNLslaf0dc5pP86fOy+/DRilF+UtkEceafiwHg/0+mrfVrRxD6TtwbjOXFDX5lVL18hyda34d88BOXTwiM4af5u6RxZS1xnc73Bf8SaB3hu81Ruq+bi2fNL2U6lR/yF9/U6e3PN+H6pts14SIAESIAESIAESIIHACIRF8bj3n71y8tgJ3XIklIntBTyw3ePaCUEACppp42bJZKVw3L/3oN5kk5aPu2z6+NHj8sOXg13mmYkHa1byqnhE3eaFF4rF73oPlI1rNptVlWJijyxbsFK/fH0+sJskTZrUWoaRA6o9Zn0oMaG0PHXyjFVm84ZtMmH4FGn6ypPyfJtnPfri7EnzZcHMxZJKuYw6KR6PHTkuP/cbatVnV2T82n+kdo+1Fl4f+evPdUpxus5ldtnypUKiePSXOxoH9h+26Sab1m212greUMYumr1ULp53TfpiFYqQkWnjZ8v/un8v7skhoHQeO+R3eeK5x+QlpSC3v8CiH69fHZNN274b61ZulM3rt8mCGYssZfLOrbtll/p9O6KPvag6D6ZLn4+/cZmHiT1KGbl80Wo9f9bv86RDr3aSPkM6j3KYAeX4TFXGXarXrRLRiseLKimHyQbs3vY6j9eMU/G4QbHv+k5v+U8pa+2CY4LzdM6UBTqrtzdu9nXs40jK01PFupwzdaGeDaXzs62esBfR4/70GY9KEnhGINcZKMhH/jxetxjK3Sq1Kjm2fsGMxdZ1FApKI4FeX0090cg9kLYH4zrT9JFWYv+gZdqzdeN2Pfpr/xHybrc3pIq6vzpJIPcGp/pCPe+qOocXzVmmf5mzZtLK79rqmhKbcjXUbWL9JEACJEACJEACJEACvhFIcMUjskVu+zvmwTiXSiiTKQvjfvl2qCKrFKyHVixaJZOUkmXJ3D9Vtt0bmamhyIGFoF3SpksrD9epYs2CtSKUWPGRwd8N18VLKEuzksqyEEo/WLMhSdFfSpk0f/oibUnmrU5Y90BgeQVF32FlIQKl4gWlQBuilIRZs2WRBk1qe1s93vPrP/2oXLlu8Yi2/qGUdZASpYtK0dsLu9SXX1kShkIC4f7R690tpWOe/Lm00ujSpUta6QjeTgIFT59O/Rwt3pzKm3mwHmz4TB0zGfBw9C8T5NvPftL1aIvFahWkULECclQdByhRoIQeOWicVig///qzjtvLWyC3FCiUXxar/g2B0guK7aqPPCDrVm4QJPLYtH6r7Nu93+Xl99LFmEzbOA9gHZpfWXQjoRC2iT4A5fzSBSvknRc+lO9Hf+W47VIq6znOMSNQREaD4Lyv99QjItebjqzjU8fO8qnpUKK8/eKHyhL5ki5fXFmG4jxFdnMcA5xDGHZTisleAz7xqU4UunzpsnR5+zPr/IPldOev3vcI7xGMPuNzo4JYMJDrDBQ3RvE4VSndvSkeoRiEwEj30UY1HFvv7/XVH+68zsT0axyI3Hlzyu1likkedb3Cx7ldykJ/4aylAovGT9r2kq7/6yiVqt3nccwCuTd4VJYAM/CBOs0tqfWHJFwLhv00RoYPHKOuEaWl7hO1pLKy8HR/7kiAZnETJEACJEACJEACJEACPhBIcMXjlvWblTLmsiRLkVyK3VHUhyZGRpGvu/dTLrc7XRpz/LrVJmZ+17u//D4yxuXWFIL7cPd+Xc1kohjCtQ5uYlPHzpT/9rtaJcGFtZZywatet6rKUJ7BZX8x3fGzt615UCLaLQWtBXGMPNGigbzy7guWZWLlGhX1yxVWm65ejh96tHKsNdRuXEPe/qSNtT5chtu//LFWdkARBaWJu9VkrBXGsvCNji9bS7f+vcNSfKCNcNtNCPGXO1z44CYMKaZi9MGaNF36tHoalmJtW3yg3fv0DNs/KFqNksI2O85RKJfsisdP+nawLBWzZM/ssv7wWT9Ziu6ceXK4LMPE8aMn5Gfl5g5Jq87Bnv0/dnGpbd76aXmreQetMBwxaKy2NM2dL6cub/7dkjaNDBzfT7/Iftaxr7VPr7Z/URo1rSewFGtep7Uuvm7VRhfFYy6lCGjx6tNS98lHxD0ZTEvlmt3x1S7a8hF9AqEJnFy+66l18TMyZ8p8pcw1U5E7xIt/206vWg2Eq76visehP462lI44T9t1bqPOxRh39GatD8vbL3SUff/s1+w2/rVJ7rizhLUdbyPYfqc3ewpc1yFVat4vHXu/62LlivmB9plA+iu2H4gEcp1B6ITSSsmNPrxCWeNC+Zs1h2sCI7hir1keY6GNcBIIGeBN4nt99Zd7MK4zCNHx2/Qf9K6kdPtQhutzzfrV9LJ06Z3DgPjbdju7QK4zULRBoXhv5XLW/czUDavudup8uaY+Xoz8eZyj4tHfe4PZhr9Df7nj2jJ6/mCZr6zOYTGKjz+4JhoPggyZ0utjVueJmvqDkb/t43okQAIkQAIkQAIkQALBJ5DgikfExINcUVYoSxcs89gjvCgaWTjrD/1Ana9APmWtVNDMDstw9uTZKp5SjJukUwOWzse+uO5P+ozpE4XiEdYlS+evkMnKYvDPP1a5uA/j5QXun1A4FilRyAlN0ObBverFN5u5vGTBjQwWH/v3HbTcvL1tEO7Srd970WV9WFRVrfWAzJg4V9exVMXlQ/y/m13GD51sIYA7slE6Ymb2nNmkmVLe9frA01oPSlsooO3WelZFsYy4K/4QN9EpdiKqyBFHFvTfBozU1j4oC6WM3f0d86AMfLx5A+nbrb9WdM2YOEcpCmOy02M5BG6nxnqmsNofI7CWhSDOXcpUKfT6p064xutEzFD8nARWkE1fftJyuYZrsZPi0WndxDwP8ergog6BVdNr77e0lI6Yh8QXCIXQ7d3PMald5eNSPCIuYcfXumnlLtZBbLj23d90/LAQaJ8JpL+ibeEUuMBD8QjLcZwLTV563KU5mGeU3t6sHbGCP9dXf7kH4zqDc9H9umN2HApB/GITf9turzOQ60y7zq/Zq3IZx33tTmUJiA8b+ICE67FR4rsUDMNEINxxbUB8UfwQE3T6+DkyfcJsFaf0kI7dOnrwBB0TGtd8WEFWUdbp6JcUEiABEiABEiABEiCB8BJIcMWjfXcRDyw2uXRdCXlZuXeGWwqXKCx4kbXLubPnlBXkLj0r7615lJWfa5IJKB6jXeCKjDh5cCs1kixZUh1nDg//FVSyCLxIJISUr3SXh3sktgslEBSPRw7dSODi1B4kk4AFnLvAAhGKR8g/O/ZS8ag47N4R4wYPxfLdFe/UbOz/YDnWp9P/rHiHZllyZck8YExfMxmW4d/rYiw1sfFMWTO6xNM0SU+y5cxqtW2bsjx0F3s/sSsg4J4IiXH7S6MVj2dOnXVf3ZpGQgS49B86cEi79GOB3VL6hFuSIWvFMIxMVDEUjyt38PgIODVuVj8+qziW/U8pDoyLNRL5QMHgLrDwSp0mlboOX9DxMt2X26fPnjkr77X82IrXCSVE249fdfnoYC8fjD5jry+axqGc+V+PAdqlfdq42R6KRyh3IOkzptPurN72zZ/rq7/ceZ1xPQr4+IG4qMePnLDCXJhkawg1gGcV+zXNde3onMqdL5c81+YZafFaE32Nh6U9YvAidApiwuLXr+cP0lx9VHq8eeDXqOikxFaTAAmQAAmQAAmQQGQQSHDF422FC8jFi94Vibt37hajcCxUvJB6UUzq4bYbDnRfDIyxtLFve9e2XVK5WFU9q8e33VXG1YfsixPF+GaVWMSudERigceerevVGi2UO+3N0i19xhhl0Dk3xbB7W3Lnd3WnNctz2dxsoQChiLYgAQcwd7KUQaZhWKAik2qkyd5d/1pNat+qszXubWTPzr0ei1KlvmElk0plQjeSSim+jBj3TLzUuwusjIb+MEoWqyzYcHf0Jgg7ESkySsXFRLzK+EiWbJmCong88O9Ba7P/b+88wKuotja8CEVqkJ4ECAlKFSFSlHalS5PqVbCiSBcE/a/3ykVFUdArAoqI0lGB0IvSewdBVAQsofcWIIhIj//+NsxkcnJKTnJyWr71PMO0PXv2vDNnwllnrfWhnqg9QwQqom0h0nNK/dDgzGzTu6NVfU9nImaeeGacjcef9yEiDOUxIN4DtojCRQ1dGCIhoZgMa9KqvhkFrDfY/JOW92sgc/fE2NPznoFo1jczlsgcFeUXr1LknRmcj8Fq+FwjahxT3zd66AjITweP1Zf756XL8vP3u+l4DNabz+siARIgARIgARIIGAJedzwWL1XcKZzT6guo4XiMujfKblqc0w6406MEQlR0o9VQE+/44RPyiIp2rF47xqv3xxp5Zh2TuWzkA5obki84EjLKf3eo2RA1LDO7oRwCUl9hzqJk7vZDxyNqRf5xJ4oQ6ZjFIoq4vJ2FiiZFPxqNjWghrCdfTvo8ZL0T6WubVr5y4Vp5//XhZnoq+sgXmkdC8ZypkoWJNxN1hC62W0WZsO5Lw+cLEYXuGOrYesLOnkpyYMOh7cgQwQrnGJTpr6mIeatT2NEx2D7mo0lSRdX0K102KkUzTz0zKToOoA0QmYHjEQaRGcPxiLq5hqEerjNz9/0ayNw9Nfbk75akzAFkFRhm7z0Dp2O/Tv3FULBGW2QeFCxcQLKrEhCwC/EJZskJlEsJdkPdV0Q9rrmjXG9cr6dqNhv9cU4CJEACJEACJEACJOA+Aa87Ht0fIo/wJQGkMpW/v6wsnLVU13dEOuRq9R97TBAhQBQM6jtC/dffDY4Ke2aNwEUknzuWaFHzduc4f26bK3cugRI0IvVQ982RXbMTYYovuKj9aOuMc9SHsR2qrJ5I2YXjDF/a4dCLLF1CJi4YZZzCK3MoyQ4bCFVv0U75Lv2eFdTQs5ZdQEpkx0advTIed07iSGHbnT7S2tb6o8JVB59T9H1NpVnDcI+z50iKStUbLf9AffnlAT0EP5yMeGe0TuOGsvWYWSNSOCt9/cxYhu2zxTIVSmsRqbhf9svapRulz3+7aQlrLMOgMG7PaWsdsLvv1/Rwz+zvmelK0dlwOqLubPf/e14qKZEga1Tv0DdHplrYyXofA2kZ79IVqkwK6jxaI1BxDajz2FKVWKjftE4gXRLHSgIkQAIkQAIkQAJBSYCOx6C8rZ67KERkQDkTE/6TDzXrJUrVGstQQJ0+Ya6eylcqox2QDVv8I5mTxXMjSX9P5+OT6lRae7twLsFcLWYjXJI12+3Ik5sqJRb1Aa1f7HCQq7qSZscBtGBEzuD+ImrGkZ23sw9qsysXrnN0iMPtEJXyhOMRz2u4StXFl1DrfXV4Yg/vgHoyaozBnu3ZQTq++FiKM5y8k7qaYkcGb/DndEurOvl5Sz1ZWyTn7nyGi4bZLwFgtIcISpsnW+jV7UoQa+Oqrapu6TFdy/Bfg/oYzfTc189MssH4cAVOmjjlpIXzfP3yzdppi2UYIiJdmbvv1/Rwz+zvGSg7wxBJ/cGYt5OJfxn3KVjfM3Bwr1+xRZYrZ+MPSjzHWsoCytZNWjXQwjKl7vH/H0ONe8U5CZAACZAACZAACQQ7Af9zPKpIFW0IWaH5FQEoy0L999keHWX7xh1KhXa5bFE17BBd9tvuvXr67H/jpU6DB6Xvmz19UgfSGbCd23fb3b3r+z3mdts6kqH5b6dh4xovKuENW6Xlw/tvi7CYHThYgAKyYX+pdGB/Nzhg4XhEzT84V6EEbbUDcYcE9bNsLUQ5/uCEdhYpaXsM1ktERdjbnKZtJVU5Bzgecb8wTleRWmk6iYODrKn65e4rY7fVjq0/2d2eERvvtghe/abqtdZSYlD+aNaU+B+37bI7xKMHj+tnEjut7e01RtSuYXA0QsQEz/Ni9aNJNSWWBEEpq/nymbGOI73L6XnPNGrxsHz+4QQt3oN0azgGYahDiH2uLC3v17Ryz+zvGQhWwSJKhtt1OqJcBqJXvWXeeM/gbwqiydct22SmkBvXF/Pg/drZCAEq1IKlkQAJkAAJkAAJkAAJ+BcBv3M81nz4If8i5GQ0hYsVkYHD39Ityt9fzknL4NoFsREomGKCUwp1wOCEPHnstCCqap2KlnlGidDYOul8TQFOQnw5rlKjkjkUpOwtmbdCryO9uJqqW2k1q/rx9k0/6tRyYz++CM2PXWSsOp0jQsswb34hNM7p7rxmvRryy87ftQNx8Zzl2tls7WP+NPvXjWjJ0TOGWZt6fblJ6wayZd12fd7xI76SwaPfTBGpagzq4N7DAierp2oVWh20m9d8JzXrVTdOpedwfs39+ttk2zJyBdGfhu1UIgv+aqjrGF2mlOB+IIUUirRIlbTavKlJ3KrVfsC6y+kyoqD6v/+KvNblTZ0CD+cFykeEW0SlfPnMOB28mzvT857BZ6C+UriGsvVPFudvvUfqpOrzkZb3a1q5Z/b3TMEiBbTzLe7X/UrgK16LLlkflSlfzEjhnLPu9/SyN94z+L+FVTQK/79o1q6RoPZoiVKe++HK02zYHwmQAAmQAAmQAAmQgCpDRghpJ5A3Xx7p0q+zniJKZs7/+MLR8lTXx2XK0rEydPwg/cU1W/bk/mykKCM12zpdunjJBH/WZh8i1TLKBvZ7X9eqvKGU1eEofeeV/ylnxxF9uoeb1E7xBcbq/Bg7fLLs2PKTFrVAJN1/ug1MUVfK0bhz5c4pYcWL6t1blVNs3PAvldrmHjm074jgCzvYeNrSwx1pqhgzbPJnsQJHIwQVEs5flMmjpqman8s8PVyP9QfnCSJgYFvXf69FGKDUe1XVpISj+ZgSR4IATN/nXpcX2/aRQ6mMWk3NAO9VtfIMW714vSyIXSxIQUV6INKwe3Z41aVDAJGk1s8Klg3dJKS+2u67qdLbHVl4iTAz4hPP28vP/EcwLjzHmBAZ5Q+GEgbP9epoDmVAr0HaeQyRI/y4MeGTr5WT/7b4Sb78eaXd04+abVOzULVmFenQub1uCobvvTZUrNx8+cykZvypbZPe90xLOwIySFtPrbn7fg1k7r4ce9kK9+hbgjTjjwd9rh3F+CHs9IkzuqYpFOqdWXr+Ntjr11vvGfw4WF396PD2x6/LzDWTpdurz6f4m21vfNxGAiRAAiRAAiRAAiTgWwLJPUS+HQvPHsAE4DhACiMmqApbI8hOHT8jTzft6vDqXn1hQLJ9FWPKyaipQ5Nt88QKHKIY2+vd307RHSKuXujzdIrtiI4sU/EeHYWFaLXXutyOcDUa4nrhwEmNvdDnGVPtOFaJA2AyDOcZMXmIseqReXq45wvNq7/UjRz8ha6hNXLwGMFkGFhCWMfdlGrj+Iyev/r2S/Jmn8Haqbtrxy/SRzncUL3BcOBl1Pkjo0toMRlEAMPB9cl7XyhuX2ihDqMWWd3GNWXjyq0OhzBqyFhZrgQT7NnmNdsEk9U+HPuOVK9jPwIQ0ck9X+ss/ZUjDxFDiCTEZNiQ0W+liMo09nl7Dsd/LRVpi2hVqFYP6PVuiiFAVKbnv18UqxhNikYONnR++Vn5YctOnYL6689xMmnkFOn6aiezta+eGXMAHlpIz3sGataojWeUkAgvXkwqV78vVSNLy/sVHQcyd1+N/Xn1t2qTiqhGPdkta7fryRDVAlPUfoxWCu74scGepedvg73+vPGeyXFXDpmlnI1Q7qaRAAmQAAmQAAmQAAkEFgFGPAbW/QqI0SK1EalwhuELkTuWNSTp2JCQpGOhUGvPQu60t7a1166XclggNct2PFBs/VylB8NpZM/e/XSArlto3QdF1lYdminl3O7mZlfnhwL46OkfSaOW9QSMrO2ty2aH6VywvU5X3Vm5oy2iHgeOeF1/ibUei4izt4b9WypXq6g32x5nbeurZaTejZ39sTypxF2MyE1bp2N0mUh5rmdHKRld3Bym8YwZc+xItmx9Hu8s23Lu3b+rPPF8W/M5w3nhdISzrO1TLeX1wf20E1T3benPGIT1fMY2Z3NX7VE+YNTUD+XBulXVl/a7k3Xl6thkjdOwoi491YYfL9777A3p+spzuq6g7YHFI8Pl4y/fl2ZtG9nu0uvWa7G9J2iAd9IbQ/8l+OzCpk+cI3BAGpbWZ8Y43l/m6X3PwAFsWFP1vrQV1DL22c7T+n4NZO5pHbvxrBpzsEy2bHkvGH8brM80zvvhuEESdW+keRtQhxg/rkSWLiEfTXhPlxMwdhp9GOvWvoxtzuapecd74z1Dp6Ozu8R9JEACJEACJEACJOC/BLIcTTzkzndD/70SByOLO/qb3lO2ZHkHLbg5mAns2rFHpdT215fY780e0rpjC51yu+en3+S6SreGEAqiHV1ZonIcHVcpugf2HpLCKr28nKoRZ3Wuujo+kPcjLe/IwWNyMO6w/lKLWnypdUb4w3XrtMKTZ3Va+5W/rqp6aIUkTNX3s9ZjzIhxIroWqfRIFQazyNIllbM5c4lm4fo7t+mt8bZ/5lHp3b9bqlAbn7eD+w5Lnjy55Z7y0V6tGeurZyZVcDK4Ub9O/XWkHNJaY1dMEIiKOTJPvV+N/gOZuy/GjohziC4dVe/nu5RDHbVLEa1OIwESIAESIAESIAESIAF/IsBUa3+6GxyLVwjkzJVTp4S7czI4jBAZZ42Oc+f4QG4LJ2Mp5TTDFIiG8ReLKKonb44fUa2pTVP15ri8ea5dP/xini4sopi57GrB1583Xz0zrrhk9P69vx4w03NrqFp6zpyOjsaSlver0Vcgc/fF2BHJiNR4TDQSIAESIAESIAESIAES8FcCQe94ZKSjvz56HBcJkEAwE4AyMsR1DLMK7xjbOPcfAnA6DnvrU3NAbZ9yT8DHPJALJEACJEACJEACJEACJEACJGAhEPSOR8u1cpEESIAESCCDCCDt9v3+I3TvN5SQDcSYDIM6vKE0bmzj3D8IvNV3iMTt3qfV0o0RxSixq4cermasck4CJEACJEACJEACJEACJEACaSZAx2Oa0fFAEiABEiABgwBUvKGWa2v3KxEiiLrQ/JPAyaOnkzkdUR5gsFI7R+owjQRIgARIgARIgARIgARIgATSSyDoxWXSC4jHBzaBhPMXZcOKzfoiqjx4v0Pl6sC+So6eBHxPIP70Odmydps5kFxKxbt02SilvFsq04nqmBACYGHDyi2ScC5BcL/uiykv4SXCUj1qvl9TjYoNSYAESIAESIAESIAESCDTEqDjMdPeel44CZAACZAACZAACZAACZAACZAACZAACZAACWQcgZCM65o9kwAJkAAJkAAJkAAJkAAJkAAJkAAJkAAJkAAJZFYCWf5WFswXf+HCBX15BQoUCObL5LWRAAmQAAmQAAmQAAmQAAmQAAmQAAmQAAmQgF8RYMSjX90ODoYESIAESIAESIAESIAESIAESIAESIAESIAEgoMAHY/BcR95FSRAAiRAAiRAAiRAAiRAAiRAAiRAAiRAAiTgVwToePSr28HBkAAJkAAJkAAJkAAJkAAJkAAJkAAJkAAJkEBwEMjmi8u4cuWKXL582eWpQ0NDJUeOHC7bsQEJkAAJkAAJkAAJkAAJkAAJkAAJkAAJkAAJkIB/EfCJ4/Hw4cOyd+9elyRiYmKkZMmSLtuxAQmQAAmQAAmQAAmQAAmQAAmQAAmQAAmQAAmQgH8RYKq1f90PjoYESIAESIAESIAESIAESIAESIAESIAESIAEgoKATyIereRq1KghOXPmtG4yl/PkyWMuc8G/CVy9dk1u3rgp2bJldXg//fsKODoSIAESIAESIAESIAESIAESIAESIAESIAFPEvC54zF//vySK1cuT14T+0oDgdOnz8jBQ4f1kRUrlBPU13THXuzaQ7Z//4NERITL2pVLXR76+Zhx8smnn+l2K5cukhIlirs8hg1IgARIgARIgARIgARIgARIgARIgARIgAQCh4DPHY+Bgyq4R/rfNwbKhk2bJSQkiyxb/I3bjse//77Dx1xwzuvWrURJTLx90K3EW84bcy8JkAAJkAAJkAAJkAAJkAAJkAAJkAAJkEDAEWCNx4C7ZZ4f8K+//a6djui5aZPGUioy0vMnYY8kQAIkQAIkQAIkQAIkQAIkQAIkQAIkQAKZioDPIx537dol11R9QFjevHn1BCVrR3UfM9Xd8dLFjh0/0TxT1y6dzeWMXHisfRupXq2qPkVEeHhGnop9kwAJkAAJkAAJkAAJkAAJkAAJkAAJkAAJ+ICAzx2Pp0+fNi87ISFBL+/bt08qVKggUVFR5j4uZAyBo0ePydKly3XntWs9JJXuq5gxJ7LpNTwsTDDRSIAESIAESIAESIAESIAESIAESIAESIAEgpOATx2POXLk0BGOmF+5ckUuXbqk6v4lys2bNwWRkNmyZVOiIyWCk3wGXdW5c+dl7vwFmufLvXu5PMuESV/KLcUc1s1FtCMiU2NnzJKfdv4scXF7pXTpaKlRvZo8/lg7l+e5fPmyTJk23W67p5/sqJ6DlArm+/YfkG++XaSPqV/vH1L1gRi7x2MjxnXy5Cmtqm1c94yZs+X4iZN6fCVL8jlyCI87SIAESIAESIAESIAESIAESIAESIAESCADCPjE8Vi4cGEpUKCAFC1aVLJkyWJe1tWrV7XD8dSpU3rbnj17dBs4JmmOCcBZu3nLVpk5a66sXL1GO24bN2rg+IA7e+LPnZM58+brtUr3VZDatWo6POZsfLz0fKmv/Lxrt9kGjsHlK1bJylWr5eq1q+Z2ewvnzp+XYSNG2tslzZo2set4zHnXXfLF2PH6GDg6vxht//iLFy/Ku4M/0NcdU6WyGI7Ho8eOydjxk2TMuPFSq+ZD0uHxx6Rxo4aSPXt2u+PgRhIgARIgARIgARIgARIgARIgARIgARIgAc8R8Jnj0d4loK5jtWrVZP369Tr68fr164JUbNR8pKUkcObMWZk9d57MmjNPjh8/kaxBnjwpIwiTNVArX341VdXXvK43u6rt2Kt3P9PpGKmiBxs2qC+4PyuU0/G7bd/bdp1iPV/efNKqZXNzOwRt4Lh0ZiVKFFdRjlXkhx93KvGbTfLHH3/YVdteppyfiJKFtX60hdmlwQBC25u3fKenggULSLs2reWJf7aX6Ogosy0XSIAESIAESIAESIAESIAESIAESIAESIAEPEvAJ45HZ5cQEhKiUnhLy86dO3UzpF/TkgggLXr9+o0qunGOrF233kyTRovcuXNJs0eaSPt2bXQKdNJRKZf+/POyxE6fqXdElYrUatYpW93esmXrd7Lz5116BZGRkyeOk9B8+fR6j25d5JlOneWIqhXpzAoUuFuGDf3AbDJq9BgZOWq0ue5oodWjLbXj8caNmwIHo7207oWLlujDs2bNKi2aNzO76tm9q9Sv97DMnbdAvlm4SC5cSJDz5y8I0ssx1aheVZ5QUZBgdpeKrqSRAAmQAAmQAAmQAAmQAAmQAAmQAAmQAAl4jkCI57ryXE9QtzYMtQFpomoVntCOugaNmkn3Xn1k1Zq12umITPUHa1STDwYPks3rV8sHQ95V6w0vHkoAAAkISURBVNWTpbDb4zd95iz5445T98UXOgkcvo7s66mx5q5X+71sOh2xMSysmLzUs7u539MLLZo11bU+0a/hYLSe4+zZs7Jt+3a9qU7tmoKIRqtVKF9OBvT/t2xat0o+GzlCGqlITTgoYdu//0Fe+88AqVuvsbw35H8St3ef9VAukwAJkAAJkAAJkAAJkAAJkAAJkAAJkAAJpIOA30U84lpu3LhhXpLhJDI3ZLKFW7duSbeefWTT5s1KeEflDN+xiIhwad+2tU4bdlc4BSnSk778WvdUpEhhaaf6cWYHDhzUuxG1aK8OJGo0DnjrHTPd2Vlf7u7DOevWqaWiOzfItm3bBXUpCxcqZHazZNkKk0vrVi3N7bYLECpq0rihniDA8823C1V9ywXa2XhRpXB/NWWanlAjctQnw1Vt0SK2XXCdBEiABEiABEiABEiABEiABEiABEiABEjADQKOw9zc6MTTTc8rIRLDQkNDjcVMOUftwg0bN5nOtaioUvLVpHGyZsUSLaLirtMREOcv+FbOno3XPDs9+7S4Eu85oZShYRHh4XYjI3PlypXMGagbe/Cf1irdGoY08yVLliXr2YiCxBiaKOGY1FihQgXlheefk4UL5sjcWbFaeMY4Dord1ufP2M45CZAACZAACZAACZAACZAACZAACZAACZCAewS87ni8du2aOEufRk3HAweSREegfp2ZDarfISFJyt+HDh2WtwcNlnETJinhnTNuo4EC9viJk/Vx+VRK+1MdOzjtA4IuV9U9g6G9I4MzL6MMCt2oXwlbtGSpeZpjx44LHIWwxg3rC5yPqTVc1zRV4/Kdd4cIalhaLYuTtHNrOy6TAAmQAAmQAAmQAAmQAAmQAAmQAAmQAAk4JuD1VOtzKlV2x44dUrhwYSlevLhAeRhq1levXpX4+HjZv3+/iu5L1CMOCwuTQpa0WseXEbx7EI24avlima2Uq2fPna+djQcOHpKPhn8iwz8eKXVq1dKp0o1VGnHOVAikLF+5Sg4dPqKBPdnxccmb17n6de7cubXjE2netxJvOQR95coVh/vSuwPPB6IZF3y7SH78aaeud1k8IkIWLU5yQjpLszbOj4jJjSp6FGIzqJF5/XpSSn9+FVmLPiA2U65sGeMQzkmABEiABEiABEiABEiABEiABEiABEiABNJIwOuOR2OccDJicmRwSFauXNnR7ky1HU62vn1ekt4v9ZR1qtYhFK3Xrd+gU483bNosmBCN2Lz5I9K+TRupWjXGIZ+x4yfqfTlyZJdOzz3jsJ2xA7UR4SQ+c+asqq+YlAJv7Dfm8fHnjMUMmbdSTkE4Hv9WZS4Xq3Trri++IAsX31azhqBM3Tq1HZ4XojHz5n+j6zqetRknla0dYuMOEiABEiABEiABEiABEiABEiABEiABEkgXAa87HuFQRPp0QkKCciIliaUYVwExmXvvvVdPzpSWjfaZaZ5VpQA3bFBPT0iznjNvvsxSkZDHj5+QS3/+qRySc/UUVSpSenbvmkI0BinFu3f/opFBUKaIciimxlDbEY7HIypSEirSRYokF175/fc4UyE7Nf2lpU2dWjWlUMGCck7V/0Rdxwb168nvcXt1V82bPWIqVVv73qgcsogK3b3nV+tm9fzdrUV5OqjoxujoqGT7uEICJEACJEACJEACJEACJEACJEACJEACJOAZAl53PObPn1/q1q2rlav/VM4y1HyEgApSivOqqD3U6UNdQ5pzAsWKFZVePbpJj25dlOL1Vpk5e46sWr1Ws0Qq9YpVq1M4HseMm6A7Rc3ILp2fd34Cy94G9R/WtRSRqjxz9lx5qWd3y16RKbHTk61nxAoc0i2aN5Wvp8bKr7/9LiM/HW2exhCfMTfcWdj63TbT6YhHqlbNhwTOxsYqbTt79uy2zblOAiRAAiRAAiRAAiRAAiRAAiRAAiRAAiTgQQJedzwaY4fjJ7MLxxgs0jNHVOg/6tbWU7yqn4mUYqRi29ruPb/I5i23RVSaNmkspSIjbZs4XH/6yQ4Cp+Vff12RTz/7XOA8btPqUe08njItVmbMTHk+a2eIbD11+rR1k1y8eNFcP3XqdDJl7Zx35dRRiWaDOwuowQjHI2zp8hV6XrJEcXkgpopetvdPkcKFpH27tvLEP9tLWhTA7fXJbSRAAiRAAiRAAiRAAiRAAiRAAiRAAiRAAq4JZFFOoZT5zq6PC5gWFy5c0GPNTE5O3FKkJBe2CPP0feVfsmTZbWfd3FmxUum+im7dw6mxM2TQe0N0jUXbA7NnzyaJtxJ1zcmI8DBZu2pZsiZQn274SItk25ytPBBTWWZM+9puk8ZNW8qRo8fMfUgpf6Vvb3PdunDhQoKEhuazm4ZtbcdlEiABEiABEiABEiABEiABEiABEiABEiABzxMI8XyX7NHXBJCqbnU6IvV62YqVeli1az3kttMRByLqceSIYQL1Z6vlzx8qnwwfKtWrV9WbQ1RKtK2FZHXvMQsJSdmH0aetenXrVo4dmqjliBRtGgmQAAmQAAmQAAmQAAmQAAmQAAmQAAmQgPcJMOLR+8y9fsY3Br6jRWdw4i8njtW1DtM6CERTHjh4UOKUsEvp6GgpW7YMa3KmFSaPIwESIAESIAESIAESIAESIAESIAESIIEgJkDHYxDfXFwaVKgbNGku16/fkEqVKsrcmbdrJAb5ZfPySIAESIAESIAESIAESIAESIAESIAESIAEfEwg6B2PPubr89MfP3FC1q3fqMcRU6WyVKxQ3udj4gBIgARIgARIgARIgARIgARIgARIgARIgASCnwAdj8F/j3mFJEACJEACJEACJEACJEACJEACJEACJEACJOB1Au6pfnh9eDwhCZAACZAACZAACZAACZAACZAACZAACZAACZBAIBKg4zEQ7xrHTAIkQAIkQAIkQAIkQAIkQAIkQAIkQAIkQAJ+ToCORz+/QRweCZAACZAACZAACZAACZAACZAACZAACZAACQQiAToeA/GuccwkQAIkQAIkQAIkQAIkQAIkQAIkQAIkQAIk4OcEsh04cMDPh8jhkQAJkAAJkAAJkAAJkAAJkAAJkAAJkAAJkAAJBBqB/wdab3XuFY4ijwAAAABJRU5ErkJggg==;imageBorder=#808080;" vertex="1" parent="1">
          <mxGeometry x="858" y="9" width="780" height="109.56" as="geometry" />
        </mxCell>
        <mxCell id="DnKJ6aQa_n4VbNqKtSH7-12" value="" style="endArrow=none;html=1;rounded=0;strokeWidth=2;strokeColor=#808080;" edge="1" parent="1">
          <mxGeometry width="50" height="50" relative="1" as="geometry">
            <mxPoint x="829" y="9" as="sourcePoint" />
            <mxPoint x="829" y="119" as="targetPoint" />
          </mxGeometry>
        </mxCell>
      </root>
    </mxGraphModel>
  </diagram>
</mxfile>
